<?xml version="1.0" encoding="UTF-8" standalone="no"?>
<!DOCTYPE svg PUBLIC "-//W3C//DTD SVG 1.1//EN"
 "http://www.w3.org/Graphics/SVG/1.1/DTD/svg11.dtd">
<!-- Generated by graphviz version 10.0.1 (0)
 -->
<!-- Pages: 1 -->
<svg width="209pt" height="333pt"
 viewBox="0.00 0.00 209.25 332.50" xmlns="http://www.w3.org/2000/svg" xmlns:xlink="http://www.w3.org/1999/xlink">
<g id="graph0" class="graph" transform="scale(1 1) rotate(0) translate(4 328.5)">
<polygon fill="white" stroke="none" points="-4,4 -4,-328.5 205.25,-328.5 205.25,4 -4,4"/>
<text text-anchor="middle" x="100.62" y="-307.2" font-family="Helvetica,Arial,sans-serif" font-size="14.00">密結合したアプリケーション</text>
<!-- entry -->
<g id="node1" class="node">
<title>entry</title>
<polygon fill="none" stroke="black" points="139.75,-301.5 61.5,-301.5 61.5,-265.5 139.75,-265.5 139.75,-301.5"/>
<text text-anchor="middle" x="100.62" y="-278.45" font-family="Times,serif" font-size="14.00">Entry Point</text>
</g>
<!-- ui -->
<g id="node2" class="node">
<title>ui</title>
<polygon fill="none" stroke="black" points="133.38,-213 67.88,-213 67.88,-177 133.38,-177 133.38,-213"/>
<text text-anchor="middle" x="100.62" y="-189.95" font-family="Times,serif" font-size="14.00">UI Layer</text>
</g>
<!-- entry&#45;&gt;ui -->
<g id="edge1" class="edge">
<title>entry&#45;&gt;ui</title>
<path fill="none" stroke="black" stroke-dasharray="1,5" d="M100.62,-265.41C100.62,-253.76 100.62,-238.05 100.62,-224.52"/>
<polygon fill="black" stroke="black" points="104.13,-224.86 100.63,-214.86 97.13,-224.86 104.13,-224.86"/>
<text text-anchor="middle" x="104" y="-234.2" font-family="Times,serif" font-size="14.00">1</text>
</g>
<!-- domain -->
<g id="node3" class="node">
<title>domain</title>
<polygon fill="none" stroke="black" points="148.38,-124.5 52.88,-124.5 52.88,-88.5 148.38,-88.5 148.38,-124.5"/>
<text text-anchor="middle" x="100.62" y="-101.45" font-family="Times,serif" font-size="14.00">Domain Layer</text>
</g>
<!-- ui&#45;&gt;domain -->
<g id="edge2" class="edge">
<title>ui&#45;&gt;domain</title>
<path fill="none" stroke="black" stroke-dasharray="1,5" d="M100.62,-176.91C100.62,-165.26 100.62,-149.55 100.62,-136.02"/>
<polygon fill="black" stroke="black" points="104.13,-136.36 100.63,-126.36 97.13,-136.36 104.13,-136.36"/>
<text text-anchor="middle" x="104" y="-145.7" font-family="Times,serif" font-size="14.00">2</text>
</g>
<!-- data -->
<g id="node4" class="node">
<title>data</title>
<polygon fill="none" stroke="black" points="158.12,-36 43.12,-36 43.12,0 158.12,0 158.12,-36"/>
<text text-anchor="middle" x="100.62" y="-12.95" font-family="Times,serif" font-size="14.00">DataAccess Layer</text>
</g>
<!-- domain&#45;&gt;data -->
<g id="edge3" class="edge">
<title>domain&#45;&gt;data</title>
<path fill="none" stroke="black" stroke-dasharray="1,5" d="M100.62,-88.41C100.62,-76.76 100.62,-61.05 100.62,-47.52"/>
<polygon fill="black" stroke="black" points="104.13,-47.86 100.63,-37.86 97.13,-47.86 104.13,-47.86"/>
<text text-anchor="middle" x="104" y="-57.2" font-family="Times,serif" font-size="14.00">3</text>
</g>
</g>
</svg>
