<?xml version="1.0" encoding="UTF-8" standalone="no"?>
<!DOCTYPE svg PUBLIC "-//W3C//DTD SVG 1.1//EN"
 "http://www.w3.org/Graphics/SVG/1.1/DTD/svg11.dtd">
<!-- Generated by graphviz version 10.0.1 (0)
 -->
<!-- Pages: 1 -->
<svg width="209pt" height="333pt"
 viewBox="0.00 0.00 209.25 332.50" xmlns="http://www.w3.org/2000/svg" xmlns:xlink="http://www.w3.org/1999/xlink">
<g id="graph0" class="graph" transform="scale(1 1) rotate(0) translate(4 328.5)">
<polygon fill="white" stroke="none" points="-4,4 -4,-328.5 205.25,-328.5 205.25,4 -4,4"/>
<text text-anchor="middle" x="100.62" y="-307.2" font-family="Helvetica,Arial,sans-serif" font-size="14.00">密結合したアプリケーション</text>
<!-- entry -->
<g id="node1" class="node">
<title>entry</title>
<polygon fill="none" stroke="black" points="163.25,-301.5 85,-301.5 85,-265.5 163.25,-265.5 163.25,-301.5"/>
<text text-anchor="middle" x="124.12" y="-278.45" font-family="Times,serif" font-size="14.00">Entry Point</text>
</g>
<!-- ui -->
<g id="node2" class="node">
<title>ui</title>
<polygon fill="none" stroke="black" points="87.88,-213 22.38,-213 22.38,-177 87.88,-177 87.88,-213"/>
<text text-anchor="middle" x="55.12" y="-189.95" font-family="Times,serif" font-size="14.00">UI Layer</text>
</g>
<!-- entry&#45;&gt;ui -->
<g id="edge1" class="edge">
<title>entry&#45;&gt;ui</title>
<path fill="none" stroke="black" stroke-dasharray="1,5" d="M110.49,-265.41C100.63,-253.05 87.13,-236.13 75.93,-222.08"/>
<polygon fill="black" stroke="black" points="78.88,-220.17 69.91,-214.53 73.41,-224.53 78.88,-220.17"/>
<text text-anchor="middle" x="99.5" y="-234.2" font-family="Times,serif" font-size="14.00">1</text>
</g>
<!-- domain -->
<g id="node3" class="node">
<title>domain</title>
<polygon fill="none" stroke="black" points="156.88,-124.5 61.38,-124.5 61.38,-88.5 156.88,-88.5 156.88,-124.5"/>
<text text-anchor="middle" x="109.12" y="-101.45" font-family="Times,serif" font-size="14.00">Domain Layer</text>
</g>
<!-- entry&#45;&gt;domain -->
<g id="edge4" class="edge">
<title>entry&#45;&gt;domain</title>
<path fill="none" stroke="black" stroke-dasharray="1,5" d="M122.63,-265.08C120.05,-234.94 114.72,-172.8 111.58,-136.2"/>
<polygon fill="black" stroke="black" points="115.08,-136.02 110.74,-126.36 108.11,-136.62 115.08,-136.02"/>
<text text-anchor="middle" x="121.5" y="-189.95" font-family="Times,serif" font-size="14.00">4</text>
</g>
<!-- data -->
<g id="node4" class="node">
<title>data</title>
<polygon fill="none" stroke="black" points="166.62,-36 51.62,-36 51.62,0 166.62,0 166.62,-36"/>
<text text-anchor="middle" x="109.12" y="-12.95" font-family="Times,serif" font-size="14.00">DataAccess Layer</text>
</g>
<!-- entry&#45;&gt;data -->
<g id="edge5" class="edge">
<title>entry&#45;&gt;data</title>
<path fill="none" stroke="black" stroke-dasharray="1,5" d="M134.14,-265.22C152.73,-230.81 188.7,-151.61 166.12,-88.5 160.25,-72.06 148.62,-56.72 137.4,-44.66"/>
<polygon fill="black" stroke="black" points="139.94,-42.25 130.44,-37.56 134.94,-47.15 139.94,-42.25"/>
<text text-anchor="middle" x="175.5" y="-145.7" font-family="Times,serif" font-size="14.00">5</text>
</g>
<!-- ui&#45;&gt;domain -->
<g id="edge2" class="edge">
<title>ui&#45;&gt;domain</title>
<path fill="none" stroke="black" stroke-dasharray="1,5" d="M65.79,-176.91C73.36,-164.79 83.67,-148.27 92.34,-134.39"/>
<polygon fill="black" stroke="black" points="95.17,-136.47 97.49,-126.13 89.23,-132.76 95.17,-136.47"/>
<text text-anchor="middle" x="90.5" y="-145.7" font-family="Times,serif" font-size="14.00">2</text>
</g>
<!-- ui&#45;&gt;data -->
<g id="edge6" class="edge">
<title>ui&#45;&gt;data</title>
<path fill="none" stroke="black" stroke-dasharray="1,5" d="M48.84,-176.53C42.15,-155.04 33.97,-117.81 45.38,-88.5 52.03,-71.39 65.09,-55.94 77.66,-43.97"/>
<polygon fill="black" stroke="black" points="80,-46.58 85.08,-37.28 75.31,-41.38 80,-46.58"/>
<text text-anchor="middle" x="49.5" y="-101.45" font-family="Times,serif" font-size="14.00">6</text>
</g>
<!-- domain&#45;&gt;data -->
<g id="edge3" class="edge">
<title>domain&#45;&gt;data</title>
<path fill="none" stroke="black" stroke-dasharray="1,5" d="M109.12,-88.41C109.12,-76.76 109.12,-61.05 109.12,-47.52"/>
<polygon fill="black" stroke="black" points="112.63,-47.86 109.13,-37.86 105.63,-47.86 112.63,-47.86"/>
<text text-anchor="middle" x="112.5" y="-57.2" font-family="Times,serif" font-size="14.00">3</text>
</g>
</g>
</svg>
