<?xml version="1.0" encoding="UTF-8" standalone="no"?>
<!DOCTYPE svg PUBLIC "-//W3C//DTD SVG 1.1//EN"
 "http://www.w3.org/Graphics/SVG/1.1/DTD/svg11.dtd">
<!-- Generated by graphviz version 10.0.1 (0)
 -->
<!-- Pages: 1 -->
<svg width="249pt" height="244pt"
 viewBox="0.00 0.00 249.25 244.00" xmlns="http://www.w3.org/2000/svg" xmlns:xlink="http://www.w3.org/1999/xlink">
<g id="graph0" class="graph" transform="scale(1 1) rotate(0) translate(4 240)">
<polygon fill="white" stroke="none" points="-4,4 -4,-240 245.25,-240 245.25,4 -4,4"/>
<text text-anchor="middle" x="93.5" y="-218.7" font-family="Helvetica,Arial,sans-serif" font-size="14.00">疎結合なアプリケーション</text>
<!-- root -->
<g id="node1" class="node">
<title>root</title>
<polygon fill="none" stroke="black" points="154.38,-213 49.12,-213 49.12,-177 154.38,-177 154.38,-213"/>
<text text-anchor="middle" x="101.75" y="-189.95" font-family="Times,serif" font-size="14.00">ComposionRoot</text>
</g>
<!-- ui -->
<g id="node2" class="node">
<title>ui</title>
<polygon fill="none" stroke="black" points="65.5,-124.5 0,-124.5 0,-88.5 65.5,-88.5 65.5,-124.5"/>
<text text-anchor="middle" x="32.75" y="-101.45" font-family="Times,serif" font-size="14.00">UI Layer</text>
</g>
<!-- root&#45;&gt;ui -->
<g id="edge1" class="edge">
<title>root&#45;&gt;ui</title>
<path fill="none" stroke="black" stroke-dasharray="1,5" d="M88.12,-176.91C78.26,-164.55 64.76,-147.63 53.56,-133.58"/>
<polygon fill="black" stroke="black" points="56.51,-131.67 47.53,-126.03 51.03,-136.03 56.51,-131.67"/>
<text text-anchor="middle" x="77.12" y="-145.7" font-family="Times,serif" font-size="14.00">1</text>
</g>
<!-- domain -->
<g id="node3" class="node">
<title>domain</title>
<polygon fill="none" stroke="black" points="149.5,-36 54,-36 54,0 149.5,0 149.5,-36"/>
<text text-anchor="middle" x="101.75" y="-12.95" font-family="Times,serif" font-size="14.00">Domain Layer</text>
</g>
<!-- root&#45;&gt;domain -->
<g id="edge2" class="edge">
<title>root&#45;&gt;domain</title>
<path fill="none" stroke="black" stroke-dasharray="1,5" d="M101.75,-176.58C101.75,-146.44 101.75,-84.3 101.75,-47.7"/>
<polygon fill="black" stroke="black" points="105.25,-47.86 101.75,-37.86 98.25,-47.86 105.25,-47.86"/>
<text text-anchor="middle" x="105.12" y="-101.45" font-family="Times,serif" font-size="14.00">2</text>
</g>
<!-- data -->
<g id="node4" class="node">
<title>data</title>
<polygon fill="none" stroke="black" points="241.25,-124.5 126.25,-124.5 126.25,-88.5 241.25,-88.5 241.25,-124.5"/>
<text text-anchor="middle" x="183.75" y="-101.45" font-family="Times,serif" font-size="14.00">DataAccess Layer</text>
</g>
<!-- root&#45;&gt;data -->
<g id="edge3" class="edge">
<title>root&#45;&gt;data</title>
<path fill="none" stroke="black" stroke-dasharray="1,5" d="M117.95,-176.91C129.78,-164.43 146.02,-147.3 159.4,-133.18"/>
<polygon fill="black" stroke="black" points="161.92,-135.61 166.26,-125.95 156.84,-130.8 161.92,-135.61"/>
<text text-anchor="middle" x="154.12" y="-145.7" font-family="Times,serif" font-size="14.00">3</text>
</g>
<!-- ui&#45;&gt;domain -->
<g id="edge4" class="edge">
<title>ui&#45;&gt;domain</title>
<path fill="none" stroke="black" stroke-dasharray="1,5" d="M46.38,-88.41C56.24,-76.05 69.74,-59.13 80.94,-45.08"/>
<polygon fill="black" stroke="black" points="83.47,-47.53 86.97,-37.53 77.99,-43.17 83.47,-47.53"/>
<text text-anchor="middle" x="77.12" y="-57.2" font-family="Times,serif" font-size="14.00">4</text>
</g>
<!-- data&#45;&gt;domain -->
<g id="edge5" class="edge">
<title>data&#45;&gt;domain</title>
<path fill="none" stroke="black" stroke-dasharray="1,5" d="M167.55,-88.41C155.72,-75.93 139.48,-58.8 126.1,-44.68"/>
<polygon fill="black" stroke="black" points="128.66,-42.3 119.24,-37.45 123.58,-47.11 128.66,-42.3"/>
<text text-anchor="middle" x="154.12" y="-57.2" font-family="Times,serif" font-size="14.00">5</text>
</g>
</g>
</svg>
