<svg xmlns="http://www.w3.org/2000/svg" xmlns:xlink="http://www.w3.org/1999/xlink" xmlns:lucid="lucid" width="2105" height="1028"><g transform="translate(695 872)" lucid:page-tab-id="0_0"><path d="M-1500-1000h4000v3000h-4000z" fill="#fff"/><path d="M-20-714a6 6 0 0 1 6-6h468a6 6 0 0 1 6 6v568a6 6 0 0 1-6 6H-14a6 6 0 0 1-6-6z" stroke="#5e5e5e" stroke-width="3" fill-opacity="0"/><use xlink:href="#a" transform="matrix(1,0,0,1,-12,-712) translate(62.22167968750003 23.80598958333333)"/><path d="M-220-614a6 6 0 0 1 6-6h148a6 6 0 0 1 6 6v68a6 6 0 0 1-6 6h-148a6 6 0 0 1-6-6z" stroke="#5e5e5e" stroke-width="3" fill="#fff"/><use xlink:href="#b" transform="matrix(1,0,0,1,-208,-608) translate(1.9750976562500142 37.80598958333333)"/><path d="M40-614a6 6 0 0 1 6-6h348a6 6 0 0 1 6 6v68a6 6 0 0 1-6 6H46a6 6 0 0 1-6-6z" stroke="#5e5e5e" stroke-width="3" fill="#fff"/><use xlink:href="#c" transform="matrix(1,0,0,1,52,-608) translate(-1.7783203124999716 36.139322916666664)"/><path d="M500-614a6 6 0 0 1 6-6h268a6 6 0 0 1 6 6v68a6 6 0 0 1-6 6H506a6 6 0 0 1-6-6z" stroke="#5e5e5e" stroke-width="3" fill="#fff"/><use xlink:href="#d" transform="matrix(1,0,0,1,512,-608) translate(71.4072265625 37.80598958333333)"/><path d="M40-464a6 6 0 0 1 6-6h348a6 6 0 0 1 6 6v68a6 6 0 0 1-6 6H46a6 6 0 0 1-6-6z" stroke="#5e5e5e" stroke-width="3" fill="#fff"/><use xlink:href="#e" transform="matrix(1,0,0,1,52,-458) translate(120.83935546875 37.80598958333333)"/><path d="M40-314a6 6 0 0 1 6-6h348a6 6 0 0 1 6 6v68a6 6 0 0 1-6 6H46a6 6 0 0 1-6-6z" stroke="#5e5e5e" stroke-width="3" fill="#fff"/><use xlink:href="#e" transform="matrix(1,0,0,1,52.00000000000017,-308) translate(120.83935546875 37.80598958333333)"/><path d="M880-614a6 6 0 0 1 6-6h268a6 6 0 0 1 6 6v68a6 6 0 0 1-6 6H886a6 6 0 0 1-6-6z" stroke="#5e5e5e" stroke-width="3" fill="#fff"/><use xlink:href="#f" transform="matrix(1,0,0,1,892,-608) translate(-4.049804687499972 36.139322916666664)"/><path d="M880-464a6 6 0 0 1 6-6h268a6 6 0 0 1 6 6v68a6 6 0 0 1-6 6H886a6 6 0 0 1-6-6z" stroke="#5e5e5e" stroke-width="3" fill="#fff"/><use xlink:href="#g" transform="matrix(1,0,0,1,892,-458) translate(5.382324218750014 37.80598958333333)"/><path d="M880-314a6 6 0 0 1 6-6h268a6 6 0 0 1 6 6v68a6 6 0 0 1-6 6H886a6 6 0 0 1-6-6z" stroke="#5e5e5e" stroke-width="3" fill="#fff"/><use xlink:href="#h" transform="matrix(1,0,0,1,892,-308) translate(14.814453125000014 37.80598958333333)"/><path d="M880-77.33a6 6 0 0 1 6-6h268a6 6 0 0 1 6 6v74.66a6 6 0 0 1-6 6H886a6 6 0 0 1-6-6z" stroke="#5e5e5e" stroke-width="3" fill="#fff"/><use xlink:href="#i" transform="matrix(1,0,0,1,892,-71.33333333333333) translate(5.382324218750014 27.74348958333333)"/><use xlink:href="#j" transform="matrix(1,0,0,1,892,-71.33333333333333) translate(43.110839843750014 59.07682291666666)"/><path d="M-580-624a6 6 0 0 1 6-6h248a6 6 0 0 1 6 6v88a6 6 0 0 1-6 6h-248a6 6 0 0 1-6-6z" stroke="#5e5e5e" stroke-width="3" fill="#fff"/><use xlink:href="#k" transform="matrix(1,0,0,1,-568,-618) translate(14.246582031250014 45.18098958333333)"/><path d="M-317.5-580h77.5" stroke="#5e5e5e" stroke-width="2" fill="none"/><path d="M-317.47-579h-1.03v-2h1.03z" stroke="#5e5e5e" stroke-width=".05" fill="#5e5e5e"/><path d="M-224.74-580l-14.26 4.63v-9.26z" stroke="#5e5e5e" stroke-width="2" fill="#5e5e5e"/><path d="M-57.5-580H20" stroke="#5e5e5e" stroke-width="2" fill="none"/><path d="M-57.47-579h-1.03v-2h1.03z" stroke="#5e5e5e" stroke-width=".05" fill="#5e5e5e"/><path d="M35.26-580L21-575.37v-9.26z" stroke="#5e5e5e" stroke-width="2" fill="#5e5e5e"/><path d="M402.5-580H480" stroke="#5e5e5e" stroke-width="2" fill="none"/><path d="M402.53-579h-1.03v-2h1.03z" stroke="#5e5e5e" stroke-width=".05" fill="#5e5e5e"/><path d="M495.26-580L481-575.37v-9.26z" stroke="#5e5e5e" stroke-width="2" fill="#5e5e5e"/><path d="M782.5-580H860" stroke="#5e5e5e" stroke-width="2" fill="none"/><path d="M782.53-579h-1.03v-2h1.03z" stroke="#5e5e5e" stroke-width=".05" fill="#5e5e5e"/><path d="M875.26-580L861-575.37v-9.26z" stroke="#5e5e5e" stroke-width="2" fill="#5e5e5e"/><path d="M1020-537.5v47.5" stroke="#5e5e5e" stroke-width="2" fill="none"/><path d="M1021-537.47h-2v-1.03h2z" stroke="#5e5e5e" stroke-width=".05" fill="#5e5e5e"/><path d="M1020-474.74l-4.63-14.26h9.26z" stroke="#5e5e5e" stroke-width="2" fill="#5e5e5e"/><path d="M1020-387.5v47.5" stroke="#5e5e5e" stroke-width="2" fill="none"/><path d="M1021-387.47h-2v-1.03h2z" stroke="#5e5e5e" stroke-width=".05" fill="#5e5e5e"/><path d="M1020-324.74l-4.63-14.26h9.26z" stroke="#5e5e5e" stroke-width="2" fill="#5e5e5e"/><path d="M1020-237.5v134.17" stroke="#5e5e5e" stroke-width="2" fill="none"/><path d="M1021-237.47h-2v-1.03h2z" stroke="#5e5e5e" stroke-width=".05" fill="#5e5e5e"/><path d="M1020-88.07l-4.63-14.27h9.26z" stroke="#5e5e5e" stroke-width="2" fill="#5e5e5e"/><defs><path fill="#333" d="M807 0C529-4 430-92 430-369v-608H131v-143h299v-318h184v318h418v143H614v608c2 165 49 222 211 222h207V0H807" id="l"/><path fill="#333" d="M915-1147c102 0 174 26 240 70v188c-71-55-140-88-254-88-243 0-354 165-354 420V0H362v-1120h185v219c55-146 178-246 368-246" id="m"/><path fill="#333" d="M547-125c229-2 340-186 327-438H641c-189 0-321 55-324 225-3 137 91 215 230 213zm-332-944c167-71 431-115 615-37 106 45 186 120 213 246 11 49 16 123 16 221V0H874v-166C800-42 695 26 508 29c-220 3-378-138-375-355 4-274 199-382 494-381h247c6-204-80-285-282-284-149 1-272 46-377 106v-184" id="n"/><path fill="#333" d="M748-127c144 0 233-46 313-121v191C974-6 875 28 748 29c-351 3-553-232-553-588 0-357 202-591 553-588 129 2 222 35 313 86v193c-88-76-165-123-313-123-245 0-359 174-359 432 0 257 115 432 359 432" id="o"/><path fill="#333" d="M256-1120h471v977h365V0H178v-143h365v-834H256v-143zm287-436h184v233H543v-233" id="p"/><path fill="#333" d="M711-1147c253 0 340 178 340 453V0H866v-694c-1-183-51-293-219-293-189 0-268 148-268 354V0H195v-1120h184v168c60-118 165-195 332-195" id="q"/><path fill="#333" d="M790-254c87-126 81-501 0-630-88-140-313-134-402 0-86 129-92 505 0 630 51 70 117 109 208 109 85 0 146-39 194-109zm-237-893c158 0 247 65 305 176v-145h184V-72c1 325-152 512-469 512-118-1-228-23-325-55V203c107 49 197 90 325 90 215 0 286-119 285-346v-125C804-62 712 8 553 8 267 8 123-257 123-569c0-313 143-578 430-578" id="r"/><path fill="#333" d="M1024 403v80H0v-80h1024" id="s"/><path fill="#333" d="M637-1147c132 1 237 25 336 66v180c-92-53-190-92-322-92-145 0-248 35-248 164 0 50 15 87 46 112 23 30 197 67 303 86 166 30 278 123 278 307 0 239-191 356-446 353-140-2-251-31-371-70v-190c114 58 228 103 375 106 145 3 253-56 256-188 3-87-90-149-253-179-210-38-374-93-374-319 0-232 173-338 420-336" id="t"/><path fill="#333" d="M535 29c-255 0-340-177-340-453v-694h184v694c1 183 52 293 219 293 191 0 268-148 268-354v-633h185V0H866v-168C807-50 701 29 535 29" id="u"/><path fill="#333" d="M850-236c87-126 87-521 0-646-49-70-112-109-201-109s-154 38-203 109c-89 127-89 518 0 645 49 71 114 110 203 110s152-39 201-109zM676 29c-146 0-244-69-299-170V0H193v-1556h184v579c53-101 154-170 301-170 297 0 434 260 434 584 0 329-136 592-436 592" id="v"/><path fill="#333" d="M651-1147c298 0 466 229 461 541v90H315c-4 242 129 392 365 389 156-2 268-51 389-113v183C949-8 828 27 678 29c-351 3-555-232-555-588 0-338 200-588 528-588zm277 487c-4-201-91-331-285-331-193 0-305 144-321 332" id="w"/><g id="a"><use transform="matrix(0.015299479166666663,0,0,0.015299479166666663,0,0)" xlink:href="#l"/><use transform="matrix(0.015299479166666663,0,0,0.015299479166666663,18.864257812499996,0)" xlink:href="#m"/><use transform="matrix(0.015299479166666663,0,0,0.015299479166666663,37.72851562499999,0)" xlink:href="#n"/><use transform="matrix(0.015299479166666663,0,0,0.015299479166666663,56.592773437499986,0)" xlink:href="#o"/><use transform="matrix(0.015299479166666663,0,0,0.015299479166666663,75.45703124999999,0)" xlink:href="#p"/><use transform="matrix(0.015299479166666663,0,0,0.015299479166666663,94.32128906249999,0)" xlink:href="#q"/><use transform="matrix(0.015299479166666663,0,0,0.015299479166666663,113.18554687499999,0)" xlink:href="#r"/><use transform="matrix(0.015299479166666663,0,0,0.015299479166666663,132.04980468749997,0)" xlink:href="#s"/><use transform="matrix(0.015299479166666663,0,0,0.015299479166666663,150.91406249999997,0)" xlink:href="#t"/><use transform="matrix(0.015299479166666663,0,0,0.015299479166666663,169.77832031249997,0)" xlink:href="#u"/><use transform="matrix(0.015299479166666663,0,0,0.015299479166666663,188.64257812499997,0)" xlink:href="#v"/><use transform="matrix(0.015299479166666663,0,0,0.015299479166666663,207.50683593749997,0)" xlink:href="#t"/><use transform="matrix(0.015299479166666663,0,0,0.015299479166666663,226.37109374999997,0)" xlink:href="#o"/><use transform="matrix(0.015299479166666663,0,0,0.015299479166666663,245.23535156249997,0)" xlink:href="#m"/><use transform="matrix(0.015299479166666663,0,0,0.015299479166666663,264.09960937499994,0)" xlink:href="#p"/><use transform="matrix(0.015299479166666663,0,0,0.015299479166666663,282.96386718749994,0)" xlink:href="#v"/><use transform="matrix(0.015299479166666663,0,0,0.015299479166666663,301.82812499999994,0)" xlink:href="#w"/><use transform="matrix(0.015299479166666663,0,0,0.015299479166666663,320.69238281249994,0)" xlink:href="#m"/></g><g id="b"><use transform="matrix(0.015299479166666663,0,0,0.015299479166666663,0,0)" xlink:href="#l"/><use transform="matrix(0.015299479166666663,0,0,0.015299479166666663,18.864257812499996,0)" xlink:href="#m"/><use transform="matrix(0.015299479166666663,0,0,0.015299479166666663,37.72851562499999,0)" xlink:href="#n"/><use transform="matrix(0.015299479166666663,0,0,0.015299479166666663,56.592773437499986,0)" xlink:href="#o"/><use transform="matrix(0.015299479166666663,0,0,0.015299479166666663,75.45703124999999,0)" xlink:href="#p"/><use transform="matrix(0.015299479166666663,0,0,0.015299479166666663,94.32128906249999,0)" xlink:href="#q"/><use transform="matrix(0.015299479166666663,0,0,0.015299479166666663,113.18554687499999,0)" xlink:href="#r"/></g><path fill="#333" d="M838-276c84-151 84-788 0-939-51-91-119-141-222-141-102 0-169 50-220 141-84 151-84 788 0 939 51 91 118 141 220 141 103 0 171-50 222-141zm278-469c0 260-42 454-124 582S785 29 616 29 322-35 240-162 117-484 117-745s41-455 123-583 208-192 376-192c169 0 294 64 376 192s124 322 124 583" id="x"/><path fill="#333" d="M674 29c-147 0-246-68-299-170v567H190v-1546h185v143c55-101 152-170 299-170 300 0 434 263 434 592 0 325-137 584-434 584zm174-265c87-125 87-521 0-646-48-70-112-109-201-109s-154 38-203 109c-89 127-89 518 0 645 49 71 114 110 203 110s153-39 201-109" id="y"/><path fill="#333" d="M47-1493h1139v170H719V0H516v-1323H47v-170" id="z"/><path fill="#333" d="M801 0C570 0 455-164 455-406v-1017H160v-144h479v1161c0 147 46 250 180 250h215V0H801" id="A"/><path fill="#333" d="M471-1147c112 0 171 55 205 141 41-85 99-141 213-141 90 0 154 35 191 105s55 200 55 393V0H967v-641c0-158-12-256-27-295-31-81-176-72-206 4-17 42-29 138-29 291V0H537v-641c0-160-10-259-29-296s-53-56-102-56-83 20-102 61-28 138-28 291V0H109v-1120h167v96c38-70 97-123 195-123" id="B"/><path fill="#333" d="M1153-1120C1010-750 884-433 741-52c-66 176-110 283-133 322-55 94-138 156-276 156H184V272c97 0 188 7 236-47 29-33 70-112 117-243L104-1120h195l332 876 327-876h195" id="C"/><path fill="#333" d="M215-1493h203v1323h721V0H215v-1493" id="D"/><g id="c"><use transform="matrix(0.015299479166666663,0,0,0.015299479166666663,0,0)" xlink:href="#x"/><use transform="matrix(0.015299479166666663,0,0,0.015299479166666663,18.864257812499996,0)" xlink:href="#y"/><use transform="matrix(0.015299479166666663,0,0,0.015299479166666663,37.72851562499999,0)" xlink:href="#w"/><use transform="matrix(0.015299479166666663,0,0,0.015299479166666663,56.592773437499986,0)" xlink:href="#q"/><use transform="matrix(0.015299479166666663,0,0,0.015299479166666663,75.45703124999999,0)" xlink:href="#z"/><use transform="matrix(0.015299479166666663,0,0,0.015299479166666663,94.32128906249999,0)" xlink:href="#w"/><use transform="matrix(0.015299479166666663,0,0,0.015299479166666663,113.18554687499999,0)" xlink:href="#A"/><use transform="matrix(0.015299479166666663,0,0,0.015299479166666663,132.04980468749997,0)" xlink:href="#w"/><use transform="matrix(0.015299479166666663,0,0,0.015299479166666663,150.91406249999997,0)" xlink:href="#B"/><use transform="matrix(0.015299479166666663,0,0,0.015299479166666663,169.77832031249997,0)" xlink:href="#w"/><use transform="matrix(0.015299479166666663,0,0,0.015299479166666663,188.64257812499997,0)" xlink:href="#l"/><use transform="matrix(0.015299479166666663,0,0,0.015299479166666663,207.50683593749997,0)" xlink:href="#m"/><use transform="matrix(0.015299479166666663,0,0,0.015299479166666663,226.37109374999997,0)" xlink:href="#C"/><use transform="matrix(0.015299479166666663,0,0,0.015299479166666663,245.23535156249997,0)" xlink:href="#D"/><use transform="matrix(0.015299479166666663,0,0,0.015299479166666663,264.09960937499994,0)" xlink:href="#n"/><use transform="matrix(0.015299479166666663,0,0,0.015299479166666663,282.96386718749994,0)" xlink:href="#C"/><use transform="matrix(0.015299479166666663,0,0,0.015299479166666663,301.82812499999994,0)" xlink:href="#w"/><use transform="matrix(0.015299479166666663,0,0,0.015299479166666663,320.69238281249994,0)" xlink:href="#m"/></g><g id="d"><use transform="matrix(0.015299479166666663,0,0,0.015299479166666663,0,0)" xlink:href="#z"/><use transform="matrix(0.015299479166666663,0,0,0.015299479166666663,18.864257812499996,0)" xlink:href="#m"/><use transform="matrix(0.015299479166666663,0,0,0.015299479166666663,37.72851562499999,0)" xlink:href="#n"/><use transform="matrix(0.015299479166666663,0,0,0.015299479166666663,56.592773437499986,0)" xlink:href="#o"/><use transform="matrix(0.015299479166666663,0,0,0.015299479166666663,75.45703124999999,0)" xlink:href="#w"/><use transform="matrix(0.015299479166666663,0,0,0.015299479166666663,94.32128906249999,0)" xlink:href="#m"/></g><g id="e"><use transform="matrix(0.015299479166666663,0,0,0.015299479166666663,0,0)" xlink:href="#D"/><use transform="matrix(0.015299479166666663,0,0,0.015299479166666663,18.864257812499996,0)" xlink:href="#n"/><use transform="matrix(0.015299479166666663,0,0,0.015299479166666663,37.72851562499999,0)" xlink:href="#C"/><use transform="matrix(0.015299479166666663,0,0,0.015299479166666663,56.592773437499986,0)" xlink:href="#w"/><use transform="matrix(0.015299479166666663,0,0,0.015299479166666663,75.45703124999999,0)" xlink:href="#m"/></g><path fill="#333" d="M930-1047c0-180-114-280-297-280H399v561h234c182 2 297-102 297-281zm211 0c0 308-189 448-508 447H399V0H197v-1493h436c317-2 508 140 508 446" id="E"/><path fill="#333" d="M616-991c-93 0-161 39-212 109-92 126-92 520 0 646 52 70 119 109 212 109 94 0 161-39 213-109 93-126 92-520 0-646-52-70-119-109-213-109zM137-559c0-353 146-588 479-588s480 235 480 588c0 355-145 588-480 588-334 0-479-234-479-588" id="F"/><path fill="#333" d="M100-1120h191l325 940 326-940h191L735 0H498" id="G"/><path fill="#333" d="M559-1147c146 0 246 68 299 170v-579h184V0H858v-141C803-40 706 29 559 29c-300 0-436-264-436-592 0-325 139-584 436-584zM385-882c-81 129-87 521 0 646 49 70 112 109 201 109s152-39 202-110c89-127 83-514 0-645-88-139-315-140-403 0" id="H"/><g id="f"><use transform="matrix(0.015299479166666663,0,0,0.015299479166666663,0,0)" xlink:href="#z"/><use transform="matrix(0.015299479166666663,0,0,0.015299479166666663,18.864257812499996,0)" xlink:href="#m"/><use transform="matrix(0.015299479166666663,0,0,0.015299479166666663,37.72851562499999,0)" xlink:href="#n"/><use transform="matrix(0.015299479166666663,0,0,0.015299479166666663,56.592773437499986,0)" xlink:href="#o"/><use transform="matrix(0.015299479166666663,0,0,0.015299479166666663,75.45703124999999,0)" xlink:href="#w"/><use transform="matrix(0.015299479166666663,0,0,0.015299479166666663,94.32128906249999,0)" xlink:href="#m"/><use transform="matrix(0.015299479166666663,0,0,0.015299479166666663,113.18554687499999,0)" xlink:href="#E"/><use transform="matrix(0.015299479166666663,0,0,0.015299479166666663,132.04980468749997,0)" xlink:href="#m"/><use transform="matrix(0.015299479166666663,0,0,0.015299479166666663,150.91406249999997,0)" xlink:href="#F"/><use transform="matrix(0.015299479166666663,0,0,0.015299479166666663,169.77832031249997,0)" xlink:href="#G"/><use transform="matrix(0.015299479166666663,0,0,0.015299479166666663,188.64257812499997,0)" xlink:href="#p"/><use transform="matrix(0.015299479166666663,0,0,0.015299479166666663,207.50683593749997,0)" xlink:href="#H"/><use transform="matrix(0.015299479166666663,0,0,0.015299479166666663,226.37109374999997,0)" xlink:href="#w"/><use transform="matrix(0.015299479166666663,0,0,0.015299479166666663,245.23535156249997,0)" xlink:href="#m"/></g><path fill="#333" d="M631-1520c144 2 262 34 381 78v205c-106-67-218-116-371-119-174-3-308 84-309 246 0 66 20 114 54 151 44 48 204 86 310 111 250 58 402 161 402 440 0 301-201 439-516 437-164-1-298-37-424-90v-215c130 81 244 137 424 141 187 4 323-84 323-260 0-181-93-224-262-262-271-61-502-123-504-422-2-273 211-447 492-441" id="I"/><g id="g"><use transform="matrix(0.015299479166666663,0,0,0.015299479166666663,0,0)" xlink:href="#I"/><use transform="matrix(0.015299479166666663,0,0,0.015299479166666663,18.864257812499996,0)" xlink:href="#y"/><use transform="matrix(0.015299479166666663,0,0,0.015299479166666663,37.72851562499999,0)" xlink:href="#n"/><use transform="matrix(0.015299479166666663,0,0,0.015299479166666663,56.592773437499986,0)" xlink:href="#q"/><use transform="matrix(0.015299479166666663,0,0,0.015299479166666663,75.45703124999999,0)" xlink:href="#E"/><use transform="matrix(0.015299479166666663,0,0,0.015299479166666663,94.32128906249999,0)" xlink:href="#m"/><use transform="matrix(0.015299479166666663,0,0,0.015299479166666663,113.18554687499999,0)" xlink:href="#F"/><use transform="matrix(0.015299479166666663,0,0,0.015299479166666663,132.04980468749997,0)" xlink:href="#o"/><use transform="matrix(0.015299479166666663,0,0,0.015299479166666663,150.91406249999997,0)" xlink:href="#w"/><use transform="matrix(0.015299479166666663,0,0,0.015299479166666663,169.77832031249997,0)" xlink:href="#t"/><use transform="matrix(0.015299479166666663,0,0,0.015299479166666663,188.64257812499997,0)" xlink:href="#t"/><use transform="matrix(0.015299479166666663,0,0,0.015299479166666663,207.50683593749997,0)" xlink:href="#F"/><use transform="matrix(0.015299479166666663,0,0,0.015299479166666663,226.37109374999997,0)" xlink:href="#m"/></g><path fill="#333" d="M197-1493h886v170H399v442h654v170H399v541h703V0H197v-1493" id="J"/><path fill="#333" d="M1118-1120L717-584 1157 0H944L616-449 289 0H76l440-584-401-536h204l297 405 295-405h207" id="K"/><g id="h"><use transform="matrix(0.015299479166666663,0,0,0.015299479166666663,0,0)" xlink:href="#I"/><use transform="matrix(0.015299479166666663,0,0,0.015299479166666663,18.864257812499996,0)" xlink:href="#y"/><use transform="matrix(0.015299479166666663,0,0,0.015299479166666663,37.72851562499999,0)" xlink:href="#n"/><use transform="matrix(0.015299479166666663,0,0,0.015299479166666663,56.592773437499986,0)" xlink:href="#q"/><use transform="matrix(0.015299479166666663,0,0,0.015299479166666663,75.45703124999999,0)" xlink:href="#J"/><use transform="matrix(0.015299479166666663,0,0,0.015299479166666663,94.32128906249999,0)" xlink:href="#K"/><use transform="matrix(0.015299479166666663,0,0,0.015299479166666663,113.18554687499999,0)" xlink:href="#y"/><use transform="matrix(0.015299479166666663,0,0,0.015299479166666663,132.04980468749997,0)" xlink:href="#F"/><use transform="matrix(0.015299479166666663,0,0,0.015299479166666663,150.91406249999997,0)" xlink:href="#m"/><use transform="matrix(0.015299479166666663,0,0,0.015299479166666663,169.77832031249997,0)" xlink:href="#l"/><use transform="matrix(0.015299479166666663,0,0,0.015299479166666663,188.64257812499997,0)" xlink:href="#w"/><use transform="matrix(0.015299479166666663,0,0,0.015299479166666663,207.50683593749997,0)" xlink:href="#m"/></g><g id="i"><use transform="matrix(0.015299479166666663,0,0,0.015299479166666663,0,0)" xlink:href="#x"/><use transform="matrix(0.015299479166666663,0,0,0.015299479166666663,18.864257812499996,0)" xlink:href="#y"/><use transform="matrix(0.015299479166666663,0,0,0.015299479166666663,37.72851562499999,0)" xlink:href="#w"/><use transform="matrix(0.015299479166666663,0,0,0.015299479166666663,56.592773437499986,0)" xlink:href="#q"/><use transform="matrix(0.015299479166666663,0,0,0.015299479166666663,75.45703124999999,0)" xlink:href="#l"/><use transform="matrix(0.015299479166666663,0,0,0.015299479166666663,94.32128906249999,0)" xlink:href="#w"/><use transform="matrix(0.015299479166666663,0,0,0.015299479166666663,113.18554687499999,0)" xlink:href="#A"/><use transform="matrix(0.015299479166666663,0,0,0.015299479166666663,132.04980468749997,0)" xlink:href="#w"/><use transform="matrix(0.015299479166666663,0,0,0.015299479166666663,150.91406249999997,0)" xlink:href="#B"/><use transform="matrix(0.015299479166666663,0,0,0.015299479166666663,169.77832031249997,0)" xlink:href="#w"/><use transform="matrix(0.015299479166666663,0,0,0.015299479166666663,188.64257812499997,0)" xlink:href="#l"/><use transform="matrix(0.015299479166666663,0,0,0.015299479166666663,207.50683593749997,0)" xlink:href="#m"/><use transform="matrix(0.015299479166666663,0,0,0.015299479166666663,226.37109374999997,0)" xlink:href="#C"/></g><path fill="#333" d="M743-135c139 0 246-55 330-125v207C978-3 879 29 743 29c-415 0-604-328-604-774 0-244 53-435 159-571s255-204 445-204c135 1 236 32 330 82v207c-84-70-192-125-330-125-131 0-224 54-295 152-125 174-126 743 0 917 71 98 164 152 295 152" id="L"/><g id="j"><use transform="matrix(0.015299479166666663,0,0,0.015299479166666663,0,0)" xlink:href="#L"/><use transform="matrix(0.015299479166666663,0,0,0.015299479166666663,18.864257812499996,0)" xlink:href="#F"/><use transform="matrix(0.015299479166666663,0,0,0.015299479166666663,37.72851562499999,0)" xlink:href="#A"/><use transform="matrix(0.015299479166666663,0,0,0.015299479166666663,56.592773437499986,0)" xlink:href="#A"/><use transform="matrix(0.015299479166666663,0,0,0.015299479166666663,75.45703124999999,0)" xlink:href="#w"/><use transform="matrix(0.015299479166666663,0,0,0.015299479166666663,94.32128906249999,0)" xlink:href="#o"/><use transform="matrix(0.015299479166666663,0,0,0.015299479166666663,113.18554687499999,0)" xlink:href="#l"/><use transform="matrix(0.015299479166666663,0,0,0.015299479166666663,132.04980468749997,0)" xlink:href="#F"/><use transform="matrix(0.015299479166666663,0,0,0.015299479166666663,150.91406249999997,0)" xlink:href="#m"/></g><path fill="#333" d="M616-1315L403-551h426zm-122-178h245L1196 0H987L877-389H354L246 0H37" id="M"/><g id="k"><use transform="matrix(0.015299479166666663,0,0,0.015299479166666663,0,0)" xlink:href="#M"/><use transform="matrix(0.015299479166666663,0,0,0.015299479166666663,18.864257812499996,0)" xlink:href="#y"/><use transform="matrix(0.015299479166666663,0,0,0.015299479166666663,37.72851562499999,0)" xlink:href="#y"/><use transform="matrix(0.015299479166666663,0,0,0.015299479166666663,56.592773437499986,0)" xlink:href="#A"/><use transform="matrix(0.015299479166666663,0,0,0.015299479166666663,75.45703124999999,0)" xlink:href="#p"/><use transform="matrix(0.015299479166666663,0,0,0.015299479166666663,94.32128906249999,0)" xlink:href="#o"/><use transform="matrix(0.015299479166666663,0,0,0.015299479166666663,113.18554687499999,0)" xlink:href="#n"/><use transform="matrix(0.015299479166666663,0,0,0.015299479166666663,132.04980468749997,0)" xlink:href="#l"/><use transform="matrix(0.015299479166666663,0,0,0.015299479166666663,150.91406249999997,0)" xlink:href="#p"/><use transform="matrix(0.015299479166666663,0,0,0.015299479166666663,169.77832031249997,0)" xlink:href="#F"/><use transform="matrix(0.015299479166666663,0,0,0.015299479166666663,188.64257812499997,0)" xlink:href="#q"/></g></defs></g></svg>