<?xml version="1.0" encoding="UTF-8" standalone="no"?>
<!DOCTYPE svg PUBLIC "-//W3C//DTD SVG 1.1//EN"
 "http://www.w3.org/Graphics/SVG/1.1/DTD/svg11.dtd">
<!-- Generated by graphviz version 10.0.1 (0)
 -->
<!-- Pages: 1 -->
<svg width="763pt" height="74pt"
 viewBox="0.00 0.00 762.51 73.51" xmlns="http://www.w3.org/2000/svg" xmlns:xlink="http://www.w3.org/1999/xlink">
<g id="graph0" class="graph" transform="scale(1 1) rotate(0) translate(4 69.51)">
<polygon fill="white" stroke="none" points="-4,4 -4,-69.51 758.51,-69.51 758.51,4 -4,4"/>
<!-- app -->
<g id="node1" class="node">
<title>app</title>
<ellipse fill="none" stroke="black" cx="67.52" cy="-28.26" rx="67.52" ry="18"/>
<text text-anchor="middle" x="67.52" y="-23.58" font-family="Times,serif" font-size="14.00">Application</text>
</g>
<!-- col -->
<g id="node2" class="node">
<title>col</title>
<ellipse fill="none" stroke="black" cx="361.47" cy="-28.26" rx="136.44" ry="18"/>
<text text-anchor="middle" x="361.47" y="-23.58" font-family="Times,serif" font-size="14.00">OpenTelemetry Collector</text>
</g>
<!-- app&#45;&gt;col -->
<g id="edge1" class="edge">
<title>app&#45;&gt;col</title>
<path fill="none" stroke="black" d="M117.85,-40.58C129.32,-42.94 141.55,-45.05 153.03,-46.26 189.77,-50.13 230.23,-48.04 265.59,-44.13"/>
<polygon fill="black" stroke="black" points="265.86,-47.63 275.38,-42.98 265.04,-40.68 265.86,-47.63"/>
<text text-anchor="middle" x="180.03" y="-52.21" font-family="Times,serif" font-size="14.00">logs</text>
</g>
<!-- app&#45;&gt;col -->
<g id="edge2" class="edge">
<title>app&#45;&gt;col</title>
<path fill="none" stroke="black" d="M134.49,-25.48C140.76,-25.29 147.02,-25.13 153.03,-25.01 173.33,-24.62 194.75,-24.56 215.81,-24.7"/>
<polygon fill="black" stroke="black" points="215.58,-28.2 225.61,-24.78 215.64,-21.2 215.58,-28.2"/>
<text text-anchor="middle" x="180.03" y="-28.21" font-family="Times,serif" font-size="14.00">traces</text>
</g>
<!-- app&#45;&gt;col -->
<g id="edge3" class="edge">
<title>app&#45;&gt;col</title>
<path fill="none" stroke="black" d="M108.82,-13.62C122.64,-9.3 138.34,-5.16 153.03,-3.01 197.24,3.45 246.91,-2.14 286.56,-9.69"/>
<polygon fill="black" stroke="black" points="285.76,-13.1 296.25,-11.62 287.13,-6.24 285.76,-13.1"/>
<text text-anchor="middle" x="180.03" y="-6.21" font-family="Times,serif" font-size="14.00">metrics</text>
</g>
<!-- gra -->
<g id="node3" class="node">
<title>gra</title>
<ellipse fill="none" stroke="black" cx="671.21" cy="-28.26" rx="83.3" ry="18"/>
<text text-anchor="middle" x="671.21" y="-23.58" font-family="Times,serif" font-size="14.00">Grafana Cloud</text>
</g>
<!-- col&#45;&gt;gra -->
<g id="edge4" class="edge">
<title>col&#45;&gt;gra</title>
<path fill="none" stroke="black" d="M448.52,-42.5C485.84,-46.92 530.03,-49.81 569.91,-46.26 579.28,-45.43 589.09,-44.16 598.75,-42.68"/>
<polygon fill="black" stroke="black" points="599.18,-46.16 608.49,-41.1 598.05,-39.25 599.18,-46.16"/>
<text text-anchor="middle" x="542.91" y="-51.21" font-family="Times,serif" font-size="14.00">logs</text>
</g>
<!-- col&#45;&gt;gra -->
<g id="edge5" class="edge">
<title>col&#45;&gt;gra</title>
<path fill="none" stroke="black" d="M496.1,-24.91C520.65,-24.65 546.05,-24.62 569.91,-25.01 572.39,-25.05 574.9,-25.1 577.43,-25.15"/>
<polygon fill="black" stroke="black" points="577.07,-28.64 587.14,-25.36 577.22,-21.64 577.07,-28.64"/>
<text text-anchor="middle" x="542.91" y="-28.21" font-family="Times,serif" font-size="14.00">traces</text>
</g>
<!-- col&#45;&gt;gra -->
<g id="edge6" class="edge">
<title>col&#45;&gt;gra</title>
<path fill="none" stroke="black" d="M427.42,-12.17C468.31,-4.07 522.21,2.9 569.91,-3.01 583.21,-4.66 597.27,-7.49 610.53,-10.68"/>
<polygon fill="black" stroke="black" points="609.42,-14.01 619.97,-13.05 611.13,-7.22 609.42,-14.01"/>
<text text-anchor="middle" x="542.91" y="-6.21" font-family="Times,serif" font-size="14.00">metrics</text>
</g>
</g>
</svg>
