<svg xmlns="http://www.w3.org/2000/svg" xmlns:xlink="http://www.w3.org/1999/xlink" xmlns:lucid="lucid" width="975" height="526"><g transform="translate(-14 -1701)" lucid:page-tab-id="0_0"><path d="M261 1816.8h600.5M261.03 1816.8H260" stroke="#e45e2d" stroke-width="2" fill="none"/><path d="M876.76 1816.8l-14.26 4.63v-9.27z" stroke="#e45e2d" stroke-width="2" fill="#e45e2d"/><path d="M260 1861.7a6 6 0 0 1 6-6h48a6 6 0 0 1 6 6v50.2a6 6 0 0 1-6 6h-48a6 6 0 0 1-6-6z" stroke="#ef9c49" stroke-width="2" fill="#fffada"/><use xlink:href="#a" transform="matrix(1,0,0,1,272,1867.6993695125277) translate(15.200000000000001 16.659722222222218)"/><use xlink:href="#b" transform="matrix(1,0,0,1,272,1867.6993695125277) translate(12.302222222222223 35.75305555555555)"/><path d="M40 1862.8a6 6 0 0 1 6-6h228a6 6 0 0 1 6 6v48a6 6 0 0 1-6 6H46a6 6 0 0 1-6-6z" stroke="#000" stroke-opacity="0" fill="#fff" fill-opacity="0"/><use xlink:href="#c" transform="matrix(1,0,0,1,45,1861.792702845861) translate(80.41111111111111 30.27777777777778)"/><path d="M40 1962.8a6 6 0 0 1 6-6h228a6 6 0 0 1 6 6v48a6 6 0 0 1-6 6H46a6 6 0 0 1-6-6z" stroke="#000" stroke-opacity="0" fill="#fff" fill-opacity="0"/><use xlink:href="#d" transform="matrix(1,0,0,1,45,1961.792702845861) translate(70.81111111111112 30.27777777777778)"/><path d="M40 2062.8a6 6 0 0 1 6-6h228a6 6 0 0 1 6 6v48a6 6 0 0 1-6 6H46a6 6 0 0 1-6-6z" stroke="#000" stroke-opacity="0" fill="#fff" fill-opacity="0"/><use xlink:href="#e" transform="matrix(1,0,0,1,45,2061.7927028458607) translate(62.44444444444445 30.27777777777778)"/><path d="M320 1956.93a6 6 0 0 1 6-6h48a6 6 0 0 1 6 6v59.73a6 6 0 0 1-6 6h-48a6 6 0 0 1-6-6z" stroke="#ef9c49" stroke-width="2" fill="#fffada"/><use xlink:href="#f" transform="matrix(1,0,0,1,332,1962.9260361791944) translate(11.244444444444445 20.22222222222222)"/><use xlink:href="#g" transform="matrix(1,0,0,1,332,1962.9260361791944) translate(12.48888888888889 39.315555555555555)"/><path d="M380 2061.7a6 6 0 0 1 6-6h48a6 6 0 0 1 6 6v50.2a6 6 0 0 1-6 6h-48a6 6 0 0 1-6-6z" stroke="#ef9c49" stroke-width="2" fill="#fffada"/><use xlink:href="#h" transform="matrix(1,0,0,1,392,2067.6993695125275) translate(10.933333333333334 16.65972222222222)"/><use xlink:href="#i" transform="matrix(1,0,0,1,392,2067.6993695125275) translate(11.69777777777778 35.753055555555555)"/><path d="M460 1861.7a6 6 0 0 1 6-6h48a6 6 0 0 1 6 6v50.2a6 6 0 0 1-6 6h-48a6 6 0 0 1-6-6z" stroke="#ef9c49" stroke-width="2" fill="#fffada"/><use xlink:href="#j" transform="matrix(1,0,0,1,472,1867.6993695125277) translate(13.36888888888889 16.659722222222218)"/><use xlink:href="#k" transform="matrix(1,0,0,1,472,1867.6993695125277) translate(12.604444444444447 35.75305555555555)"/><path d="M520 1961.7a6 6 0 0 1 6-6h48a6 6 0 0 1 6 6v50.2a6 6 0 0 1-6 6h-48a6 6 0 0 1-6-6z" stroke="#ef9c49" stroke-width="2" fill="#fffada"/><use xlink:href="#l" transform="matrix(1,0,0,1,532,1967.6993695125277) translate(11.742222222222225 16.65972222222222)"/><use xlink:href="#m" transform="matrix(1,0,0,1,532,1967.6993695125277) translate(7.768888888888892 35.753055555555555)"/><path d="M580 2061.7a6 6 0 0 1 6-6h48a6 6 0 0 1 6 6v50.2a6 6 0 0 1-6 6h-48a6 6 0 0 1-6-6z" stroke="#ef9c49" stroke-width="2" fill="#fffada"/><use xlink:href="#n" transform="matrix(1,0,0,1,592,2067.6993695125275) translate(12.684444444444445 16.65972222222222)"/><use xlink:href="#o" transform="matrix(1,0,0,1,592,2067.6993695125275) translate(9.786666666666669 35.753055555555555)"/><path d="M680 1861.7a6 6 0 0 1 6-6h48a6 6 0 0 1 6 6v50.2a6 6 0 0 1-6 6h-48a6 6 0 0 1-6-6z" stroke="#ef9c49" stroke-width="2" fill="#fffada"/><g><use xlink:href="#p" transform="matrix(1,0,0,1,692,1867.6993695125277) translate(8.728888888888893 16.659722222222218)"/><use xlink:href="#q" transform="matrix(1,0,0,1,692,1867.6993695125277) translate(9.973333333333336 35.75305555555555)"/></g><path d="M740 1961.7a6 6 0 0 1 6-6h48a6 6 0 0 1 6 6v50.2a6 6 0 0 1-6 6h-48a6 6 0 0 1-6-6z" stroke="#ef9c49" stroke-width="2" fill="#fffada"/><g><use xlink:href="#r" transform="matrix(1,0,0,1,752,1967.6993695125277) translate(8.41777777777778 16.65972222222222)"/><use xlink:href="#s" transform="matrix(1,0,0,1,752,1967.6993695125277) translate(9.182222222222224 35.753055555555555)"/></g><path d="M800 2061.7a6 6 0 0 1 6-6h48a6 6 0 0 1 6 6v50.2a6 6 0 0 1-6 6h-48a6 6 0 0 1-6-6z" stroke="#ef9c49" stroke-width="2" fill="#fffada"/><g><use xlink:href="#t" transform="matrix(1,0,0,1,812,2067.6993695125275) translate(10.853333333333335 16.65972222222222)"/><use xlink:href="#u" transform="matrix(1,0,0,1,812,2067.6993695125275) translate(10.08888888888889 35.753055555555555)"/></g><defs><path fill="#8b412b" d="M49-77C44-40 70-4 106-4c52 0 58-115 69-176 33-185 88-339 106-531 5-55-37-120-88-84-58 41-108 94-156 139-9 8-27 43-27 58-1 28 35 54 60 54 15-1 48-23 43 15" id="v"/><path fill="#8b412b" d="M39 59C84 43 157-10 157-69c0-34-42-63-77-61-70 4-68 99-68 162 0 18 9 27 27 27" id="w"/><g id="a"><use transform="matrix(0.01777777777777777,0,0,0.01777777777777777,0,0)" xlink:href="#v"/><use transform="matrix(0.01777777777777777,0,0,0.01777777777777777,2.6488888888888877,0)" xlink:href="#w"/></g><path fill="#8b412b" d="M489-785c107 0 154 111 116 214-29 79-213 255-300 345-26 27-38 39-16 63 95 2 204-5 287 7 22 4 49 51 49 77 0 63-95 31-141 31H320C244-52 124 2 73 14 50 19-1-26 3-53c6-51 111-140 150-182 94-98 182-189 275-285 55-57 80-102 80-129 1-31-28-24-56-21-120 11-265 81-296 145-13 26-15 67-56 65s-51-21-51-66c0-144 158-200 287-235 61-16 112-24 153-24" id="x"/><use transform="matrix(0.01777777777777777,0,0,0.01777777777777777,0,0)" xlink:href="#x" id="b"/><path fill="#8b412b" d="M39-49c-7-93 9-204-6-289-18-30-12-41 1-77 37-27 19-97 25-162 2-23-27-37-49-40-11-18-14-56 0-71 17-39 273-99 376-109 72-7 163-32 165 45 1 65-62 51-115 66-63 18-176 24-229 55-41 23-20 107-25 176 83-2 166-25 259-33 74-6 91 70 44 97-80 23-228 35-304 57-18 6-27 18-27 35-9 45 6 274-42 299-35 2-92-5-73-49" id="y"/><path fill="#8b412b" d="M330-158c82-22 193-18 286-31 38 11 58 81 24 113-25 24-71 25-116 25-135 0-238 34-358 47C61 7 4-52 15-159c12-113 37-213 32-340-2-59 2-121-2-178-2-44 35-62 81-61 104-31 222-52 345-64 68-7 103 34 111 94 2 12-3 22-9 31-33 14-62 15-103 16-100 2-196 10-270 40h-8c-18 23-11 79-15 106-1 13 5 22 16 25 82-10 176-25 264-12 44 7 78 26 71 72-7 49-76 30-125 30-78 0-138 22-210 29-24 1-35 28-36 52-2 41-10 83-8 126-19 84 122 51 181 35" id="z"/><path fill="#8b412b" d="M593-790c58 0 99 54 77 117-5 13-15 16-35 14-70-7-152-3-229 7-31 20-24 81-26 127-4 138-16 277-16 422 0 32 4 70-21 83-26 36-88 7-103-20 1-182 10-346 21-521 2-27 11-81-18-84-73-7-138 11-206 3-20-18-39-18-32-51-3-78 74-91 145-91 129 0 251 6 369-8 25-3 49 2 74 2" id="A"/><path fill="#8b412b" d="M521-275c40-33 108-24 108 34 0 49-75 103-210 183-80 47-247 72-323 10-66-54-95-101-82-218 12-106 41-136 91-224 55-96 145-209 240-278 32-23 68-33 107-33 86 2 108 61 107 158 0 55-15 82-44 82-55 1-25-116-79-110-132 15-229 223-291 334-48 86-31 226 81 218 122-9 217-92 295-156" id="B"/><path fill="#8b412b" d="M107-780c100 15 51 176 51 272 0 29 23 25 56 24 33-11 175 4 171-42 9-67 4-153 14-224 12-14 39-57 70-50 51 0 74 34 69 103L490-47c-6 28-25 57-57 56-118-5-54-182-54-299 0-34 3-75-15-85-65 6-127 12-191 19-52 29-23 162-29 239C135-7 87 19 22-30 10-48 7-67 13-88c-16-100 8-215 8-322 0-127-9-364 86-370" id="C"/><g id="c"><use transform="matrix(0.022222222222222223,0,0,0.022222222222222223,0,0)" xlink:href="#y"/><use transform="matrix(0.022222222222222223,0,0,0.022222222222222223,12.28888888888889,0)" xlink:href="#z"/><use transform="matrix(0.022222222222222223,0,0,0.022222222222222223,27.08888888888889,0)" xlink:href="#A"/><use transform="matrix(0.022222222222222223,0,0,0.022222222222222223,43.06666666666666,0)" xlink:href="#B"/><use transform="matrix(0.022222222222222223,0,0,0.022222222222222223,57.155555555555544,0)" xlink:href="#C"/></g><path fill="#8b412b" d="M19-91c0-222 71-428 58-668-3-62 121-44 170-33 118 27 229 50 293 128 44 53 63 97 63 217 0 165-189 328-383 400-36 13-62 45-108 45-66 0-93-23-93-89zm185-582c-30 151-43 322-58 489 5 39 27 28 60 14 129-54 276-147 276-304 0-155-106-203-278-199" id="D"/><path fill="#8b412b" d="M44-443c79-191 208-366 448-366 141 0 239 118 267 253 46 222-61 413-213 490-83 42-221 78-338 30-55-23-106-43-129-82-26-14-80-140-57-202 2-41 8-89 22-123zm103 115c1 136 75 191 208 191 130 0 180-50 241-135 38-53 55-111 55-169 0-109-73-236-179-227-143 12-260 151-311 271-9 24-14 47-14 69" id="E"/><path fill="#8b412b" d="M19-91c0-222 71-428 58-668-3-62 121-44 170-33 118 27 229 50 293 128 44 53 63 97 63 217 0 165-189 328-383 400-36 13-62 45-108 45-66 0-93-23-93-89zm185-582c-30 151-43 322-58 489 5 39 27 28 60 14 129-54 276-147 276-304 0-155-106-203-278-199" id="F"/><g id="d"><use transform="matrix(0.022222222222222223,0,0,0.022222222222222223,0,0)" xlink:href="#D"/><use transform="matrix(0.022222222222222223,0,0,0.022222222222222223,13.422222222222222,0)" xlink:href="#z"/><use transform="matrix(0.022222222222222223,0,0,0.022222222222222223,28.222222222222225,0)" xlink:href="#B"/><use transform="matrix(0.022222222222222223,0,0,0.022222222222222223,42.31111111111111,0)" xlink:href="#E"/><use transform="matrix(0.022222222222222223,0,0,0.022222222222222223,60.155555555555544,0)" xlink:href="#F"/><use transform="matrix(0.022222222222222223,0,0,0.022222222222222223,73.57777777777777,0)" xlink:href="#z"/></g><path fill="#8b412b" d="M635-31c28-53 7-115-31-143-7-19-67-63-88-82-39-36-80-78-117-115 1-16 41-65 118-148l-10 11c30-36 53-67 85-95 54-48 78-89 78-117s-20-70-52-70c-36 0-116 78-245 230-22 26-38 59-67 71-30 12-85-104-102-151-13-36-72-158-75-157-34-47-96-35-89 35 8 88 69 162 101 236 14 20 74 122 77 140-20 61-139 209-182 265-18 23-24 44-24 60C11-36 45 1 69 0c45-2 96-97 124-134 67-89 109-132 124-131 48 2 103 85 141 115 20 16 39 33 56 52 49 58 88 82 121 67" id="G"/><path fill="#8b412b" d="M106-737c41-53 131 12 108 86-42 139-71 285-71 455 0 88 72 66 143 48 49-12 128-35 183-63 38-19 36-69 44-119 17-114 31-247 31-354 0-57 26-85 79-85 37 0 55 27 55 81 0 190-34 397-59 573 4 31 20 93-13 105-8 10-30 7-65-8-16-20-33-38-51-54C397-48 305 0 205 0 79 0 5-43 13-176c13-196 50-391 93-561" id="H"/><g id="e"><use transform="matrix(0.022222222222222223,0,0,0.022222222222222223,0,0)" xlink:href="#z"/><use transform="matrix(0.022222222222222223,0,0,0.022222222222222223,14.8,0)" xlink:href="#G"/><use transform="matrix(0.022222222222222223,0,0,0.022222222222222223,29.822222222222223,0)" xlink:href="#z"/><use transform="matrix(0.022222222222222223,0,0,0.022222222222222223,44.62222222222222,0)" xlink:href="#B"/><use transform="matrix(0.022222222222222223,0,0,0.022222222222222223,58.711111111111116,0)" xlink:href="#H"/><use transform="matrix(0.022222222222222223,0,0,0.022222222222222223,74.33333333333333,0)" xlink:href="#A"/><use transform="matrix(0.022222222222222223,0,0,0.022222222222222223,90.3111111111111,0)" xlink:href="#z"/></g><path fill="#8b412b" d="M694-661c-2 64-88 115-111 165 1 17 42 36 59 47 42 29 76 115 53 188-30 95-82 137-179 194C386 10 245 0 121-52 96-78 5-94 12-147c-3-30 39-60 66-58 10-5 95 37 147 52 50 14 141 11 184-13 64-35 159-87 167-152 7-58-74-71-141-61-44 7-88 21-136 26-61 7-96-80-43-117 65-45 147-89 217-133 33-21 50-38 50-49 0-57-104-57-169-46-78 14-147 44-200 90-12 10-25 23-51 23-35 0-77-40-55-77 74-122 237-149 435-148 101 1 214 52 211 149" id="I"/><g id="f"><use transform="matrix(0.017777777777777774,0,0,0.017777777777777774,0,0)" xlink:href="#I"/><use transform="matrix(0.017777777777777774,0,0,0.017777777777777774,10.559999999999999,0)" xlink:href="#w"/></g><path fill="#8b412b" d="M507-712c85 21 58 156 75 252 15 28 37 66 16 97-49 73-23 203-39 323-4 28-48 49-75 23-22-21-25-21-31-66-9-66 6-122 8-189 2-76-65-30-115-24-69 8-187 40-227 40-73 0-140-72-111-150 27-73 71-119 103-192 19-43 54-103 78-153 18-39 24-47 54-51 29-4 54 45 50 73-11 77-60 137-90 200-39 83-63 123-63 125 3 35 44 12 70 11 65-16 127-28 196-43 38-8 57-22 57-42 2-69-19-156 5-210 7-17 22-24 39-24" id="J"/><use transform="matrix(0.017777777777777774,0,0,0.017777777777777774,0,0)" xlink:href="#J" id="g"/><path fill="#8b412b" d="M446-647c-55 21-194-32-192 48 0 5 4 10 12 17 183-10 340 22 397 147 20 45 32 92 32 143C695-124 489-8 314-8 239-8-7-101 9-170c5-22 37-66 73-57 67 17 142 79 229 79 123 0 252-74 252-179 0-168-253-109-411-109-51 0-69-18-70-69-5-24 57-168 69-232 14-20 42-49 87-44 109 13 208-3 316-6 39-1 82-12 119-18 27-4 50 56 50 80-37 81-169 68-282 77" id="K"/><g id="h"><use transform="matrix(0.017777777777777774,0,0,0.017777777777777774,0,0)" xlink:href="#K"/><use transform="matrix(0.017777777777777774,0,0,0.017777777777777774,11.18222222222222,0)" xlink:href="#w"/></g><path fill="#8b412b" d="M309-480c165-57 383-20 394 157 5 74-136 198-191 226-77 39-170 79-262 87-10 1-28-7-38-6C124-12 4-89 11-175c14-169 118-375 218-469 77-72 151-168 298-168 58-1 107 34 107 93 0 56-49 41-93 41-83 0-93 7-143 46-47 37-78 78-109 130-15 24-8 31 20 22zM150-192c-4 56 112 50 164 32 55-19 111-50 155-79 54-35 81-65 81-91 0-57-103-47-171-45-97 23-166 59-215 129-6 18-20 32-14 54" id="L"/><use transform="matrix(0.017777777777777774,0,0,0.017777777777777774,0,0)" xlink:href="#L" id="i"/><path fill="#8b412b" d="M256-763c83-26 205-28 305-38 32 3 85 13 99 50 8 20 15 36 15 51 0 46-102 188-138 246-77 125-156 252-227 388-25 47-52 68-73 68-47 0-76-38-73-87 2-41 48-87 67-131 43-99 271-398 250-415-5-36-58-26-99-20-103 14-237 19-287 83-61 50-126-81-62-130 43-33 140-57 223-65" id="M"/><g id="j"><use transform="matrix(0.01777777777777777,0,0,0.01777777777777777,0,0)" xlink:href="#M"/><use transform="matrix(0.01777777777777777,0,0,0.01777777777777777,6.311111111111108,0)" xlink:href="#w"/></g><path fill="#8b412b" d="M352-802c148-2 243 38 243 169 0 57-56 100-97 131-23 17-34 28-34 34-6 5 50 36 46 39 44 27 96 99 83 175-2 13-4 24-4 35C589-81 409-5 262-5c-73 0-124-9-151-28C-5-109-22-258 75-352c12-36 120-92 85-117-68-50-113-67-113-141 0-38 22-74 65-109 69-55 149-83 240-83zm129 146c-9-57-110-47-165-42-32 3-112 32-119 62-21 9-23 48-1 58 34 44 125 63 180 20 22-17 109-74 105-98zM129-193c0 38 66 66 101 63 97-9 229-35 243-126-8-65-80-122-140-138-72 11-82 24-143 93-41 47-61 83-61 108" id="N"/><use transform="matrix(0.01777777777777777,0,0,0.01777777777777777,0,0)" xlink:href="#N" id="k"/><path fill="#8b412b" d="M238-772c95-37 360-101 350 62-21 51-20 120-36 173-42 138-53 313-53 481 0 50-81 63-119 34-46-74 13-195-9-290-67 18-157 40-230 12C51-334-11-406 4-542c6-50 23-95 54-121 41-56 113-83 180-109zm-39 356c170 32 257-85 257-236 0-47-79-41-122-29-75 21-145 51-195 99-34 32-30 107 6 133 16 11 30 28 54 33" id="O"/><g id="l"><use transform="matrix(0.017777777777777774,0,0,0.017777777777777774,0,0)" xlink:href="#O"/><use transform="matrix(0.017777777777777774,0,0,0.017777777777777774,9.564444444444442,0)" xlink:href="#w"/></g><path fill="#8b412b" d="M760-689c54 66 114 194 89 305-22 96-60 182-130 233C644-96 571-43 466-22 362-1 196 2 130-53 83-92 15-170 14-243c-3-132 48-208 100-291 87-138 222-257 433-251 99 3 168 41 213 96zM147-248c0 125 211 119 317 79 118-45 205-117 253-230 30-71-7-171-46-201-79-58-137-52-237-20-103 33-177 98-233 203-36 66-54 122-54 169" id="P"/><g id="m"><use transform="matrix(0.017777777777777774,0,0,0.017777777777777774,0,0)" xlink:href="#v"/><use transform="matrix(0.017777777777777774,0,0,0.017777777777777774,5.03111111111111,0)" xlink:href="#P"/></g><g id="n"><use transform="matrix(0.017777777777777774,0,0,0.017777777777777774,0,0)" xlink:href="#v"/><use transform="matrix(0.017777777777777774,0,0,0.017777777777777774,5.03111111111111,0)" xlink:href="#v"/><use transform="matrix(0.017777777777777774,0,0,0.017777777777777774,7.679999999999997,0)" xlink:href="#w"/></g><g id="o"><use transform="matrix(0.017777777777777774,0,0,0.017777777777777774,0,0)" xlink:href="#v"/><use transform="matrix(0.017777777777777774,0,0,0.017777777777777774,5.03111111111111,0)" xlink:href="#x"/></g><g id="p"><use transform="matrix(0.01777777777777777,0,0,0.01777777777777777,0,0)" xlink:href="#v"/><use transform="matrix(0.01777777777777777,0,0,0.01777777777777777,5.031111111111109,0)" xlink:href="#I"/><use transform="matrix(0.01777777777777777,0,0,0.01777777777777777,15.591111111111106,0)" xlink:href="#w"/></g><g id="q"><use transform="matrix(0.01777777777777777,0,0,0.01777777777777777,0,0)" xlink:href="#v"/><use transform="matrix(0.01777777777777777,0,0,0.01777777777777777,5.031111111111109,0)" xlink:href="#J"/></g><g id="r"><use transform="matrix(0.017777777777777774,0,0,0.017777777777777774,0,0)" xlink:href="#v"/><use transform="matrix(0.017777777777777774,0,0,0.017777777777777774,5.03111111111111,0)" xlink:href="#K"/><use transform="matrix(0.017777777777777774,0,0,0.017777777777777774,16.21333333333333,0)" xlink:href="#w"/></g><g id="s"><use transform="matrix(0.017777777777777774,0,0,0.017777777777777774,0,0)" xlink:href="#v"/><use transform="matrix(0.017777777777777774,0,0,0.017777777777777774,5.03111111111111,0)" xlink:href="#L"/></g><g id="t"><use transform="matrix(0.017777777777777774,0,0,0.017777777777777774,0,0)" xlink:href="#v"/><use transform="matrix(0.017777777777777774,0,0,0.017777777777777774,5.03111111111111,0)" xlink:href="#M"/><use transform="matrix(0.017777777777777774,0,0,0.017777777777777774,11.342222222222217,0)" xlink:href="#w"/></g><g id="u"><use transform="matrix(0.017777777777777774,0,0,0.017777777777777774,0,0)" xlink:href="#v"/><use transform="matrix(0.017777777777777774,0,0,0.017777777777777774,5.03111111111111,0)" xlink:href="#N"/></g></defs></g></svg>