<svg xmlns="http://www.w3.org/2000/svg" xmlns:xlink="http://www.w3.org/1999/xlink" xmlns:lucid="lucid" width="1011" height="682"><g transform="translate(-14 -2257)" lucid:page-tab-id="0_0"><path d="M268.32 2340H861.5M268.34 2340h-1.02" stroke="#e45e2d" stroke-width="2" fill="none"/><path d="M876.76 2340l-14.26 4.64v-9.28z" stroke="#e45e2d" stroke-width="2" fill="#e45e2d"/><path d="M267.32 2386a6 6 0 0 1 6-6H299a6 6 0 0 1 6 6v28a6 6 0 0 1-6 6h-25.68a6 6 0 0 1-6-6z" stroke="#ef9c49" stroke-width="2" fill="#fffada"/><use xlink:href="#a" transform="matrix(1,0,0,1,279.3170731707317,2392) translate(-9.714444444444435 12.44444444444444)"/><path d="M50 2386a6 6 0 0 1 6-6h225.07a6 6 0 0 1 6 6v28a6 6 0 0 1-6 6H56a6 6 0 0 1-6-6z" stroke="#000" stroke-opacity="0" fill="#fff" fill-opacity="0"/><use xlink:href="#b" transform="matrix(1,0,0,1,55,2385) translate(85.01222222222222 19.944444444444443)"/><path d="M305 2386a6 6 0 0 1 6-6h25.7a6 6 0 0 1 6 6v28a6 6 0 0 1-6 6H311a6 6 0 0 1-6-6zM342.7 2386a6 6 0 0 1 6-6h25.67a6 6 0 0 1 6 6v28a6 6 0 0 1-6 6H348.7a6 6 0 0 1-6-6zM380.37 2386a6 6 0 0 1 6-6h25.7a6 6 0 0 1 6 6v28a6 6 0 0 1-6 6h-25.7a6 6 0 0 1-6-6z" stroke="#ef9c49" stroke-width="2" fill="#fffada"/><path d="M418.06 2386a6 6 0 0 1 6-6h25.68a6 6 0 0 1 6 6v28a6 6 0 0 1-6 6h-25.68a6 6 0 0 1-6-6zM455.74 2386a6 6 0 0 1 6-6h25.7a6 6 0 0 1 6 6v28a6 6 0 0 1-6 6h-25.7a6 6 0 0 1-6-6z" stroke="#ef9c49" stroke-width="2" fill="#fffada"/><path d="M493.43 2386a6 6 0 0 1 6-6h25.68a6 6 0 0 1 6 6v28a6 6 0 0 1-6 6h-25.67a6 6 0 0 1-6-6z" stroke="#ef9c49" stroke-width="2" fill="#fffada"/><path d="M531.1 2386a6 6 0 0 1 6-6h25.7a6 6 0 0 1 6 6v28a6 6 0 0 1-6 6h-25.7a6 6 0 0 1-6-6z" stroke="#ef9c49" stroke-width="2" fill="#fffada"/><path d="M568.8 2386a6 6 0 0 1 6-6h25.68a6 6 0 0 1 6 6v28a6 6 0 0 1-6 6H574.8a6 6 0 0 1-6-6zM606.48 2386a6 6 0 0 1 6-6h25.68a6 6 0 0 1 6 6v28a6 6 0 0 1-6 6H612.5a6 6 0 0 1-6-6z" stroke="#ef9c49" stroke-width="2" fill="#fffada"/><path d="M50 2426a6 6 0 0 1 6-6h225.07a6 6 0 0 1 6 6v28a6 6 0 0 1-6 6H56a6 6 0 0 1-6-6z" stroke="#000" stroke-opacity="0" fill="#fff" fill-opacity="0"/><use xlink:href="#c" transform="matrix(1,0,0,1,55,2425) translate(82.22777777777779 19.944444444444443)"/><path d="M305 2426a6 6 0 0 1 6-6h25.7a6 6 0 0 1 6 6v28a6 6 0 0 1-6 6H311a6 6 0 0 1-6-6z" stroke="#ef9c49" stroke-width="2" fill="#fffada"/><use xlink:href="#a" transform="matrix(1,0,0,1,317.00188002907777,2432) translate(-9.714444444444435 12.44444444444444)"/><path d="M342.7 2426a6 6 0 0 1 6-6h25.67a6 6 0 0 1 6 6v28a6 6 0 0 1-6 6H348.7a6 6 0 0 1-6-6zM380.37 2426a6 6 0 0 1 6-6h25.7a6 6 0 0 1 6 6v28a6 6 0 0 1-6 6h-25.7a6 6 0 0 1-6-6z" stroke="#ef9c49" stroke-width="2" fill="#fffada"/><path d="M418.06 2426a6 6 0 0 1 6-6h25.68a6 6 0 0 1 6 6v28a6 6 0 0 1-6 6h-25.68a6 6 0 0 1-6-6zM455.74 2426a6 6 0 0 1 6-6h25.7a6 6 0 0 1 6 6v28a6 6 0 0 1-6 6h-25.7a6 6 0 0 1-6-6z" stroke="#ef9c49" stroke-width="2" fill="#fffada"/><path d="M493.43 2426a6 6 0 0 1 6-6h25.68a6 6 0 0 1 6 6v28a6 6 0 0 1-6 6h-25.67a6 6 0 0 1-6-6z" stroke="#ef9c49" stroke-width="2" fill="#fffada"/><path d="M531.1 2426a6 6 0 0 1 6-6h25.7a6 6 0 0 1 6 6v28a6 6 0 0 1-6 6h-25.7a6 6 0 0 1-6-6z" stroke="#ef9c49" stroke-width="2" fill="#fffada"/><path d="M568.8 2426a6 6 0 0 1 6-6h25.68a6 6 0 0 1 6 6v28a6 6 0 0 1-6 6H574.8a6 6 0 0 1-6-6zM606.48 2426a6 6 0 0 1 6-6h25.68a6 6 0 0 1 6 6v28a6 6 0 0 1-6 6H612.5a6 6 0 0 1-6-6z" stroke="#ef9c49" stroke-width="2" fill="#fffada"/><path d="M50 2466a6 6 0 0 1 6-6h225.07a6 6 0 0 1 6 6v28a6 6 0 0 1-6 6H56a6 6 0 0 1-6-6z" stroke="#000" stroke-opacity="0" fill="#fff" fill-opacity="0"/><use xlink:href="#d" transform="matrix(1,0,0,1,54.99999999999997,2465) translate(81.66 19.944444444444443)"/><path d="M342.7 2466a6 6 0 0 1 6-6h25.67a6 6 0 0 1 6 6v28a6 6 0 0 1-6 6H348.7a6 6 0 0 1-6-6z" stroke="#ef9c49" stroke-width="2" fill="#fffada"/><use xlink:href="#a" transform="matrix(1,0,0,1,354.68668688742383,2472) translate(-9.714444444444435 12.44444444444444)"/><path d="M380.37 2466a6 6 0 0 1 6-6h25.7a6 6 0 0 1 6 6v28a6 6 0 0 1-6 6h-25.7a6 6 0 0 1-6-6z" stroke="#ef9c49" stroke-width="2" fill="#fffada"/><path d="M418.06 2466a6 6 0 0 1 6-6h25.68a6 6 0 0 1 6 6v28a6 6 0 0 1-6 6h-25.68a6 6 0 0 1-6-6zM455.74 2466a6 6 0 0 1 6-6h25.7a6 6 0 0 1 6 6v28a6 6 0 0 1-6 6h-25.7a6 6 0 0 1-6-6z" stroke="#ef9c49" stroke-width="2" fill="#fffada"/><path d="M493.43 2466a6 6 0 0 1 6-6h25.68a6 6 0 0 1 6 6v28a6 6 0 0 1-6 6h-25.67a6 6 0 0 1-6-6z" stroke="#ef9c49" stroke-width="2" fill="#fffada"/><path d="M531.1 2466a6 6 0 0 1 6-6h25.7a6 6 0 0 1 6 6v28a6 6 0 0 1-6 6h-25.7a6 6 0 0 1-6-6z" stroke="#ef9c49" stroke-width="2" fill="#fffada"/><path d="M568.8 2466a6 6 0 0 1 6-6h25.68a6 6 0 0 1 6 6v28a6 6 0 0 1-6 6H574.8a6 6 0 0 1-6-6zM606.48 2466a6 6 0 0 1 6-6h25.68a6 6 0 0 1 6 6v28a6 6 0 0 1-6 6H612.5a6 6 0 0 1-6-6z" stroke="#ef9c49" stroke-width="2" fill="#fffada"/><path d="M50 2506a6 6 0 0 1 6-6h225.07a6 6 0 0 1 6 6v28a6 6 0 0 1-6 6H56a6 6 0 0 1-6-6z" stroke="#000" stroke-opacity="0" fill="#fff" fill-opacity="0"/><use xlink:href="#e" transform="matrix(1,0,0,1,54.99999999999997,2505) translate(82.39111111111112 19.944444444444443)"/><path d="M380.37 2506a6 6 0 0 1 6-6h25.7a6 6 0 0 1 6 6v28a6 6 0 0 1-6 6h-25.7a6 6 0 0 1-6-6z" stroke="#ef9c49" stroke-width="2" fill="#fffada"/><use xlink:href="#a" transform="matrix(1,0,0,1,392.3714937457698,2512) translate(-9.714444444444435 12.44444444444444)"/><path d="M418.06 2506a6 6 0 0 1 6-6h25.68a6 6 0 0 1 6 6v28a6 6 0 0 1-6 6h-25.68a6 6 0 0 1-6-6zM455.74 2506a6 6 0 0 1 6-6h25.7a6 6 0 0 1 6 6v28a6 6 0 0 1-6 6h-25.7a6 6 0 0 1-6-6z" stroke="#ef9c49" stroke-width="2" fill="#fffada"/><path d="M493.43 2506a6 6 0 0 1 6-6h25.68a6 6 0 0 1 6 6v28a6 6 0 0 1-6 6h-25.67a6 6 0 0 1-6-6z" stroke="#ef9c49" stroke-width="2" fill="#fffada"/><path d="M531.1 2506a6 6 0 0 1 6-6h25.7a6 6 0 0 1 6 6v28a6 6 0 0 1-6 6h-25.7a6 6 0 0 1-6-6z" stroke="#ef9c49" stroke-width="2" fill="#fffada"/><path d="M568.8 2506a6 6 0 0 1 6-6h25.68a6 6 0 0 1 6 6v28a6 6 0 0 1-6 6H574.8a6 6 0 0 1-6-6zM606.48 2506a6 6 0 0 1 6-6h25.68a6 6 0 0 1 6 6v28a6 6 0 0 1-6 6H612.5a6 6 0 0 1-6-6z" stroke="#ef9c49" stroke-width="2" fill="#fffada"/><path d="M50 2546a6 6 0 0 1 6-6h225.07a6 6 0 0 1 6 6v28a6 6 0 0 1-6 6H56a6 6 0 0 1-6-6z" stroke="#000" stroke-opacity="0" fill="#fff" fill-opacity="0"/><use xlink:href="#f" transform="matrix(1,0,0,1,55.00000000000003,2545) translate(78.29222222222222 19.944444444444443)"/><path d="M418.06 2546a6 6 0 0 1 6-6h25.68a6 6 0 0 1 6 6v28a6 6 0 0 1-6 6h-25.68a6 6 0 0 1-6-6z" stroke="#ef9c49" stroke-width="2" fill="#fffada"/><use xlink:href="#a" transform="matrix(1,0,0,1,430.05630060411596,2552) translate(-9.714444444444435 12.44444444444444)"/><path d="M455.74 2546a6 6 0 0 1 6-6h25.7a6 6 0 0 1 6 6v28a6 6 0 0 1-6 6h-25.7a6 6 0 0 1-6-6z" stroke="#ef9c49" stroke-width="2" fill="#fffada"/><path d="M493.43 2546a6 6 0 0 1 6-6h25.68a6 6 0 0 1 6 6v28a6 6 0 0 1-6 6h-25.67a6 6 0 0 1-6-6z" stroke="#ef9c49" stroke-width="2" fill="#fffada"/><path d="M531.1 2546a6 6 0 0 1 6-6h25.7a6 6 0 0 1 6 6v28a6 6 0 0 1-6 6h-25.7a6 6 0 0 1-6-6z" stroke="#ef9c49" stroke-width="2" fill="#fffada"/><path d="M568.8 2546a6 6 0 0 1 6-6h25.68a6 6 0 0 1 6 6v28a6 6 0 0 1-6 6H574.8a6 6 0 0 1-6-6zM606.48 2546a6 6 0 0 1 6-6h25.68a6 6 0 0 1 6 6v28a6 6 0 0 1-6 6H612.5a6 6 0 0 1-6-6z" stroke="#ef9c49" stroke-width="2" fill="#fffada"/><path d="M50 2586a6 6 0 0 1 6-6h225.07a6 6 0 0 1 6 6v28a6 6 0 0 1-6 6H56a6 6 0 0 1-6-6z" stroke="#000" stroke-opacity="0" fill="#fff" fill-opacity="0"/><use xlink:href="#g" transform="matrix(1,0,0,1,55.00000000000003,2585) translate(75.50777777777779 19.944444444444443)"/><path d="M455.74 2586a6 6 0 0 1 6-6h25.7a6 6 0 0 1 6 6v28a6 6 0 0 1-6 6h-25.7a6 6 0 0 1-6-6z" stroke="#ef9c49" stroke-width="2" fill="#fffada"/><use xlink:href="#a" transform="matrix(1,0,0,1,467.7411074624621,2592) translate(-9.714444444444435 12.44444444444444)"/><path d="M493.43 2586a6 6 0 0 1 6-6h25.68a6 6 0 0 1 6 6v28a6 6 0 0 1-6 6h-25.67a6 6 0 0 1-6-6z" stroke="#ef9c49" stroke-width="2" fill="#fffada"/><path d="M531.1 2586a6 6 0 0 1 6-6h25.7a6 6 0 0 1 6 6v28a6 6 0 0 1-6 6h-25.7a6 6 0 0 1-6-6z" stroke="#ef9c49" stroke-width="2" fill="#fffada"/><path d="M568.8 2586a6 6 0 0 1 6-6h25.68a6 6 0 0 1 6 6v28a6 6 0 0 1-6 6H574.8a6 6 0 0 1-6-6zM606.48 2586a6 6 0 0 1 6-6h25.68a6 6 0 0 1 6 6v28a6 6 0 0 1-6 6H612.5a6 6 0 0 1-6-6z" stroke="#ef9c49" stroke-width="2" fill="#fffada"/><path d="M50 2626a6 6 0 0 1 6-6h225.07a6 6 0 0 1 6 6v28a6 6 0 0 1-6 6H56a6 6 0 0 1-6-6z" stroke="#000" stroke-opacity="0" fill="#fff" fill-opacity="0"/><use xlink:href="#h" transform="matrix(1,0,0,1,54.99999999999997,2625) translate(74.94 19.944444444444443)"/><path d="M493.43 2626a6 6 0 0 1 6-6h25.68a6 6 0 0 1 6 6v28a6 6 0 0 1-6 6h-25.67a6 6 0 0 1-6-6z" stroke="#ef9c49" stroke-width="2" fill="#fffada"/><use xlink:href="#a" transform="matrix(1,0,0,1,505.42591432080826,2632) translate(-9.714444444444435 12.44444444444444)"/><path d="M531.1 2626a6 6 0 0 1 6-6h25.7a6 6 0 0 1 6 6v28a6 6 0 0 1-6 6h-25.7a6 6 0 0 1-6-6z" stroke="#ef9c49" stroke-width="2" fill="#fffada"/><path d="M568.8 2626a6 6 0 0 1 6-6h25.68a6 6 0 0 1 6 6v28a6 6 0 0 1-6 6H574.8a6 6 0 0 1-6-6zM606.48 2626a6 6 0 0 1 6-6h25.68a6 6 0 0 1 6 6v28a6 6 0 0 1-6 6H612.5a6 6 0 0 1-6-6z" stroke="#ef9c49" stroke-width="2" fill="#fffada"/><path d="M50 2666a6 6 0 0 1 6-6h225.07a6 6 0 0 1 6 6v28a6 6 0 0 1-6 6H56a6 6 0 0 1-6-6z" stroke="#000" stroke-opacity="0" fill="#fff" fill-opacity="0"/><use xlink:href="#i" transform="matrix(1,0,0,1,54.99999999999997,2665) translate(75.67111111111112 19.944444444444443)"/><path d="M531.1 2666a6 6 0 0 1 6-6h25.7a6 6 0 0 1 6 6v28a6 6 0 0 1-6 6h-25.7a6 6 0 0 1-6-6z" stroke="#ef9c49" stroke-width="2" fill="#fffada"/><use xlink:href="#a" transform="matrix(1,0,0,1,543.1107211791542,2672) translate(-9.714444444444435 12.44444444444444)"/><path d="M568.8 2666a6 6 0 0 1 6-6h25.68a6 6 0 0 1 6 6v28a6 6 0 0 1-6 6H574.8a6 6 0 0 1-6-6zM606.48 2666a6 6 0 0 1 6-6h25.68a6 6 0 0 1 6 6v28a6 6 0 0 1-6 6H612.5a6 6 0 0 1-6-6z" stroke="#ef9c49" stroke-width="2" fill="#fffada"/><path d="M50 2706a6 6 0 0 1 6-6h225.07a6 6 0 0 1 6 6v28a6 6 0 0 1-6 6H56a6 6 0 0 1-6-6z" stroke="#000" stroke-opacity="0" fill="#fff" fill-opacity="0"/><use xlink:href="#j" transform="matrix(1,0,0,1,54.999999999999744,2705) translate(72.43555555555557 19.944444444444443)"/><path d="M568.8 2706a6 6 0 0 1 6-6h25.68a6 6 0 0 1 6 6v28a6 6 0 0 1-6 6H574.8a6 6 0 0 1-6-6z" stroke="#ef9c49" stroke-width="2" fill="#fffada"/><use xlink:href="#a" transform="matrix(1,0,0,1,580.7955280375003,2712) translate(-9.714444444444435 12.44444444444444)"/><path d="M606.48 2706a6 6 0 0 1 6-6h25.68a6 6 0 0 1 6 6v28a6 6 0 0 1-6 6H612.5a6 6 0 0 1-6-6z" stroke="#ef9c49" stroke-width="2" fill="#fffada"/><path d="M50 2746a6 6 0 0 1 6-6h225.07a6 6 0 0 1 6 6v28a6 6 0 0 1-6 6H56a6 6 0 0 1-6-6z" stroke="#000" stroke-opacity="0" fill="#fff" fill-opacity="0"/><use xlink:href="#k" transform="matrix(1,0,0,1,54.999999999999744,2745) translate(69.6511111111111 19.944444444444443)"/><path d="M606.48 2746a6 6 0 0 1 6-6h25.68a6 6 0 0 1 6 6v28a6 6 0 0 1-6 6H612.5a6 6 0 0 1-6-6z" stroke="#ef9c49" stroke-width="2" fill="#fffada"/><use xlink:href="#a" transform="matrix(1,0,0,1,618.4803348958463,2752) translate(-9.714444444444435 12.44444444444444)"/><path d="M50 2786a6 6 0 0 1 6-6h225.07a6 6 0 0 1 6 6v28a6 6 0 0 1-6 6H56a6 6 0 0 1-6-6z" stroke="#000" stroke-opacity="0" fill="#fff" fill-opacity="0"/><use xlink:href="#l" transform="matrix(1,0,0,1,54.999999999999744,2785) translate(69.08333333333334 19.944444444444443)"/><path d="M50 2826a6 6 0 0 1 6-6h225.07a6 6 0 0 1 6 6v28a6 6 0 0 1-6 6H56a6 6 0 0 1-6-6z" stroke="#000" stroke-opacity="0" fill="#fff" fill-opacity="0"/><use xlink:href="#m" transform="matrix(1,0,0,1,54.999999999999744,2825) translate(69.81444444444445 19.944444444444443)"/><path d="M644.16 2386a6 6 0 0 1 6-6h25.7a6 6 0 0 1 6 6v28a6 6 0 0 1-6 6h-25.7a6 6 0 0 1-6-6zM644.16 2426a6 6 0 0 1 6-6h25.7a6 6 0 0 1 6 6v28a6 6 0 0 1-6 6h-25.7a6 6 0 0 1-6-6zM644.16 2466a6 6 0 0 1 6-6h25.7a6 6 0 0 1 6 6v28a6 6 0 0 1-6 6h-25.7a6 6 0 0 1-6-6zM644.16 2506a6 6 0 0 1 6-6h25.7a6 6 0 0 1 6 6v28a6 6 0 0 1-6 6h-25.7a6 6 0 0 1-6-6zM644.16 2546a6 6 0 0 1 6-6h25.7a6 6 0 0 1 6 6v28a6 6 0 0 1-6 6h-25.7a6 6 0 0 1-6-6zM644.16 2586a6 6 0 0 1 6-6h25.7a6 6 0 0 1 6 6v28a6 6 0 0 1-6 6h-25.7a6 6 0 0 1-6-6zM644.16 2626a6 6 0 0 1 6-6h25.7a6 6 0 0 1 6 6v28a6 6 0 0 1-6 6h-25.7a6 6 0 0 1-6-6zM644.16 2666a6 6 0 0 1 6-6h25.7a6 6 0 0 1 6 6v28a6 6 0 0 1-6 6h-25.7a6 6 0 0 1-6-6zM644.16 2706a6 6 0 0 1 6-6h25.7a6 6 0 0 1 6 6v28a6 6 0 0 1-6 6h-25.7a6 6 0 0 1-6-6zM644.16 2746a6 6 0 0 1 6-6h25.7a6 6 0 0 1 6 6v28a6 6 0 0 1-6 6h-25.7a6 6 0 0 1-6-6zM644.16 2786a6 6 0 0 1 6-6h25.7a6 6 0 0 1 6 6v28a6 6 0 0 1-6 6h-25.7a6 6 0 0 1-6-6z" stroke="#ef9c49" stroke-width="2" fill="#fffada"/><use xlink:href="#a" transform="matrix(1,0,0,1,656.1651417541924,2792) translate(-9.714444444444435 12.44444444444444)"/><path d="M682.32 2386a6 6 0 0 1 6-6H714a6 6 0 0 1 6 6v28a6 6 0 0 1-6 6h-25.68a6 6 0 0 1-6-6zM682.32 2426a6 6 0 0 1 6-6H714a6 6 0 0 1 6 6v28a6 6 0 0 1-6 6h-25.68a6 6 0 0 1-6-6zM682.32 2466a6 6 0 0 1 6-6H714a6 6 0 0 1 6 6v28a6 6 0 0 1-6 6h-25.68a6 6 0 0 1-6-6zM682.32 2506a6 6 0 0 1 6-6H714a6 6 0 0 1 6 6v28a6 6 0 0 1-6 6h-25.68a6 6 0 0 1-6-6zM682.32 2546a6 6 0 0 1 6-6H714a6 6 0 0 1 6 6v28a6 6 0 0 1-6 6h-25.68a6 6 0 0 1-6-6zM682.32 2586a6 6 0 0 1 6-6H714a6 6 0 0 1 6 6v28a6 6 0 0 1-6 6h-25.68a6 6 0 0 1-6-6zM682.32 2626a6 6 0 0 1 6-6H714a6 6 0 0 1 6 6v28a6 6 0 0 1-6 6h-25.68a6 6 0 0 1-6-6zM682.32 2666a6 6 0 0 1 6-6H714a6 6 0 0 1 6 6v28a6 6 0 0 1-6 6h-25.68a6 6 0 0 1-6-6zM682.32 2706a6 6 0 0 1 6-6H714a6 6 0 0 1 6 6v28a6 6 0 0 1-6 6h-25.68a6 6 0 0 1-6-6zM682.32 2746a6 6 0 0 1 6-6H714a6 6 0 0 1 6 6v28a6 6 0 0 1-6 6h-25.68a6 6 0 0 1-6-6zM682.32 2786a6 6 0 0 1 6-6H714a6 6 0 0 1 6 6v28a6 6 0 0 1-6 6h-25.68a6 6 0 0 1-6-6zM682.32 2826a6 6 0 0 1 6-6H714a6 6 0 0 1 6 6v28a6 6 0 0 1-6 6h-25.68a6 6 0 0 1-6-6z" stroke="#ef9c49" stroke-width="2" fill="#fffada"/><use xlink:href="#a" transform="matrix(1,0,0,1,694.3151931416539,2832) translate(-9.714444444444435 12.44444444444444)"/><path d="M720.47 2386a6 6 0 0 1 6-6h25.68a6 6 0 0 1 6 6v28a6 6 0 0 1-6 6h-25.68a6 6 0 0 1-6-6zM720.47 2426a6 6 0 0 1 6-6h25.68a6 6 0 0 1 6 6v28a6 6 0 0 1-6 6h-25.68a6 6 0 0 1-6-6zM720.47 2466a6 6 0 0 1 6-6h25.68a6 6 0 0 1 6 6v28a6 6 0 0 1-6 6h-25.68a6 6 0 0 1-6-6zM720.47 2506a6 6 0 0 1 6-6h25.68a6 6 0 0 1 6 6v28a6 6 0 0 1-6 6h-25.68a6 6 0 0 1-6-6zM720.47 2546a6 6 0 0 1 6-6h25.68a6 6 0 0 1 6 6v28a6 6 0 0 1-6 6h-25.68a6 6 0 0 1-6-6zM720.47 2586a6 6 0 0 1 6-6h25.68a6 6 0 0 1 6 6v28a6 6 0 0 1-6 6h-25.68a6 6 0 0 1-6-6zM720.47 2626a6 6 0 0 1 6-6h25.68a6 6 0 0 1 6 6v28a6 6 0 0 1-6 6h-25.68a6 6 0 0 1-6-6zM720.47 2666a6 6 0 0 1 6-6h25.68a6 6 0 0 1 6 6v28a6 6 0 0 1-6 6h-25.68a6 6 0 0 1-6-6zM720.47 2706a6 6 0 0 1 6-6h25.68a6 6 0 0 1 6 6v28a6 6 0 0 1-6 6h-25.68a6 6 0 0 1-6-6zM720.47 2746a6 6 0 0 1 6-6h25.68a6 6 0 0 1 6 6v28a6 6 0 0 1-6 6h-25.68a6 6 0 0 1-6-6zM720.47 2786a6 6 0 0 1 6-6h25.68a6 6 0 0 1 6 6v28a6 6 0 0 1-6 6h-25.68a6 6 0 0 1-6-6zM720.47 2826a6 6 0 0 1 6-6h25.68a6 6 0 0 1 6 6v28a6 6 0 0 1-6 6h-25.68a6 6 0 0 1-6-6zM758.15 2386a6 6 0 0 1 6-6h25.7a6 6 0 0 1 6 6v28a6 6 0 0 1-6 6h-25.7a6 6 0 0 1-6-6zM758.15 2426a6 6 0 0 1 6-6h25.7a6 6 0 0 1 6 6v28a6 6 0 0 1-6 6h-25.7a6 6 0 0 1-6-6zM758.15 2466a6 6 0 0 1 6-6h25.7a6 6 0 0 1 6 6v28a6 6 0 0 1-6 6h-25.7a6 6 0 0 1-6-6zM758.15 2506a6 6 0 0 1 6-6h25.7a6 6 0 0 1 6 6v28a6 6 0 0 1-6 6h-25.7a6 6 0 0 1-6-6zM758.15 2546a6 6 0 0 1 6-6h25.7a6 6 0 0 1 6 6v28a6 6 0 0 1-6 6h-25.7a6 6 0 0 1-6-6zM758.15 2586a6 6 0 0 1 6-6h25.7a6 6 0 0 1 6 6v28a6 6 0 0 1-6 6h-25.7a6 6 0 0 1-6-6zM758.15 2626a6 6 0 0 1 6-6h25.7a6 6 0 0 1 6 6v28a6 6 0 0 1-6 6h-25.7a6 6 0 0 1-6-6zM758.15 2666a6 6 0 0 1 6-6h25.7a6 6 0 0 1 6 6v28a6 6 0 0 1-6 6h-25.7a6 6 0 0 1-6-6zM758.15 2706a6 6 0 0 1 6-6h25.7a6 6 0 0 1 6 6v28a6 6 0 0 1-6 6h-25.7a6 6 0 0 1-6-6zM758.15 2746a6 6 0 0 1 6-6h25.7a6 6 0 0 1 6 6v28a6 6 0 0 1-6 6h-25.7a6 6 0 0 1-6-6zM758.15 2786a6 6 0 0 1 6-6h25.7a6 6 0 0 1 6 6v28a6 6 0 0 1-6 6h-25.7a6 6 0 0 1-6-6zM758.15 2826a6 6 0 0 1 6-6h25.7a6 6 0 0 1 6 6v28a6 6 0 0 1-6 6h-25.7a6 6 0 0 1-6-6z" stroke="#ef9c49" stroke-width="2" fill="#fffada"/><path d="M795.84 2386a6 6 0 0 1 6-6h25.68a6 6 0 0 1 6 6v28a6 6 0 0 1-6 6h-25.68a6 6 0 0 1-6-6zM795.84 2426a6 6 0 0 1 6-6h25.68a6 6 0 0 1 6 6v28a6 6 0 0 1-6 6h-25.68a6 6 0 0 1-6-6zM795.84 2466a6 6 0 0 1 6-6h25.68a6 6 0 0 1 6 6v28a6 6 0 0 1-6 6h-25.68a6 6 0 0 1-6-6zM795.84 2506a6 6 0 0 1 6-6h25.68a6 6 0 0 1 6 6v28a6 6 0 0 1-6 6h-25.68a6 6 0 0 1-6-6zM795.84 2546a6 6 0 0 1 6-6h25.68a6 6 0 0 1 6 6v28a6 6 0 0 1-6 6h-25.68a6 6 0 0 1-6-6zM795.84 2586a6 6 0 0 1 6-6h25.68a6 6 0 0 1 6 6v28a6 6 0 0 1-6 6h-25.68a6 6 0 0 1-6-6zM795.84 2626a6 6 0 0 1 6-6h25.68a6 6 0 0 1 6 6v28a6 6 0 0 1-6 6h-25.68a6 6 0 0 1-6-6zM795.84 2666a6 6 0 0 1 6-6h25.68a6 6 0 0 1 6 6v28a6 6 0 0 1-6 6h-25.68a6 6 0 0 1-6-6zM795.84 2706a6 6 0 0 1 6-6h25.68a6 6 0 0 1 6 6v28a6 6 0 0 1-6 6h-25.68a6 6 0 0 1-6-6zM795.84 2746a6 6 0 0 1 6-6h25.68a6 6 0 0 1 6 6v28a6 6 0 0 1-6 6h-25.68a6 6 0 0 1-6-6zM795.84 2786a6 6 0 0 1 6-6h25.68a6 6 0 0 1 6 6v28a6 6 0 0 1-6 6h-25.68a6 6 0 0 1-6-6zM795.84 2826a6 6 0 0 1 6-6h25.68a6 6 0 0 1 6 6v28a6 6 0 0 1-6 6h-25.68a6 6 0 0 1-6-6zM833.52 2386a6 6 0 0 1 6-6h25.68a6 6 0 0 1 6 6v28a6 6 0 0 1-6 6h-25.68a6 6 0 0 1-6-6zM833.52 2426a6 6 0 0 1 6-6h25.68a6 6 0 0 1 6 6v28a6 6 0 0 1-6 6h-25.68a6 6 0 0 1-6-6zM833.52 2466a6 6 0 0 1 6-6h25.68a6 6 0 0 1 6 6v28a6 6 0 0 1-6 6h-25.68a6 6 0 0 1-6-6zM833.52 2506a6 6 0 0 1 6-6h25.68a6 6 0 0 1 6 6v28a6 6 0 0 1-6 6h-25.68a6 6 0 0 1-6-6zM833.52 2546a6 6 0 0 1 6-6h25.68a6 6 0 0 1 6 6v28a6 6 0 0 1-6 6h-25.68a6 6 0 0 1-6-6zM833.52 2586a6 6 0 0 1 6-6h25.68a6 6 0 0 1 6 6v28a6 6 0 0 1-6 6h-25.68a6 6 0 0 1-6-6zM833.52 2626a6 6 0 0 1 6-6h25.68a6 6 0 0 1 6 6v28a6 6 0 0 1-6 6h-25.68a6 6 0 0 1-6-6zM833.52 2666a6 6 0 0 1 6-6h25.68a6 6 0 0 1 6 6v28a6 6 0 0 1-6 6h-25.68a6 6 0 0 1-6-6zM833.52 2706a6 6 0 0 1 6-6h25.68a6 6 0 0 1 6 6v28a6 6 0 0 1-6 6h-25.68a6 6 0 0 1-6-6zM833.52 2746a6 6 0 0 1 6-6h25.68a6 6 0 0 1 6 6v28a6 6 0 0 1-6 6h-25.68a6 6 0 0 1-6-6zM833.52 2786a6 6 0 0 1 6-6h25.68a6 6 0 0 1 6 6v28a6 6 0 0 1-6 6h-25.68a6 6 0 0 1-6-6zM833.52 2826a6 6 0 0 1 6-6h25.68a6 6 0 0 1 6 6v28a6 6 0 0 1-6 6h-25.68a6 6 0 0 1-6-6z" stroke="#ef9c49" stroke-width="2" fill="#fffada"/><defs><path fill="#8b412b" d="M49-77C44-40 70-4 106-4c52 0 58-115 69-176 33-185 88-339 106-531 5-55-37-120-88-84-58 41-108 94-156 139-9 8-27 43-27 58-1 28 35 54 60 54 15-1 48-23 43 15" id="n"/><path fill="#8b412b" d="M39 59C84 43 157-10 157-69c0-34-42-63-77-61-70 4-68 99-68 162 0 18 9 27 27 27" id="o"/><path fill="#8b412b" d="M489-785c107 0 154 111 116 214-29 79-213 255-300 345-26 27-38 39-16 63 95 2 204-5 287 7 22 4 49 51 49 77 0 63-95 31-141 31H320C244-52 124 2 73 14 50 19-1-26 3-53c6-51 111-140 150-182 94-98 182-189 275-285 55-57 80-102 80-129 1-31-28-24-56-21-120 11-265 81-296 145-13 26-15 67-56 65s-51-21-51-66c0-144 158-200 287-235 61-16 112-24 153-24" id="p"/><path fill="#8b412b" d="M694-661c-2 64-88 115-111 165 1 17 42 36 59 47 42 29 76 115 53 188-30 95-82 137-179 194C386 10 245 0 121-52 96-78 5-94 12-147c-3-30 39-60 66-58 10-5 95 37 147 52 50 14 141 11 184-13 64-35 159-87 167-152 7-58-74-71-141-61-44 7-88 21-136 26-61 7-96-80-43-117 65-45 147-89 217-133 33-21 50-38 50-49 0-57-104-57-169-46-78 14-147 44-200 90-12 10-25 23-51 23-35 0-77-40-55-77 74-122 237-149 435-148 101 1 214 52 211 149" id="q"/><path fill="#8b412b" d="M507-712c85 21 58 156 75 252 15 28 37 66 16 97-49 73-23 203-39 323-4 28-48 49-75 23-22-21-25-21-31-66-9-66 6-122 8-189 2-76-65-30-115-24-69 8-187 40-227 40-73 0-140-72-111-150 27-73 71-119 103-192 19-43 54-103 78-153 18-39 24-47 54-51 29-4 54 45 50 73-11 77-60 137-90 200-39 83-63 123-63 125 3 35 44 12 70 11 65-16 127-28 196-43 38-8 57-22 57-42 2-69-19-156 5-210 7-17 22-24 39-24" id="r"/><g id="a"><use transform="matrix(0.015555555555555548,0,0,0.015555555555555548,0,0)" xlink:href="#n"/><use transform="matrix(0.015555555555555548,0,0,0.015555555555555548,2.317777777777777,0)" xlink:href="#o"/><use transform="matrix(0.015555555555555548,0,0,0.015555555555555548,4.899999999999998,0)" xlink:href="#p"/><use transform="matrix(0.015555555555555548,0,0,0.015555555555555548,13.859999999999994,0)" xlink:href="#o"/><use transform="matrix(0.015555555555555548,0,0,0.015555555555555548,16.442222222222213,0)" xlink:href="#q"/><use transform="matrix(0.015555555555555548,0,0,0.015555555555555548,25.682222222222208,0)" xlink:href="#o"/><use transform="matrix(0.015555555555555548,0,0,0.015555555555555548,23.784444444444432,0)" xlink:href="#r"/></g><path fill="#8b412b" d="M39-49c-7-93 9-204-6-289-18-30-12-41 1-77 37-27 19-97 25-162 2-23-27-37-49-40-11-18-14-56 0-71 17-39 273-99 376-109 72-7 163-32 165 45 1 65-62 51-115 66-63 18-176 24-229 55-41 23-20 107-25 176 83-2 166-25 259-33 74-6 91 70 44 97-80 23-228 35-304 57-18 6-27 18-27 35-9 45 6 274-42 299-35 2-92-5-73-49" id="s"/><path fill="#8b412b" d="M330-158c82-22 193-18 286-31 38 11 58 81 24 113-25 24-71 25-116 25-135 0-238 34-358 47C61 7 4-52 15-159c12-113 37-213 32-340-2-59 2-121-2-178-2-44 35-62 81-61 104-31 222-52 345-64 68-7 103 34 111 94 2 12-3 22-9 31-33 14-62 15-103 16-100 2-196 10-270 40h-8c-18 23-11 79-15 106-1 13 5 22 16 25 82-10 176-25 264-12 44 7 78 26 71 72-7 49-76 30-125 30-78 0-138 22-210 29-24 1-35 28-36 52-2 41-10 83-8 126-19 84 122 51 181 35" id="t"/><path fill="#8b412b" d="M593-790c58 0 99 54 77 117-5 13-15 16-35 14-70-7-152-3-229 7-31 20-24 81-26 127-4 138-16 277-16 422 0 32 4 70-21 83-26 36-88 7-103-20 1-182 10-346 21-521 2-27 11-81-18-84-73-7-138 11-206 3-20-18-39-18-32-51-3-78 74-91 145-91 129 0 251 6 369-8 25-3 49 2 74 2" id="u"/><path fill="#8b412b" d="M521-275c40-33 108-24 108 34 0 49-75 103-210 183-80 47-247 72-323 10-66-54-95-101-82-218 12-106 41-136 91-224 55-96 145-209 240-278 32-23 68-33 107-33 86 2 108 61 107 158 0 55-15 82-44 82-55 1-25-116-79-110-132 15-229 223-291 334-48 86-31 226 81 218 122-9 217-92 295-156" id="v"/><path fill="#8b412b" d="M107-780c100 15 51 176 51 272 0 29 23 25 56 24 33-11 175 4 171-42 9-67 4-153 14-224 12-14 39-57 70-50 51 0 74 34 69 103L490-47c-6 28-25 57-57 56-118-5-54-182-54-299 0-34 3-75-15-85-65 6-127 12-191 19-52 29-23 162-29 239C135-7 87 19 22-30 10-48 7-67 13-88c-16-100 8-215 8-322 0-127-9-364 86-370" id="w"/><path fill="#8b412b" d="M44-228v-78h244v78H44" id="x"/><g id="b"><use transform="matrix(0.015555555555555552,0,0,0.015555555555555552,0,0)" xlink:href="#s"/><use transform="matrix(0.015555555555555552,0,0,0.015555555555555552,8.60222222222222,0)" xlink:href="#t"/><use transform="matrix(0.015555555555555552,0,0,0.015555555555555552,18.962222222222216,0)" xlink:href="#u"/><use transform="matrix(0.015555555555555552,0,0,0.015555555555555552,30.146666666666658,0)" xlink:href="#v"/><use transform="matrix(0.015555555555555552,0,0,0.015555555555555552,40.008888888888876,0)" xlink:href="#w"/><use transform="matrix(0.015555555555555552,0,0,0.015555555555555552,48.42444444444443,0)" xlink:href="#x"/><use transform="matrix(0.015555555555555552,0,0,0.015555555555555552,53.57333333333332,0)" xlink:href="#n"/></g><g id="c"><use transform="matrix(0.015555555555555552,0,0,0.015555555555555552,0,0)" xlink:href="#s"/><use transform="matrix(0.015555555555555552,0,0,0.015555555555555552,8.60222222222222,0)" xlink:href="#t"/><use transform="matrix(0.015555555555555552,0,0,0.015555555555555552,18.962222222222216,0)" xlink:href="#u"/><use transform="matrix(0.015555555555555552,0,0,0.015555555555555552,30.146666666666658,0)" xlink:href="#v"/><use transform="matrix(0.015555555555555552,0,0,0.015555555555555552,40.008888888888876,0)" xlink:href="#w"/><use transform="matrix(0.015555555555555552,0,0,0.015555555555555552,48.42444444444443,0)" xlink:href="#x"/><use transform="matrix(0.015555555555555552,0,0,0.015555555555555552,53.57333333333332,0)" xlink:href="#p"/></g><g id="d"><use transform="matrix(0.015555555555555552,0,0,0.015555555555555552,0,0)" xlink:href="#s"/><use transform="matrix(0.015555555555555552,0,0,0.015555555555555552,8.60222222222222,0)" xlink:href="#t"/><use transform="matrix(0.015555555555555552,0,0,0.015555555555555552,18.962222222222216,0)" xlink:href="#u"/><use transform="matrix(0.015555555555555552,0,0,0.015555555555555552,30.146666666666658,0)" xlink:href="#v"/><use transform="matrix(0.015555555555555552,0,0,0.015555555555555552,40.008888888888876,0)" xlink:href="#w"/><use transform="matrix(0.015555555555555552,0,0,0.015555555555555552,48.42444444444443,0)" xlink:href="#x"/><use transform="matrix(0.015555555555555552,0,0,0.015555555555555552,53.57333333333332,0)" xlink:href="#q"/></g><path fill="#8b412b" d="M39-49c-7-93 9-204-6-289-18-30-12-41 1-77 37-27 19-97 25-162 2-23-27-37-49-40-11-18-14-56 0-71 17-39 273-99 376-109 72-7 163-32 165 45 1 65-62 51-115 66-63 18-176 24-229 55-41 23-20 107-25 176 83-2 166-25 259-33 74-6 91 70 44 97-80 23-228 35-304 57-18 6-27 18-27 35-9 45 6 274-42 299-35 2-92-5-73-49" id="y"/><g id="e"><use transform="matrix(0.015555555555555552,0,0,0.015555555555555552,0,0)" xlink:href="#y"/><use transform="matrix(0.015555555555555552,0,0,0.015555555555555552,8.60222222222222,0)" xlink:href="#t"/><use transform="matrix(0.015555555555555552,0,0,0.015555555555555552,18.962222222222216,0)" xlink:href="#u"/><use transform="matrix(0.015555555555555552,0,0,0.015555555555555552,30.146666666666658,0)" xlink:href="#v"/><use transform="matrix(0.015555555555555552,0,0,0.015555555555555552,40.008888888888876,0)" xlink:href="#w"/><use transform="matrix(0.015555555555555552,0,0,0.015555555555555552,48.42444444444443,0)" xlink:href="#x"/><use transform="matrix(0.015555555555555552,0,0,0.015555555555555552,53.57333333333332,0)" xlink:href="#r"/></g><path fill="#8b412b" d="M19-91c0-222 71-428 58-668-3-62 121-44 170-33 118 27 229 50 293 128 44 53 63 97 63 217 0 165-189 328-383 400-36 13-62 45-108 45-66 0-93-23-93-89zm185-582c-30 151-43 322-58 489 5 39 27 28 60 14 129-54 276-147 276-304 0-155-106-203-278-199" id="z"/><path fill="#8b412b" d="M44-443c79-191 208-366 448-366 141 0 239 118 267 253 46 222-61 413-213 490-83 42-221 78-338 30-55-23-106-43-129-82-26-14-80-140-57-202 2-41 8-89 22-123zm103 115c1 136 75 191 208 191 130 0 180-50 241-135 38-53 55-111 55-169 0-109-73-236-179-227-143 12-260 151-311 271-9 24-14 47-14 69" id="A"/><g id="f"><use transform="matrix(0.015555555555555552,0,0,0.015555555555555552,0,0)" xlink:href="#z"/><use transform="matrix(0.015555555555555552,0,0,0.015555555555555552,9.395555555555553,0)" xlink:href="#t"/><use transform="matrix(0.015555555555555552,0,0,0.015555555555555552,19.755555555555553,0)" xlink:href="#v"/><use transform="matrix(0.015555555555555552,0,0,0.015555555555555552,29.617777777777775,0)" xlink:href="#A"/><use transform="matrix(0.015555555555555552,0,0,0.015555555555555552,42.108888888888885,0)" xlink:href="#z"/><use transform="matrix(0.015555555555555552,0,0,0.015555555555555552,51.50444444444444,0)" xlink:href="#t"/><use transform="matrix(0.015555555555555552,0,0,0.015555555555555552,61.86444444444444,0)" xlink:href="#x"/><use transform="matrix(0.015555555555555552,0,0,0.015555555555555552,67.01333333333332,0)" xlink:href="#n"/></g><g id="g"><use transform="matrix(0.015555555555555552,0,0,0.015555555555555552,0,0)" xlink:href="#z"/><use transform="matrix(0.015555555555555552,0,0,0.015555555555555552,9.395555555555553,0)" xlink:href="#t"/><use transform="matrix(0.015555555555555552,0,0,0.015555555555555552,19.755555555555553,0)" xlink:href="#v"/><use transform="matrix(0.015555555555555552,0,0,0.015555555555555552,29.617777777777775,0)" xlink:href="#A"/><use transform="matrix(0.015555555555555552,0,0,0.015555555555555552,42.108888888888885,0)" xlink:href="#z"/><use transform="matrix(0.015555555555555552,0,0,0.015555555555555552,51.50444444444444,0)" xlink:href="#t"/><use transform="matrix(0.015555555555555552,0,0,0.015555555555555552,61.86444444444444,0)" xlink:href="#x"/><use transform="matrix(0.015555555555555552,0,0,0.015555555555555552,67.01333333333332,0)" xlink:href="#p"/></g><g id="h"><use transform="matrix(0.015555555555555552,0,0,0.015555555555555552,0,0)" xlink:href="#z"/><use transform="matrix(0.015555555555555552,0,0,0.015555555555555552,9.395555555555553,0)" xlink:href="#t"/><use transform="matrix(0.015555555555555552,0,0,0.015555555555555552,19.755555555555553,0)" xlink:href="#v"/><use transform="matrix(0.015555555555555552,0,0,0.015555555555555552,29.617777777777775,0)" xlink:href="#A"/><use transform="matrix(0.015555555555555552,0,0,0.015555555555555552,42.108888888888885,0)" xlink:href="#z"/><use transform="matrix(0.015555555555555552,0,0,0.015555555555555552,51.50444444444444,0)" xlink:href="#t"/><use transform="matrix(0.015555555555555552,0,0,0.015555555555555552,61.86444444444444,0)" xlink:href="#x"/><use transform="matrix(0.015555555555555552,0,0,0.015555555555555552,67.01333333333332,0)" xlink:href="#q"/></g><g id="i"><use transform="matrix(0.015555555555555552,0,0,0.015555555555555552,0,0)" xlink:href="#z"/><use transform="matrix(0.015555555555555552,0,0,0.015555555555555552,9.395555555555553,0)" xlink:href="#t"/><use transform="matrix(0.015555555555555552,0,0,0.015555555555555552,19.755555555555553,0)" xlink:href="#v"/><use transform="matrix(0.015555555555555552,0,0,0.015555555555555552,29.617777777777775,0)" xlink:href="#A"/><use transform="matrix(0.015555555555555552,0,0,0.015555555555555552,42.108888888888885,0)" xlink:href="#z"/><use transform="matrix(0.015555555555555552,0,0,0.015555555555555552,51.50444444444444,0)" xlink:href="#t"/><use transform="matrix(0.015555555555555552,0,0,0.015555555555555552,61.86444444444444,0)" xlink:href="#x"/><use transform="matrix(0.015555555555555552,0,0,0.015555555555555552,67.01333333333332,0)" xlink:href="#r"/></g><path fill="#8b412b" d="M635-31c28-53 7-115-31-143-7-19-67-63-88-82-39-36-80-78-117-115 1-16 41-65 118-148l-10 11c30-36 53-67 85-95 54-48 78-89 78-117s-20-70-52-70c-36 0-116 78-245 230-22 26-38 59-67 71-30 12-85-104-102-151-13-36-72-158-75-157-34-47-96-35-89 35 8 88 69 162 101 236 14 20 74 122 77 140-20 61-139 209-182 265-18 23-24 44-24 60C11-36 45 1 69 0c45-2 96-97 124-134 67-89 109-132 124-131 48 2 103 85 141 115 20 16 39 33 56 52 49 58 88 82 121 67" id="B"/><path fill="#8b412b" d="M106-737c41-53 131 12 108 86-42 139-71 285-71 455 0 88 72 66 143 48 49-12 128-35 183-63 38-19 36-69 44-119 17-114 31-247 31-354 0-57 26-85 79-85 37 0 55 27 55 81 0 190-34 397-59 573 4 31 20 93-13 105-8 10-30 7-65-8-16-20-33-38-51-54C397-48 305 0 205 0 79 0 5-43 13-176c13-196 50-391 93-561" id="C"/><g id="j"><use transform="matrix(0.015555555555555552,0,0,0.015555555555555552,0,0)" xlink:href="#t"/><use transform="matrix(0.015555555555555552,0,0,0.015555555555555552,10.359999999999998,0)" xlink:href="#B"/><use transform="matrix(0.015555555555555552,0,0,0.015555555555555552,20.87555555555555,0)" xlink:href="#t"/><use transform="matrix(0.015555555555555552,0,0,0.015555555555555552,31.23555555555555,0)" xlink:href="#v"/><use transform="matrix(0.015555555555555552,0,0,0.015555555555555552,41.09777777777777,0)" xlink:href="#C"/><use transform="matrix(0.015555555555555552,0,0,0.015555555555555552,52.033333333333324,0)" xlink:href="#u"/><use transform="matrix(0.015555555555555552,0,0,0.015555555555555552,63.21777777777777,0)" xlink:href="#t"/><use transform="matrix(0.015555555555555552,0,0,0.015555555555555552,73.57777777777777,0)" xlink:href="#x"/><use transform="matrix(0.015555555555555552,0,0,0.015555555555555552,78.72666666666666,0)" xlink:href="#n"/></g><g id="k"><use transform="matrix(0.015555555555555552,0,0,0.015555555555555552,0,0)" xlink:href="#t"/><use transform="matrix(0.015555555555555552,0,0,0.015555555555555552,10.359999999999998,0)" xlink:href="#B"/><use transform="matrix(0.015555555555555552,0,0,0.015555555555555552,20.87555555555555,0)" xlink:href="#t"/><use transform="matrix(0.015555555555555552,0,0,0.015555555555555552,31.23555555555555,0)" xlink:href="#v"/><use transform="matrix(0.015555555555555552,0,0,0.015555555555555552,41.09777777777777,0)" xlink:href="#C"/><use transform="matrix(0.015555555555555552,0,0,0.015555555555555552,52.033333333333324,0)" xlink:href="#u"/><use transform="matrix(0.015555555555555552,0,0,0.015555555555555552,63.21777777777777,0)" xlink:href="#t"/><use transform="matrix(0.015555555555555552,0,0,0.015555555555555552,73.57777777777777,0)" xlink:href="#x"/><use transform="matrix(0.015555555555555552,0,0,0.015555555555555552,78.72666666666666,0)" xlink:href="#p"/></g><g id="l"><use transform="matrix(0.015555555555555552,0,0,0.015555555555555552,0,0)" xlink:href="#t"/><use transform="matrix(0.015555555555555552,0,0,0.015555555555555552,10.359999999999998,0)" xlink:href="#B"/><use transform="matrix(0.015555555555555552,0,0,0.015555555555555552,20.87555555555555,0)" xlink:href="#t"/><use transform="matrix(0.015555555555555552,0,0,0.015555555555555552,31.23555555555555,0)" xlink:href="#v"/><use transform="matrix(0.015555555555555552,0,0,0.015555555555555552,41.09777777777777,0)" xlink:href="#C"/><use transform="matrix(0.015555555555555552,0,0,0.015555555555555552,52.033333333333324,0)" xlink:href="#u"/><use transform="matrix(0.015555555555555552,0,0,0.015555555555555552,63.21777777777777,0)" xlink:href="#t"/><use transform="matrix(0.015555555555555552,0,0,0.015555555555555552,73.57777777777777,0)" xlink:href="#x"/><use transform="matrix(0.015555555555555552,0,0,0.015555555555555552,78.72666666666666,0)" xlink:href="#q"/></g><g id="m"><use transform="matrix(0.015555555555555552,0,0,0.015555555555555552,0,0)" xlink:href="#t"/><use transform="matrix(0.015555555555555552,0,0,0.015555555555555552,10.359999999999998,0)" xlink:href="#B"/><use transform="matrix(0.015555555555555552,0,0,0.015555555555555552,20.87555555555555,0)" xlink:href="#t"/><use transform="matrix(0.015555555555555552,0,0,0.015555555555555552,31.23555555555555,0)" xlink:href="#v"/><use transform="matrix(0.015555555555555552,0,0,0.015555555555555552,41.09777777777777,0)" xlink:href="#C"/><use transform="matrix(0.015555555555555552,0,0,0.015555555555555552,52.033333333333324,0)" xlink:href="#u"/><use transform="matrix(0.015555555555555552,0,0,0.015555555555555552,63.21777777777777,0)" xlink:href="#t"/><use transform="matrix(0.015555555555555552,0,0,0.015555555555555552,73.57777777777777,0)" xlink:href="#x"/><use transform="matrix(0.015555555555555552,0,0,0.015555555555555552,78.72666666666666,0)" xlink:href="#r"/></g></defs></g></svg>