<svg xmlns="http://www.w3.org/2000/svg" xmlns:xlink="http://www.w3.org/1999/xlink" xmlns:lucid="lucid" width="722" height="264"><g transform="translate(-161 -221)" lucid:page-tab-id="0_0"><path d="M201 300h600.5M201.03 300H200" stroke="#e45e2d" stroke-width="2" fill="none"/><path d="M816.76 300l-14.26 4.63v-9.26z" stroke="#e45e2d" stroke-width="2" fill="#e45e2d"/><path d="M200 346a6 6 0 0 1 6-6h188a6 6 0 0 1 6 6v48a6 6 0 0 1-6 6H206a6 6 0 0 1-6-6z" stroke="#ef9c49" stroke-width="2" fill="#fffada"/><use xlink:href="#a" transform="matrix(1,0,0,1,212,352) translate(60.68888888888888 24.52777777777778)"/><use xlink:href="#b" transform="matrix(1,0,0,1,212,352) translate(81.55555555555554 24.52777777777778)"/><use xlink:href="#c" transform="matrix(1,0,0,1,212,352) translate(109.02222222222221 24.52777777777778)"/><path d="M400 346a6 6 0 0 1 6-6h188a6 6 0 0 1 6 6v48a6 6 0 0 1-6 6H406a6 6 0 0 1-6-6z" stroke="#ef9c49" stroke-width="2" fill="#fffada"/><use xlink:href="#a" transform="matrix(1,0,0,1,412,352) translate(56.71111111111111 24.52777777777778)"/><use xlink:href="#b" transform="matrix(1,0,0,1,412,352) translate(77.57777777777778 24.52777777777778)"/><use xlink:href="#d" transform="matrix(1,0,0,1,412,352) translate(105.04444444444445 24.52777777777778)"/><path d="M600 346a6 6 0 0 1 6-6h188a6 6 0 0 1 6 6v48a6 6 0 0 1-6 6H606a6 6 0 0 1-6-6z" stroke="#ef9c49" stroke-width="2" fill="#fffada"/><g><use xlink:href="#a" transform="matrix(1,0,0,1,612,352) translate(55.9 24.52777777777778)"/><use xlink:href="#b" transform="matrix(1,0,0,1,612,352) translate(76.76666666666667 24.52777777777778)"/><use xlink:href="#e" transform="matrix(1,0,0,1,612,352) translate(104.23333333333333 24.52777777777778)"/></g><defs><path fill="#8b412b" d="M358-3v-44H186v64h-64v-392h300V-3h-64zm273-86c39 14 119 28 119-17v-214H561v436h-64v-492h317v267c14 103-83 94-169 83zM500-775c89 125 225 225 389 278l-39 61c-153-61-292-161-386-281-86 131-228 225-375 297l-36-58c156-64 289-164 378-297h69zM186-103h172v-217H186v217zm81-361v-56h400v56H267" id="f"/><use transform="matrix(0.022222222222222223,0,0,0.022222222222222223,0,0)" xlink:href="#f" id="a"/><path fill="#8b412b" d="M592-33c44 3 111 31 111-22v-192H436v364h-64v-364H141v-56h625v264c8 86-83 78-158 69zm-86-734c86 139 217 253 381 319l-31 58c-167-69-292-189-386-328-94 136-236 261-386 336l-31-53c153-78 289-192 378-333h75zM250-417v-58h428v58H250" id="g"/><use transform="matrix(0.022222222222222223,0,0,0.022222222222222223,0,0)" xlink:href="#g" id="b"/><path fill="#8b412b" d="M49-77C44-40 70-4 106-4c52 0 58-115 69-176 33-185 88-339 106-531 5-55-37-120-88-84-58 41-108 94-156 139-9 8-27 43-27 58-1 28 35 54 60 54 15-1 48-23 43 15" id="h"/><use transform="matrix(0.022222222222222223,0,0,0.022222222222222223,0,0)" xlink:href="#h" id="c"/><path fill="#8b412b" d="M489-785c107 0 154 111 116 214-29 79-213 255-300 345-26 27-38 39-16 63 95 2 204-5 287 7 22 4 49 51 49 77 0 63-95 31-141 31H320C244-52 124 2 73 14 50 19-1-26 3-53c6-51 111-140 150-182 94-98 182-189 275-285 55-57 80-102 80-129 1-31-28-24-56-21-120 11-265 81-296 145-13 26-15 67-56 65s-51-21-51-66c0-144 158-200 287-235 61-16 112-24 153-24" id="i"/><use transform="matrix(0.022222222222222223,0,0,0.022222222222222223,0,0)" xlink:href="#i" id="d"/><path fill="#8b412b" d="M694-661c-2 64-88 115-111 165 1 17 42 36 59 47 42 29 76 115 53 188-30 95-82 137-179 194C386 10 245 0 121-52 96-78 5-94 12-147c-3-30 39-60 66-58 10-5 95 37 147 52 50 14 141 11 184-13 64-35 159-87 167-152 7-58-74-71-141-61-44 7-88 21-136 26-61 7-96-80-43-117 65-45 147-89 217-133 33-21 50-38 50-49 0-57-104-57-169-46-78 14-147 44-200 90-12 10-25 23-51 23-35 0-77-40-55-77 74-122 237-149 435-148 101 1 214 52 211 149" id="j"/><use transform="matrix(0.022222222222222223,0,0,0.022222222222222223,0,0)" xlink:href="#j" id="e"/></defs></g></svg>