<?xml version="1.0" encoding="UTF-8" standalone="no"?>
<!DOCTYPE svg PUBLIC "-//W3C//DTD SVG 1.1//EN"
 "http://www.w3.org/Graphics/SVG/1.1/DTD/svg11.dtd">
<!-- Generated by graphviz version 10.0.1 (0)
 -->
<!-- Pages: 1 -->
<svg width="307pt" height="223pt"
 viewBox="0.00 0.00 307.00 223.25" xmlns="http://www.w3.org/2000/svg" xmlns:xlink="http://www.w3.org/1999/xlink">
<g id="graph0" class="graph" transform="scale(1 1) rotate(0) translate(4 219.25)">
<polygon fill="white" stroke="none" points="-4,4 -4,-219.25 303,-219.25 303,4 -4,4"/>
<text text-anchor="middle" x="68" y="-197.95" font-family="Helvetica,Arial,sans-serif" font-size="14.00">Magic Rollback flow</text>
<g id="clust1" class="cluster">
<title>cluster_remote</title>
<polygon fill="none" stroke="black" points="8,-8 8,-178.25 203,-178.25 203,-8 8,-8"/>
<text text-anchor="middle" x="40" y="-160.95" font-family="Helvetica,Arial,sans-serif" font-size="14.00">Remote</text>
</g>
<g id="clust2" class="cluster">
<title>cluster_local</title>
<polygon fill="none" stroke="black" points="211,-97.25 211,-178.25 291,-178.25 291,-97.25 211,-97.25"/>
<text text-anchor="middle" x="235.12" y="-160.95" font-family="Helvetica,Arial,sans-serif" font-size="14.00">Local</text>
</g>
<!-- activate -->
<g id="node1" class="node">
<title>activate</title>
<polygon fill="none" stroke="black" points="126.5,-141.25 53.5,-141.25 53.5,-105.25 126.5,-105.25 126.5,-141.25"/>
<text text-anchor="middle" x="90" y="-118.58" font-family="Times,serif" font-size="14.00">activate</text>
</g>
<!-- profile -->
<g id="node2" class="node">
<title>profile</title>
<polygon fill="none" stroke="black" points="77.88,-52 16.12,-52 16.12,-16 77.88,-16 77.88,-52"/>
<text text-anchor="middle" x="47" y="-29.32" font-family="Times,serif" font-size="14.00">profile</text>
</g>
<!-- activate&#45;&gt;profile -->
<g id="edge1" class="edge">
<title>activate&#45;&gt;profile</title>
<path fill="none" stroke="black" d="M53.09,-106.05C45.84,-101.1 39.19,-94.89 35,-87.25 30.94,-79.85 31.26,-71.13 33.37,-62.95"/>
<polygon fill="black" stroke="black" points="36.59,-64.34 36.62,-53.75 29.99,-62.02 36.59,-64.34"/>
<text text-anchor="middle" x="72.5" y="-73.95" font-family="Times,serif" font-size="14.00">2. activate</text>
</g>
<!-- canary -->
<g id="node3" class="node">
<title>canary</title>
<polygon fill="none" stroke="black" points="190.12,-52 99.88,-52 99.88,-16 190.12,-16 190.12,-52"/>
<text text-anchor="middle" x="145" y="-29.32" font-family="Times,serif" font-size="14.00">canary file</text>
</g>
<!-- activate&#45;&gt;canary -->
<g id="edge2" class="edge">
<title>activate&#45;&gt;canary</title>
<path fill="none" stroke="black" d="M100.87,-105.01C108.63,-92.7 119.21,-75.91 128.07,-61.85"/>
<polygon fill="black" stroke="black" points="130.98,-63.81 133.35,-53.48 125.06,-60.08 130.98,-63.81"/>
<text text-anchor="middle" x="154.5" y="-73.95" font-family="Times,serif" font-size="14.00">3. create</text>
</g>
<!-- deploy -->
<g id="node4" class="node">
<title>deploy</title>
<polygon fill="none" stroke="black" points="282.62,-141.25 219.38,-141.25 219.38,-105.25 282.62,-105.25 282.62,-141.25"/>
<text text-anchor="middle" x="251" y="-118.58" font-family="Times,serif" font-size="14.00">deploy</text>
</g>
<!-- deploy&#45;&gt;activate -->
<g id="edge3" class="edge">
<title>deploy&#45;&gt;activate</title>
<path fill="none" stroke="black" d="M219.13,-123.25C196.02,-123.25 164.35,-123.25 138.16,-123.25"/>
<polygon fill="black" stroke="black" points="138.45,-119.75 128.45,-123.25 138.45,-126.75 138.45,-119.75"/>
<text text-anchor="middle" x="172.94" y="-130.2" font-family="Times,serif" font-size="14.00">1. activate</text>
</g>
<!-- deploy&#45;&gt;canary -->
<g id="edge4" class="edge">
<title>deploy&#45;&gt;canary</title>
<path fill="none" stroke="black" d="M231.15,-104.83C219.31,-94.55 203.93,-81.38 190,-70 185.72,-66.51 181.17,-62.87 176.67,-59.33"/>
<polygon fill="black" stroke="black" points="178.82,-56.57 168.79,-53.17 174.51,-62.09 178.82,-56.57"/>
<text text-anchor="middle" x="229.12" y="-73.95" font-family="Times,serif" font-size="14.00">4. rm</text>
</g>
</g>
</svg>
