<?xml version="1.0" encoding="UTF-8" standalone="no"?>
<!DOCTYPE svg PUBLIC "-//W3C//DTD SVG 1.1//EN"
 "http://www.w3.org/Graphics/SVG/1.1/DTD/svg11.dtd">
<!-- Generated by graphviz version 10.0.1 (0)
 -->
<!-- Pages: 1 -->
<svg width="422pt" height="223pt"
 viewBox="0.00 0.00 422.00 223.25" xmlns="http://www.w3.org/2000/svg" xmlns:xlink="http://www.w3.org/1999/xlink">
<g id="graph0" class="graph" transform="scale(1 1) rotate(0) translate(4 219.25)">
<polygon fill="white" stroke="none" points="-4,4 -4,-219.25 418,-219.25 418,4 -4,4"/>
<text text-anchor="middle" x="68" y="-197.95" font-family="Helvetica,Arial,sans-serif" font-size="14.00">Magic Rollback flow</text>
<g id="clust1" class="cluster">
<title>cluster_remote</title>
<polygon fill="none" stroke="black" points="8,-8 8,-178.25 318,-178.25 318,-8 8,-8"/>
<text text-anchor="middle" x="40" y="-160.95" font-family="Helvetica,Arial,sans-serif" font-size="14.00">Remote</text>
</g>
<g id="clust2" class="cluster">
<title>cluster_local</title>
<polygon fill="none" stroke="black" points="326,-97.25 326,-178.25 406,-178.25 406,-97.25 326,-97.25"/>
<text text-anchor="middle" x="350.12" y="-160.95" font-family="Helvetica,Arial,sans-serif" font-size="14.00">Local</text>
</g>
<!-- activate -->
<g id="node1" class="node">
<title>activate</title>
<polygon fill="none" stroke="black" points="204.5,-141.25 131.5,-141.25 131.5,-105.25 204.5,-105.25 204.5,-141.25"/>
<text text-anchor="middle" x="168" y="-118.58" font-family="Times,serif" font-size="14.00">activate</text>
</g>
<!-- profile -->
<g id="node2" class="node">
<title>profile</title>
<polygon fill="none" stroke="black" points="120.88,-52 59.12,-52 59.12,-16 120.88,-16 120.88,-52"/>
<text text-anchor="middle" x="90" y="-29.32" font-family="Times,serif" font-size="14.00">profile</text>
</g>
<!-- activate&#45;&gt;profile -->
<g id="edge1" class="edge">
<title>activate&#45;&gt;profile</title>
<path fill="none" stroke="black" d="M131.17,-117.61C96.01,-112.33 46.7,-102.43 35,-87.25 25.98,-75.55 35.42,-64.08 48.87,-54.88"/>
<polygon fill="black" stroke="black" points="50.65,-57.89 57.35,-49.68 47,-51.92 50.65,-57.89"/>
<text text-anchor="middle" x="72.5" y="-73.95" font-family="Times,serif" font-size="14.00">2. activate</text>
</g>
<!-- activate&#45;&gt;profile -->
<g id="edge3" class="edge">
<title>activate&#45;&gt;profile</title>
<path fill="none" stroke="black" d="M149.7,-104.79C144.14,-99.3 138.08,-93.12 132.75,-87.25 125.23,-78.97 117.37,-69.6 110.47,-61.1"/>
<polygon fill="black" stroke="black" points="113.36,-59.11 104.38,-53.5 107.9,-63.49 113.36,-59.11"/>
<text text-anchor="middle" x="179.12" y="-73.95" font-family="Times,serif" font-size="14.00">5. deactivate</text>
</g>
<!-- canary -->
<g id="node3" class="node">
<title>canary</title>
<polygon fill="none" stroke="black" points="301.12,-52 210.88,-52 210.88,-16 301.12,-16 301.12,-52"/>
<text text-anchor="middle" x="256" y="-29.32" font-family="Times,serif" font-size="14.00">canary file</text>
</g>
<!-- activate&#45;&gt;canary -->
<g id="edge2" class="edge">
<title>activate&#45;&gt;canary</title>
<path fill="none" stroke="black" d="M202.54,-104.75C210.47,-99.77 218.48,-93.87 225,-87.25 232.05,-80.09 238.15,-71.02 243.02,-62.46"/>
<polygon fill="black" stroke="black" points="246.04,-64.24 247.64,-53.77 239.86,-60.96 246.04,-64.24"/>
<text text-anchor="middle" x="269.5" y="-73.95" font-family="Times,serif" font-size="14.00">3. create</text>
</g>
<!-- deploy -->
<g id="node4" class="node">
<title>deploy</title>
<polygon fill="none" stroke="black" points="397.62,-141.25 334.38,-141.25 334.38,-105.25 397.62,-105.25 397.62,-141.25"/>
<text text-anchor="middle" x="366" y="-118.58" font-family="Times,serif" font-size="14.00">deploy</text>
</g>
<!-- deploy&#45;&gt;activate -->
<g id="edge4" class="edge">
<title>deploy&#45;&gt;activate</title>
<path fill="none" stroke="black" d="M334,-123.25C302.12,-123.25 252.79,-123.25 216.18,-123.25"/>
<polygon fill="black" stroke="black" points="216.29,-119.75 206.29,-123.25 216.29,-126.75 216.29,-119.75"/>
<text text-anchor="middle" x="269.44" y="-130.2" font-family="Times,serif" font-size="14.00">1. activate</text>
</g>
<!-- deploy&#45;&gt;canary -->
<g id="edge5" class="edge">
<title>deploy&#45;&gt;canary</title>
<path fill="none" stroke="black" stroke-dasharray="1,5" d="M346.59,-104.86C334.78,-94.47 319.27,-81.18 305,-70 300.39,-66.39 295.44,-62.68 290.53,-59.09"/>
<polygon fill="black" stroke="black" points="292.63,-56.28 282.47,-53.27 288.53,-61.96 292.63,-56.28"/>
<text text-anchor="middle" x="367" y="-73.95" font-family="Times,serif" font-size="14.00">4. fail to rm</text>
</g>
</g>
</svg>
