<svg xmlns="http://www.w3.org/2000/svg" xmlns:xlink="http://www.w3.org/1999/xlink" xmlns:lucid="lucid" width="1695.18" height="1143"><g transform="translate(407.6845226934544 -378.5)" lucid:page-tab-id="0_0"><path d="M-500 0h2000v1500H-500z" fill="#fff"/><path d="M800 406a6 6 0 0 1 6-6h308a6 6 0 0 1 6 6v348a6 6 0 0 1-6 6H806a6 6 0 0 1-6-6z" stroke="#8ca88e" stroke-width="3" fill-opacity="0"/><use xlink:href="#a" transform="matrix(1,0,0,1,808,408) translate(1.2197265625000284 27.40494791666667)"/><use xlink:href="#b" transform="matrix(1,0,0,1,808,408) translate(173.5400390625 27.40494791666667)"/><use xlink:href="#c" transform="matrix(1,0,0,1,808,408) translate(65.83984375000003 63.182725694444436)"/><use xlink:href="#d" transform="matrix(1,0,0,1,808,408) translate(152 63.182725694444436)"/><path d="M240 406a6 6 0 0 1 6-6h308a6 6 0 0 1 6 6v348a6 6 0 0 1-6 6H246a6 6 0 0 1-6-6z" stroke="#8ca88e" stroke-width="3" fill-opacity="0"/><use xlink:href="#e" transform="matrix(1,0,0,1,248,408) translate(44.299804687500014 27.40494791666667)"/><use xlink:href="#f" transform="matrix(1,0,0,1,248,408) translate(98.14990234375001 63.182725694444436)"/><path d="M-320 406a6 6 0 0 1 6-6H-6a6 6 0 0 1 6 6v808a6 6 0 0 1-6 6h-308a6 6 0 0 1-6-6z" stroke="#8ca88e" stroke-width="3" fill-opacity="0"/><use xlink:href="#g" transform="matrix(1,0,0,1,-312,408) translate(22.75976562500003 27.40494791666667)"/><use xlink:href="#h" transform="matrix(1,0,0,1,-312,408) translate(238.16015625 27.40494791666667)"/><use xlink:href="#i" transform="matrix(1,0,0,1,-312,408) translate(108.91992187500001 63.182725694444436)"/><path d="M-310 516a6 6 0 0 1 6-6h288a6 6 0 0 1 6 6v168a6 6 0 0 1-6 6h-288a6 6 0 0 1-6-6z" stroke="#8ca88e" fill-opacity="0"/><path d="M820 976a6 6 0 0 1 6-6h308a6 6 0 0 1 6 6v518a6 6 0 0 1-6 6H826a6 6 0 0 1-6-6z" stroke="#8ca88e" stroke-width="3" fill-opacity="0"/><use xlink:href="#j" transform="matrix(1,0,0,1,828,978) translate(65.83984375000001 27.293836805555554)"/><path d="M860 586a6 6 0 0 1 6-6h188a6 6 0 0 1 6 6v108a6 6 0 0 1-6 6H866a6 6 0 0 1-6-6z" stroke="#8ca88e" stroke-width="3" fill="#cbd2c6"/><use xlink:href="#k" transform="matrix(1,0,0,1,872,592) translate(0 13.67578125)"/><use xlink:href="#l" transform="matrix(1,0,0,1,872,592) translate(86.6953125 13.67578125)"/><use xlink:href="#m" transform="matrix(1,0,0,1,872,592) translate(130.04296875 13.67578125)"/><use xlink:href="#n" transform="matrix(1,0,0,1,872,592) translate(0 31.67578125)"/><use xlink:href="#o" transform="matrix(1,0,0,1,872,592) translate(0 49.67578125)"/><use xlink:href="#p" transform="matrix(1,0,0,1,872,592) translate(0 67.67578125)"/><use xlink:href="#q" transform="matrix(1,0,0,1,872,592) translate(43.34765625 67.67578125)"/><use xlink:href="#r" transform="matrix(1,0,0,1,872,592) translate(0 85.67578125)"/><use xlink:href="#l" transform="matrix(1,0,0,1,872,592) translate(75.8583984375 85.67578125)"/><use xlink:href="#s" transform="matrix(1,0,0,1,872,592) translate(119.2060546875 85.67578125)"/><path d="M840 526a6 6 0 0 1 6-6h228a6 6 0 0 1 6 6v48a6 6 0 0 1-6 6H846a6 6 0 0 1-6-6z" stroke="#000" stroke-opacity="0" stroke-width="3" fill="#fff" fill-opacity="0"/><use xlink:href="#t" transform="matrix(1,0,0,1,845,525) translate(20.41113281250003 29.552517361111107)"/><use xlink:href="#u" transform="matrix(1,0,0,1,845,525) translate(155.5380859375 29.552517361111107)"/><path d="M320 586a6 6 0 0 1 6-6h148a6 6 0 0 1 6 6v108a6 6 0 0 1-6 6H326a6 6 0 0 1-6-6z" stroke="#8ca88e" stroke-width="3" fill="#cbd2c6"/><use xlink:href="#v" transform="matrix(1,0,0,1,332,592) translate(19.23388671875 52.67578125)"/><path d="M618.24 641H482.5v-2h135.74zm231.27 0H672.44v-2H849.5z" stroke="#5a786f" stroke-width=".05" fill="#5a786f"/><path d="M482.53 641h-1.03v-2h1.03z" fill="#5a786f"/><path d="M482.55 641.02h-1.07V639h1.07zm-1.03-2V641h.98V639z" stroke="#5a786f" stroke-width=".05" fill="#5a786f"/><path d="M856.54 640l-12.92 7.64v-15.28z" fill="#5a786f"/><path d="M858.5 640l-15.88 9.4v-18.8zm-13.88 5.88l9.95-5.88-9.95-5.88z" stroke="#5a786f" stroke-width=".05" fill="#5a786f"/><use xlink:href="#w" transform="matrix(1,0,0,1,618.2410481770834,631) translate(0 13.67578125)"/><path d="M-260 536a6 6 0 0 1 6-6h188a6 6 0 0 1 6 6v108a6 6 0 0 1-6 6h-188a6 6 0 0 1-6-6z" stroke="#8ca88e" stroke-width="3" fill="#cbd2c6"/><use xlink:href="#k" transform="matrix(1,0,0,1,-248,542) translate(0 13.67578125)"/><use xlink:href="#l" transform="matrix(1,0,0,1,-248,542) translate(86.6953125 13.67578125)"/><use xlink:href="#m" transform="matrix(1,0,0,1,-248,542) translate(130.04296875 13.67578125)"/><use xlink:href="#n" transform="matrix(1,0,0,1,-248,542) translate(0 31.67578125)"/><use xlink:href="#o" transform="matrix(1,0,0,1,-248,542) translate(0 49.67578125)"/><use xlink:href="#p" transform="matrix(1,0,0,1,-248,542) translate(0 67.67578125)"/><use xlink:href="#q" transform="matrix(1,0,0,1,-248,542) translate(43.34765625 67.67578125)"/><use xlink:href="#r" transform="matrix(1,0,0,1,-248,542) translate(0 85.67578125)"/><use xlink:href="#l" transform="matrix(1,0,0,1,-248,542) translate(75.8583984375 85.67578125)"/><use xlink:href="#s" transform="matrix(1,0,0,1,-248,542) translate(119.2060546875 85.67578125)"/><path d="M-290 476a6 6 0 0 1 6-6h228a6 6 0 0 1 6 6v48a6 6 0 0 1-6 6h-228a6 6 0 0 1-6-6z" stroke="#000" stroke-opacity="0" stroke-width="3" fill="#fff" fill-opacity="0"/><use xlink:href="#x" transform="matrix(1,0,0,1,-285,475) translate(94.73095703125 29.552517361111104)"/><path d="M-240 786a6 6 0 0 1 6-6h148a6 6 0 0 1 6 6v108a6 6 0 0 1-6 6h-148a6 6 0 0 1-6-6z" stroke="#8ca88e" stroke-width="3" fill="#cbd2c6"/><use xlink:href="#y" transform="matrix(1,0,0,1,-228,792) translate(0 43.67578125)"/><use xlink:href="#z" transform="matrix(1,0,0,1,-228,792) translate(0 61.67578125)"/><path d="M-159 769.5h-2V724h2zm0-63.5h-2v-53.5h2z" stroke="#5a786f" stroke-width=".05" fill="#5a786f"/><path d="M-159 652.53h-2v-1.03h2z" fill="#5a786f"/><path d="M-158.97 652.55h-2.06v-1.07h2.06zm-2-1.02v.97h1.94v-.98z" stroke="#5a786f" stroke-width=".05" fill="#5a786f"/><path d="M-160 776.54l-7.64-12.92h15.28z" fill="#5a786f"/><path d="M-160 778.5l-9.4-15.88h18.8zm-5.88-13.88l5.88 9.95 5.88-9.95z" stroke="#5a786f" stroke-width=".05" fill="#5a786f"/><use xlink:href="#A" transform="matrix(1,0,0,1,-197.92919921875,706) translate(0 13.67578125)"/><path d="M-220.08 1040c-11.4 0-20.9 11.35-20.9 25 0 11.36 6.06 20.5 14.04 23.63l-4.55 5.9 5.74 5.9-5.73 6.38 5.74 5.9-5.73 6.84 11.42 12.73 9.5-11.8v-33.23c6.86-4.52 11.42-12.73 11.42-22.7 0-13.65-9.5-24.54-20.92-24.54zm3.8 18.18s-.74 0-1.12.92c0 0-.8.92-1.17.92h-3.4l-.78-.92-.76-1.38v-4.06l.75-.93 1.17-.92h3.4l.78.93.75 1.4v4.05z" stroke="#000" stroke-opacity="0" stroke-width="6.25" fill="#fcd116"/><path d="M-218.18 1090v32.73l3.8-4.54v-29.1c-1.3.46-2.44.73-3.8.9z" stroke="#000" stroke-opacity="0" stroke-width="6.25" fill="#ff8c00" fill-opacity=".4"/><path d="M-220.08 1080.9c6.74.1 12.35-5.66 13.3-13.63h-26.6c.95 7.97 6.57 13.72 13.3 13.64z" stroke="#000" stroke-opacity="0" stroke-width="6.25" fill="#fff" fill-opacity=".4"/><path d="M-197.64 1052.73c1.12 2.7 1.52 4.54 1.92 7.76 7.58 8.55 11.5 19.28 11.4 31.76 0 23.65-16.35 43.2-36.16 43.2-19.72 0-35.7-19.55-35.7-43.2-.07-12.48 3.77-23.2 11.35-31.77l2.32-7.77c-11.35 9.16-17.5 23.2-17.5 39.53 0 26.36 17.9 47.74 39.92 47.74 22.04 0 39.93-21.38 39.93-47.74 0-16.32-6.87-30.9-17.5-39.53z" stroke="#000" stroke-opacity="0" stroke-width="6.25" fill="#7fba00"/><path d="M-219.92 1044.53c22.04 0 39.92 21.34 39.92 47.64s-17.88 47.64-39.92 47.64c-22.03 0-39.92-21.34-39.92-47.63 0-26.3 17.9-47.64 39.92-47.64z" stroke="#000" stroke-opacity="0" stroke-width=".01" fill-opacity="0"/><use xlink:href="#B" transform="matrix(1,0,0,1,-290,1149) translate(10.39697265625 15.17578125)"/><use xlink:href="#C" transform="matrix(1,0,0,1,-290,1149) translate(97.09228515625 15.17578125)"/><path d="M-100.08 1040c-11.4 0-20.9 11.35-20.9 25 0 11.36 6.06 20.5 14.04 23.63l-4.55 5.9 5.74 5.9-5.73 6.38 5.74 5.9-5.73 6.84 11.42 12.73 9.5-11.8v-33.23c6.86-4.52 11.42-12.73 11.42-22.7 0-13.65-9.5-24.54-20.92-24.54zm3.8 18.18s-.74 0-1.12.92c0 0-.8.92-1.17.92h-3.4l-.78-.92-.76-1.38v-4.06l.75-.93 1.17-.92h3.4l.78.93.75 1.4v4.05z" stroke="#000" stroke-opacity="0" stroke-width="6.25" fill="#fcd116"/><path d="M-98.17 1090v32.73l3.8-4.54v-29.1c-1.3.46-2.45.73-3.8.9z" stroke="#000" stroke-opacity="0" stroke-width="6.25" fill="#ff8c00" fill-opacity=".4"/><path d="M-100.08 1080.9c6.74.1 12.35-5.66 13.3-13.63h-26.6c.95 7.97 6.57 13.72 13.3 13.64z" stroke="#000" stroke-opacity="0" stroke-width="6.25" fill="#fff" fill-opacity=".4"/><path d="M-77.64 1052.73c1.12 2.7 1.52 4.54 1.92 7.76 7.58 8.55 11.5 19.28 11.4 31.76 0 23.65-16.35 43.2-36.16 43.2-19.72 0-35.7-19.55-35.7-43.2-.07-12.48 3.77-23.2 11.35-31.77l2.32-7.77c-11.35 9.16-17.5 23.2-17.5 39.53 0 26.36 17.9 47.74 39.92 47.74 22.04 0 39.93-21.38 39.93-47.74 0-16.32-6.87-30.9-17.5-39.53z" stroke="#000" stroke-opacity="0" stroke-width="6.25" fill="#7fba00"/><path d="M-99.92 1044.53c22.04 0 39.92 21.34 39.92 47.64s-17.88 47.64-39.92 47.64c-22.03 0-39.92-21.34-39.92-47.63 0-26.3 17.9-47.64 39.92-47.64z" stroke="#000" stroke-opacity="0" stroke-width=".01" fill-opacity="0"/><use xlink:href="#D" transform="matrix(1,0,0,1,-170,1149) translate(15.8154296875 15.17578125)"/><use xlink:href="#C" transform="matrix(1,0,0,1,-170,1149) translate(91.673828125 15.17578125)"/><path d="M327.54 1082.05l-89.35 5.5-289.3 3.35-.02-2 289.24-3.36 89.42-5.5zM867.66 702.5l-.1 8.5-.74 17.97-1.4 16.73-1.98 15.66-2.5 14.72L858 790l-3.4 13.2-3.8 12.6-4.18 12.02-4.57 11.56-4.96 11.13-5.35 10.78-5.74 10.45-6.15 10.16-6.6 9.92-7.06 9.72-7.57 9.54-8.1 9.4-8.73 9.27-9.38 9.2-10.12 9.1-10.96 9.06-11.9 9.04-12.98 9.02-14.22 9.02-15.65 9.03-17.35 9.07-19.32 9.08-21.7 9.1-24.57 9.14-28.1 9.1-32.56 9.08-38.24 8.95-45.84 8.7-33 4.86v-2.03l32.67-4.8 45.74-8.7 38.17-8.93 32.47-9.04 28.03-9.1 24.5-9.1 21.62-9.08 19.24-9.04 17.26-9.02 15.6-9 14.14-8.97 12.9-8.98 11.84-8.98 10.9-9 10.05-9.06 9.32-9.13 8.66-9.2 8.06-9.34 7.5-9.47 7-9.65 6.56-9.86 6.1-10.1 5.72-10.36 5.3-10.7 4.93-11.06 4.55-11.47 4.16-11.96 3.78-12.5 3.37-13.13L859 775.7l2.47-14.63 1.96-15.58 1.4-16.66.74-17.88.1-8.47z" stroke="#5a786f" stroke-width=".05" fill="#5a786f"/><path d="M-45.13 1097.46l-13-7.48 12.82-7.8z" fill="#5a786f"/><path d="M-44.1 1099.2l-16-9.2 15.77-9.57zm-12.07-9.25l10.02 5.77-.14-11.76z" stroke="#5a786f" stroke-width=".05" fill="#5a786f"/><path d="M865.94 701.5h1.73v1.04l-2-.02v-1.04z" fill="#5a786f"/><path d="M865.94 701.48h1.75l-.02 1.08-2.05-.02v-1.1zm-.26 1l1.95.03v-.98h-1.94z" stroke="#5a786f" stroke-width=".05" fill="#5a786f"/><use xlink:href="#E" transform="matrix(1,0,0,1,327.5433132093807,1066.9279792836544) translate(0 13.67578125)"/><use xlink:href="#F" transform="matrix(1,0,0,1,327.5433132093807,1066.9279792836544) translate(86.6953125 13.67578125)"/><path d="M-349.5 1083.96l.06.82.2.76.3.73.4.67.5.6.6.5.67.4.73.3.76.2.82.06h75.6v2h-75.68l-1.06-.08-1.06-.26-1.02-.42-.94-.57-.83-.72-.72-.83-.57-.94-.42-1.02-.26-1.06-.08-1.06V877.32h2zm38-486.96h-32.96l-.82.07-.76.18-.73.3-.67.4-.6.52-.5.6-.4.66-.3.73-.2.76-.06.82v257.28h-2V601.96l.08-1.06.26-1.06.42-1.02.57-.94.72-.83.83-.72.94-.57 1.02-.42 1.06-.26 1.06-.08h33.04z" stroke="#5a786f" stroke-width=".05" fill="#5a786f"/><path d="M-310.5 597h-1.03v-2h1.03z" fill="#5a786f"/><path d="M-310.48 597.02h-1.07V595h1.07zm-1.02-2V597h.98V595z" stroke="#5a786f" stroke-width=".05" fill="#5a786f"/><path d="M-261.83 1090l-12.92 7.64v-15.28z" fill="#5a786f"/><path d="M-259.87 1090l-15.88 9.4v-18.8zm-13.88 5.88l9.95-5.88-9.95-5.88z" stroke="#5a786f" stroke-width=".05" fill="#5a786f"/><use xlink:href="#G" transform="matrix(1,0,0,1,-404.6845226934544,859.3146939972544) translate(0 13.67578125)"/><use xlink:href="#F" transform="matrix(1,0,0,1,-404.6845226934544,859.3146939972544) translate(86.6953125 13.67578125)"/><path d="M127.5 641h-117v-2h117zm190 0h-125v-2h125z" stroke="#5a786f" stroke-width=".05" fill="#5a786f"/><path d="M318.5 641h-1.03v-2h1.03z" fill="#5a786f"/><path d="M318.52 641.02h-1.07V639h1.07zm-1.02-2V641h.98V639z" stroke="#5a786f" stroke-width=".05" fill="#5a786f"/><path d="M16.38 647.64L3.48 640l12.9-7.64z" fill="#5a786f"/><path d="M17.38 649.4L1.5 640l15.88-9.4zM5.43 640l9.95 5.88v-11.76z" stroke="#5a786f" stroke-width=".05" fill="#5a786f"/><g><use xlink:href="#H" transform="matrix(1,0,0,1,127.48924729269768,631) translate(0 13.67578125)"/></g><path d="M919.92 1320c-11.4 0-20.9 11.35-20.9 25 0 11.36 6.06 20.5 14.04 23.63l-4.55 5.9 5.74 5.9-5.73 6.38 5.74 5.9-5.73 6.84 11.42 12.73 9.5-11.8v-33.23c6.86-4.52 11.42-12.73 11.42-22.7 0-13.65-9.5-24.54-20.92-24.54zm3.8 18.18s-.74 0-1.12.92c0 0-.8.92-1.17.92h-3.4l-.78-.92-.76-1.38v-4.06l.75-.93 1.17-.92h3.4l.78.93.75 1.4v4.05z" stroke="#000" stroke-opacity="0" stroke-width="6.25" fill="#fcd116"/><path d="M921.83 1370v32.73l3.8-4.54v-29.1c-1.3.46-2.45.73-3.8.9z" stroke="#000" stroke-opacity="0" stroke-width="6.25" fill="#ff8c00" fill-opacity=".4"/><path d="M919.92 1360.9c6.74.1 12.35-5.66 13.3-13.63h-26.6c.95 7.97 6.57 13.72 13.3 13.64z" stroke="#000" stroke-opacity="0" stroke-width="6.25" fill="#fff" fill-opacity=".4"/><path d="M942.36 1332.73c1.12 2.7 1.52 4.54 1.92 7.76 7.58 8.55 11.5 19.28 11.42 31.76 0 23.65-16.37 43.2-36.18 43.2-19.72 0-35.7-19.55-35.7-43.2-.07-12.48 3.76-23.2 11.35-31.77l2.32-7.77c-11.35 9.16-17.5 23.2-17.5 39.53 0 26.36 17.9 47.74 39.92 47.74 22.04 0 39.93-21.38 39.93-47.74 0-16.32-6.87-30.9-17.5-39.53z" stroke="#000" stroke-opacity="0" stroke-width="6.25" fill="#7fba00"/><path d="M920.08 1324.53c22.04 0 39.92 21.34 39.92 47.64s-17.88 47.64-39.92 47.64c-22.03 0-39.92-21.34-39.92-47.63 0-26.3 17.9-47.64 39.92-47.64z" stroke="#000" stroke-opacity="0" stroke-width=".01" fill-opacity="0"/><g><use xlink:href="#B" transform="matrix(1,0,0,1,850,1429) translate(10.39697265625 15.17578125)"/><use xlink:href="#C" transform="matrix(1,0,0,1,850,1429) translate(97.09228515625 15.17578125)"/></g><path d="M1039.92 1320c-11.4 0-20.9 11.35-20.9 25 0 11.36 6.06 20.5 14.04 23.63l-4.55 5.9 5.74 5.9-5.73 6.38 5.74 5.9-5.73 6.84 11.42 12.73 9.5-11.8v-33.23c6.86-4.52 11.42-12.73 11.42-22.7 0-13.65-9.5-24.54-20.92-24.54zm3.8 18.18s-.74 0-1.12.92c0 0-.8.92-1.17.92h-3.4l-.78-.92-.76-1.38v-4.06l.75-.93 1.17-.92h3.4l.78.93.75 1.4v4.05z" stroke="#000" stroke-opacity="0" stroke-width="6.25" fill="#fcd116"/><path d="M1041.83 1370v32.73l3.8-4.54v-29.1c-1.3.46-2.45.73-3.8.9z" stroke="#000" stroke-opacity="0" stroke-width="6.25" fill="#ff8c00" fill-opacity=".4"/><path d="M1039.92 1360.9c6.74.1 12.35-5.66 13.3-13.63h-26.6c.95 7.97 6.57 13.72 13.3 13.64z" stroke="#000" stroke-opacity="0" stroke-width="6.25" fill="#fff" fill-opacity=".4"/><path d="M1062.36 1332.73c1.12 2.7 1.52 4.54 1.92 7.76 7.58 8.55 11.5 19.28 11.4 31.76 0 23.65-16.35 43.2-36.16 43.2-19.72 0-35.7-19.55-35.7-43.2-.07-12.48 3.76-23.2 11.35-31.77l2.32-7.77c-11.35 9.16-17.5 23.2-17.5 39.53 0 26.36 17.9 47.74 39.92 47.74 22.04 0 39.93-21.38 39.93-47.74 0-16.32-6.87-30.9-17.5-39.53z" stroke="#000" stroke-opacity="0" stroke-width="6.25" fill="#7fba00"/><path d="M1040.08 1324.53c22.04 0 39.92 21.34 39.92 47.64s-17.88 47.64-39.92 47.64c-22.03 0-39.92-21.34-39.92-47.63 0-26.3 17.9-47.64 39.92-47.64z" stroke="#000" stroke-opacity="0" stroke-width=".01" fill-opacity="0"/><g><use xlink:href="#D" transform="matrix(1,0,0,1,970,1429) translate(15.8154296875 15.17578125)"/><use xlink:href="#C" transform="matrix(1,0,0,1,970,1429) translate(91.673828125 15.17578125)"/></g><path d="M880 1126a6 6 0 0 1 6-6h188a6 6 0 0 1 6 6v108a6 6 0 0 1-6 6H886a6 6 0 0 1-6-6z" stroke="#8ca88e" stroke-width="3" fill="#cbd2c6"/><g><use xlink:href="#y" transform="matrix(1,0,0,1,892,1132) translate(0 43.67578125)"/><use xlink:href="#z" transform="matrix(1,0,0,1,892,1132) translate(0 61.67578125)"/></g><path d="M860 1066a6 6 0 0 1 6-6h228a6 6 0 0 1 6 6v48a6 6 0 0 1-6 6H866a6 6 0 0 1-6-6z" stroke="#000" stroke-opacity="0" stroke-width="3" fill="#fff" fill-opacity="0"/><g><use xlink:href="#I" transform="matrix(1,0,0,1,865,1065) translate(47.436523437500014 29.552517361111107)"/><use xlink:href="#J" transform="matrix(1,0,0,1,865,1065) translate(128.5126953125 29.552517361111107)"/></g><path d="M981 1117.5h-2V868.88h2zm0-266.62h-2v-140.4h2z" stroke="#5a786f" stroke-width=".05" fill="#5a786f"/><path d="M981 1118.5h-2v-1.03h2z" fill="#5a786f"/><path d="M981.02 1118.53H979v-1.08H981zm-2-1.03v.97H981v-.97z" stroke="#5a786f" stroke-width=".05" fill="#5a786f"/><path d="M987.64 716.38h-15.28l7.64-12.92z" fill="#5a786f"/><path d="M989.4 717.38h-18.8l9.4-15.88zm-15.28-2h11.76l-5.88-9.95z" stroke="#5a786f" stroke-width=".05" fill="#5a786f"/><g><use xlink:href="#K" transform="matrix(1,0,0,1,920.39697265625,850.8826394130388) translate(0 13.67578125)"/><use xlink:href="#L" transform="matrix(1,0,0,1,920.39697265625,850.8826394130388) translate(32.5107421875 13.67578125)"/><use xlink:href="#M" transform="matrix(1,0,0,1,920.39697265625,850.8826394130388) translate(86.6953125 13.67578125)"/></g><path d="M1232.98 1066.66l.4 21.08-.5 22.1-1.48 22.56-2.4 22.35-3.2 21.56-3.92 20.32-4.44 18.77-4.8 17.1-5.04 15.4-5.15 13.8-5.2 12.28-5.16 10.93-5.1 9.73-5.02 8.65-4.9 7.7-4.78 6.86-4.68 6.13-4.56 5.5-4.45 4.93-4.35 4.43-4.26 4-4.2 3.6-4.1 3.23-4.05 2.93-4 2.63-3.94 2.38-3.9 2.16-3.9 1.92-3.9 1.72-3.87 1.53-3.9 1.35-3.9 1.17-3.93 1-3.97.84-4.03.66-4.1.5-1.35.12-.16-2 1.3-.1 4-.5 3.96-.66 3.9-.82 3.84-.98 3.83-1.15 3.8-1.3 3.8-1.5 3.82-1.7 3.82-1.9 3.84-2.1 3.9-2.33 3.9-2.6 4-2.88 4.04-3.2 4.1-3.53 4.22-3.93 4.3-4.38 4.4-4.86 4.5-5.43 4.62-6.07 4.74-6.8 4.86-7.62 4.96-8.57 5.06-9.65 5.13-10.85 5.16-12.22 5.12-13.7 5-15.34 4.8-17 4.4-18.7 3.9-20.23 3.2-21.48 2.4-22.27 1.45-22.47.5-22.03-.4-21-.9-15.3h2zM1054.56 710.1l.5 7.93.78 7.4 1.02 6.92 1.25 6.55 1.48 6.26 1.67 6 1.9 5.84 2.12 5.7 2.36 5.6 2.63 5.6 2.94 5.62 3.3 5.73 3.76 5.9 4.34 6.25 5.14 6.77 6.35 7.67 8.54 9.46 15.5 15.75 38.97 38.55 10.28 11.4 8.02 9.68 6.77 8.9 5.93 8.54 5.3 8.36 4.82 8.33 4.4 8.44 4.06 8.6 3.74 8.9 3.45 9.28 3.16 9.72.14.5 2.97 10.73 2.86 12.33 2.65 14.06 2.3 15.9.44 4.18h-2.02l-.4-3.92-2.3-15.84-2.63-13.97-2.84-12.23-2.95-10.7-.13-.43-3.14-9.67-3.42-9.18-3.7-8.83-4.02-8.54-4.37-8.36-4.77-8.26-5.26-8.27-5.88-8.46-6.72-8.85-7.98-9.63-10.2-11.32-38.92-38.52-15.56-15.78-8.6-9.53-6.4-7.74-5.2-6.82-4.4-6.3-3.8-6-3.34-5.8-2.98-5.7-2.66-5.65-2.4-5.7-2.14-5.77-1.92-5.9-1.7-6.1-1.5-6.34-1.25-6.64-1.05-7-.78-7.48-.5-8.02-.16-7.66 2-.04z" stroke="#5a786f" stroke-width=".05" fill="#5a786f"/><path d="M1054.4 702.5l-2 .05v-1.05h1.66l.33-.03z" fill="#5a786f"/><path d="M1054.43 702.53l-2.05.05-.02-1.1h1.7l.35-.03zm-.37-1h-1.65l.03 1 1.95-.05-.02-.98z" stroke="#5a786f" stroke-width=".05" fill="#5a786f"/><path d="M1095.3 1376.5l-13.45-6.65 12.3-8.58z" fill="#5a786f"/><path d="M1096.43 1378.17l-16.54-8.17 15.12-10.56zm-12.62-8.47l10.37 5.12-.88-11.73z" stroke="#5a786f" stroke-width=".05" fill="#5a786f"/><g><use xlink:href="#E" transform="matrix(1,0,0,1,1176.1273638730745,1033.4420903969817) translate(0 13.67578125)"/><use xlink:href="#F" transform="matrix(1,0,0,1,1176.1273638730745,1033.4420903969817) translate(86.6953125 13.67578125)"/></g><defs><path fill="#323e45" d="M930-1047c0-180-114-280-297-280H399v561h234c182 2 297-102 297-281zm211 0c0 308-189 448-508 447H399V0H197v-1493h436c317-2 508 140 508 446" id="N"/><path fill="#323e45" d="M915-1147c102 0 174 26 240 70v188c-71-55-140-88-254-88-243 0-354 165-354 420V0H362v-1120h185v219c55-146 178-246 368-246" id="O"/><path fill="#323e45" d="M256-1120h471v977h365V0H178v-143h365v-834H256v-143zm287-436h184v233H543v-233" id="P"/><path fill="#323e45" d="M100-1120h191l325 940 326-940h191L735 0H498" id="Q"/><path fill="#323e45" d="M547-125c229-2 340-186 327-438H641c-189 0-321 55-324 225-3 137 91 215 230 213zm-332-944c167-71 431-115 615-37 106 45 186 120 213 246 11 49 16 123 16 221V0H874v-166C800-42 695 26 508 29c-220 3-378-138-375-355 4-274 199-382 494-381h247c6-204-80-285-282-284-149 1-272 46-377 106v-184" id="R"/><path fill="#323e45" d="M807 0C529-4 430-92 430-369v-608H131v-143h299v-318h184v318h418v143H614v608c2 165 49 222 211 222h207V0H807" id="S"/><path fill="#323e45" d="M651-1147c298 0 466 229 461 541v90H315c-4 242 129 392 365 389 156-2 268-51 389-113v183C949-8 828 27 678 29c-351 3-555-232-555-588 0-338 200-588 528-588zm277 487c-4-201-91-331-285-331-193 0-305 144-321 332" id="T"/><g id="a"><use transform="matrix(0.01746961805555555,0,0,0.01746961805555555,0,0)" xlink:href="#N"/><use transform="matrix(0.01746961805555555,0,0,0.01746961805555555,21.540039062499993,0)" xlink:href="#O"/><use transform="matrix(0.01746961805555555,0,0,0.01746961805555555,43.080078124999986,0)" xlink:href="#P"/><use transform="matrix(0.01746961805555555,0,0,0.01746961805555555,64.62011718749997,0)" xlink:href="#Q"/><use transform="matrix(0.01746961805555555,0,0,0.01746961805555555,86.16015624999997,0)" xlink:href="#R"/><use transform="matrix(0.01746961805555555,0,0,0.01746961805555555,107.70019531249997,0)" xlink:href="#S"/><use transform="matrix(0.01746961805555555,0,0,0.01746961805555555,129.24023437499997,0)" xlink:href="#T"/></g><path fill="#323e45" d="M631-1520c144 2 262 34 381 78v205c-106-67-218-116-371-119-174-3-308 84-309 246 0 66 20 114 54 151 44 48 204 86 310 111 250 58 402 161 402 440 0 301-201 439-516 437-164-1-298-37-424-90v-215c130 81 244 137 424 141 187 4 323-84 323-260 0-181-93-224-262-262-271-61-502-123-504-422-2-273 211-447 492-441" id="U"/><path fill="#323e45" d="M748-127c144 0 233-46 313-121v191C974-6 875 28 748 29c-351 3-553-232-553-588 0-357 202-591 553-588 129 2 222 35 313 86v193c-88-76-165-123-313-123-245 0-359 174-359 432 0 257 115 432 359 432" id="V"/><g id="b"><use transform="matrix(0.01746961805555555,0,0,0.01746961805555555,0,0)" xlink:href="#U"/><use transform="matrix(0.01746961805555555,0,0,0.01746961805555555,21.540039062499993,0)" xlink:href="#T"/><use transform="matrix(0.01746961805555555,0,0,0.01746961805555555,43.080078124999986,0)" xlink:href="#V"/><use transform="matrix(0.01746961805555555,0,0,0.01746961805555555,64.62011718749997,0)" xlink:href="#O"/><use transform="matrix(0.01746961805555555,0,0,0.01746961805555555,86.16015624999997,0)" xlink:href="#T"/><use transform="matrix(0.01746961805555555,0,0,0.01746961805555555,107.70019531249997,0)" xlink:href="#S"/></g><path fill="#323e45" d="M702-135c94 0 156-21 209-64v-401H694v-166h410v643C1006-32 878 29 702 29c-412 0-600-330-600-774 0-244 53-435 160-571s255-204 445-204c145 0 251 43 346 107v207c-93-87-189-150-346-150-131 0-229 50-295 152s-99 255-99 459c0 207 31 361 95 461s162 149 294 149" id="W"/><g id="c"><use transform="matrix(0.01746961805555555,0,0,0.01746961805555555,0,0)" xlink:href="#W"/><use transform="matrix(0.01746961805555555,0,0,0.01746961805555555,21.540039062499993,0)" xlink:href="#P"/><use transform="matrix(0.01746961805555555,0,0,0.01746961805555555,43.080078124999986,0)" xlink:href="#S"/></g><path fill="#323e45" d="M1067-1061c0 204-122 332-307 356 52 13 96 38 133 75s82 111 137 222L1233 0h-217L838-377c-51-107-99-174-138-207-75-63-222-43-354-47V0H143v-1493h416c308-2 507 137 508 432zm-213 0c0-178-111-266-295-266H346v530h221c188 0 287-80 287-264" id="X"/><path fill="#323e45" d="M674 29c-147 0-246-68-299-170v567H190v-1546h185v143c55-101 152-170 299-170 300 0 434 263 434 592 0 325-137 584-434 584zm174-265c87-125 87-521 0-646-48-70-112-109-201-109s-154 38-203 109c-89 127-89 518 0 645 49 71 114 110 203 110s153-39 201-109" id="Y"/><path fill="#323e45" d="M616-991c-93 0-161 39-212 109-92 126-92 520 0 646 52 70 119 109 212 109 94 0 161-39 213-109 93-126 92-520 0-646-52-70-119-109-213-109zM137-559c0-353 146-588 479-588s480 235 480 588c0 355-145 588-480 588-334 0-479-234-479-588" id="Z"/><g id="d"><use transform="matrix(0.01746961805555555,0,0,0.01746961805555555,0,0)" xlink:href="#X"/><use transform="matrix(0.01746961805555555,0,0,0.01746961805555555,21.540039062499993,0)" xlink:href="#T"/><use transform="matrix(0.01746961805555555,0,0,0.01746961805555555,43.080078124999986,0)" xlink:href="#Y"/><use transform="matrix(0.01746961805555555,0,0,0.01746961805555555,64.62011718749997,0)" xlink:href="#Z"/></g><path fill="#323e45" d="M137-1493h203v612h553v-612h203V0H893v-711H340V0H137v-1493" id="aa"/><path fill="#323e45" d="M471-1147c112 0 171 55 205 141 41-85 99-141 213-141 90 0 154 35 191 105s55 200 55 393V0H967v-641c0-158-12-256-27-295-31-81-176-72-206 4-17 42-29 138-29 291V0H537v-641c0-160-10-259-29-296s-53-56-102-56-83 20-102 61-28 138-28 291V0H109v-1120h167v96c38-70 97-123 195-123" id="ab"/><path fill="#323e45" d="M637-1147c132 1 237 25 336 66v180c-92-53-190-92-322-92-145 0-248 35-248 164 0 50 15 87 46 112 23 30 197 67 303 86 166 30 278 123 278 307 0 239-191 356-446 353-140-2-251-31-371-70v-190c114 58 228 103 375 106 145 3 253-56 256-188 3-87-90-149-253-179-210-38-374-93-374-319 0-232 173-338 420-336" id="ac"/><g id="e"><use transform="matrix(0.01746961805555555,0,0,0.01746961805555555,0,0)" xlink:href="#aa"/><use transform="matrix(0.01746961805555555,0,0,0.01746961805555555,21.540039062499993,0)" xlink:href="#Z"/><use transform="matrix(0.01746961805555555,0,0,0.01746961805555555,43.080078124999986,0)" xlink:href="#ab"/><use transform="matrix(0.01746961805555555,0,0,0.01746961805555555,64.62011718749997,0)" xlink:href="#T"/><use transform="matrix(0.01746961805555555,0,0,0.01746961805555555,86.16015624999997,0)" xlink:href="#ac"/><use transform="matrix(0.01746961805555555,0,0,0.01746961805555555,107.70019531249997,0)" xlink:href="#T"/><use transform="matrix(0.01746961805555555,0,0,0.01746961805555555,129.24023437499997,0)" xlink:href="#O"/><use transform="matrix(0.01746961805555555,0,0,0.01746961805555555,150.78027343749997,0)" xlink:href="#Q"/><use transform="matrix(0.01746961805555555,0,0,0.01746961805555555,172.32031249999997,0)" xlink:href="#T"/><use transform="matrix(0.01746961805555555,0,0,0.01746961805555555,193.86035156249997,0)" xlink:href="#O"/></g><path fill="#323e45" d="M233-1493h879v170H436v440h613v170H436V0H233v-1493" id="ad"/><path fill="#323e45" d="M801 0C570 0 455-164 455-406v-1017H160v-144h479v1161c0 147 46 250 180 250h215V0H801" id="ae"/><path fill="#323e45" d="M236-1556h190v901l483-465h224L692-698 1202 0H977L563-578 426-449V0H236v-1556" id="af"/><g id="f"><use transform="matrix(0.01746961805555555,0,0,0.01746961805555555,0,0)" xlink:href="#ad"/><use transform="matrix(0.01746961805555555,0,0,0.01746961805555555,21.540039062499993,0)" xlink:href="#ae"/><use transform="matrix(0.01746961805555555,0,0,0.01746961805555555,43.080078124999986,0)" xlink:href="#R"/><use transform="matrix(0.01746961805555555,0,0,0.01746961805555555,64.62011718749997,0)" xlink:href="#af"/><use transform="matrix(0.01746961805555555,0,0,0.01746961805555555,86.16015624999997,0)" xlink:href="#T"/></g><path fill="#323e45" d="M850-236c87-126 87-521 0-646-49-70-112-109-201-109s-154 38-203 109c-89 127-89 518 0 645 49 71 114 110 203 110s152-39 201-109zM676 29c-146 0-244-69-299-170V0H193v-1556h184v579c53-101 154-170 301-170 297 0 434 260 434 584 0 329-136 592-436 592" id="ag"/><path fill="#323e45" d="M1153-1120C1010-750 884-433 741-52c-66 176-110 283-133 322-55 94-138 156-276 156H184V272c97 0 188 7 236-47 29-33 70-112 117-243L104-1120h195l332 876 327-876h195" id="ah"/><g id="g"><use transform="matrix(0.01746961805555555,0,0,0.01746961805555555,0,0)" xlink:href="#X"/><use transform="matrix(0.01746961805555555,0,0,0.01746961805555555,21.540039062499993,0)" xlink:href="#R"/><use transform="matrix(0.01746961805555555,0,0,0.01746961805555555,43.080078124999986,0)" xlink:href="#ac"/><use transform="matrix(0.01746961805555555,0,0,0.01746961805555555,64.62011718749997,0)" xlink:href="#Y"/><use transform="matrix(0.01746961805555555,0,0,0.01746961805555555,86.16015624999997,0)" xlink:href="#ag"/><use transform="matrix(0.01746961805555555,0,0,0.01746961805555555,107.70019531249997,0)" xlink:href="#T"/><use transform="matrix(0.01746961805555555,0,0,0.01746961805555555,129.24023437499997,0)" xlink:href="#O"/><use transform="matrix(0.01746961805555555,0,0,0.01746961805555555,150.78027343749997,0)" xlink:href="#O"/><use transform="matrix(0.01746961805555555,0,0,0.01746961805555555,172.32031249999997,0)" xlink:href="#ah"/></g><g id="h"><use transform="matrix(0.01746961805555555,0,0,0.01746961805555555,0,0)" xlink:href="#N"/><use transform="matrix(0.01746961805555555,0,0,0.01746961805555555,21.540039062499993,0)" xlink:href="#P"/></g><path fill="#323e45" d="M139-1493h256L899-264v-1229h195V0H838L334-1229V0H139v-1493" id="ai"/><path fill="#323e45" d="M559-1147c146 0 246 68 299 170v-579h184V0H858v-141C803-40 706 29 559 29c-300 0-436-264-436-592 0-325 139-584 436-584zM385-882c-81 129-87 521 0 646 49 70 112 109 201 109s152-39 202-110c89-127 83-514 0-645-88-139-315-140-403 0" id="aj"/><g id="i"><use transform="matrix(0.01746961805555555,0,0,0.01746961805555555,0,0)" xlink:href="#ai"/><use transform="matrix(0.01746961805555555,0,0,0.01746961805555555,21.540039062499993,0)" xlink:href="#Z"/><use transform="matrix(0.01746961805555555,0,0,0.01746961805555555,43.080078124999986,0)" xlink:href="#aj"/><use transform="matrix(0.01746961805555555,0,0,0.01746961805555555,64.62011718749997,0)" xlink:href="#T"/></g><path fill="#323e45" d="M147-573v-920h203v1012c-18 236 56 346 266 346 147 0 240-59 261-190 7-42 6-176 6-248v-920h202v920c-4 268-7 369-127 485C878-11 767 29 616 29c-229 0-384-97-440-277-20-65-29-174-29-325" id="ak"/><path fill="#323e45" d="M426-643c0-377 131-645 299-911h160c-153 264-264 539-264 911 0 371 112 648 264 913H725C557 0 426-263 426-643" id="al"/><path fill="#323e45" d="M86-1493h270l258 760 260-760h271V0H958v-1319L692-532H539l-267-787V0H86v-1493" id="am"/><path fill="#323e45" d="M612-643c0-370-112-648-264-911h160c168 267 299 533 299 911 0 379-131 646-299 913H348C499 3 612-272 612-643" id="an"/><g id="j"><use transform="matrix(0.01746961805555555,0,0,0.01746961805555555,0,0)" xlink:href="#ak"/><use transform="matrix(0.01746961805555555,0,0,0.01746961805555555,21.540039062499993,0)" xlink:href="#ac"/><use transform="matrix(0.01746961805555555,0,0,0.01746961805555555,43.080078124999986,0)" xlink:href="#T"/><use transform="matrix(0.01746961805555555,0,0,0.01746961805555555,64.62011718749997,0)" xlink:href="#O"/><use transform="matrix(0.01746961805555555,0,0,0.01746961805555555,86.16015624999997,0)" xlink:href="#al"/><use transform="matrix(0.01746961805555555,0,0,0.01746961805555555,107.70019531249997,0)" xlink:href="#am"/><use transform="matrix(0.01746961805555555,0,0,0.01746961805555555,129.24023437499997,0)" xlink:href="#T"/><use transform="matrix(0.01746961805555555,0,0,0.01746961805555555,150.78027343749997,0)" xlink:href="#an"/></g><path fill="#323e45" d="M356-643h521v164H356v-164" id="ao"/><path fill="#323e45" d="M934-430c0-206-112-282-326-283H369v547h239c220-2 326-58 326-264zm-53-684c0-168-96-213-277-213H369v450h235c186-1 277-59 277-237zm256 704C1133-113 928 1 608 0H166v-1493h442c280-3 477 118 477 379 0 189-93 290-262 315 190 26 317 174 314 389" id="ap"/><path fill="#323e45" d="M197-1493h886v170H399v442h654v170H399v541h703V0H197v-1493" id="aq"/><path fill="#323e45" d="M201-1493h829v170H717v1153h313V0H201v-170h313v-1153H201v-170" id="ar"/><g id="k"><use transform="matrix(0.0087890625,0,0,0.0087890625,0,0)" xlink:href="#ao"/><use transform="matrix(0.0087890625,0,0,0.0087890625,10.8369140625,0)" xlink:href="#ao"/><use transform="matrix(0.0087890625,0,0,0.0087890625,21.673828125,0)" xlink:href="#ap"/><use transform="matrix(0.0087890625,0,0,0.0087890625,32.5107421875,0)" xlink:href="#aq"/><use transform="matrix(0.0087890625,0,0,0.0087890625,43.34765625,0)" xlink:href="#W"/><use transform="matrix(0.0087890625,0,0,0.0087890625,54.1845703125,0)" xlink:href="#ar"/><use transform="matrix(0.0087890625,0,0,0.0087890625,65.021484375,0)" xlink:href="#ai"/></g><path fill="#323e45" d="M616-1315L403-551h426zm-122-178h245L1196 0H987L877-389H354L246 0H37" id="as"/><g id="l"><use transform="matrix(0.0087890625,0,0,0.0087890625,0,0)" xlink:href="#as"/><use transform="matrix(0.0087890625,0,0,0.0087890625,10.8369140625,0)" xlink:href="#W"/><use transform="matrix(0.0087890625,0,0,0.0087890625,21.673828125,0)" xlink:href="#aq"/></g><g id="m"><use transform="matrix(0.0087890625,0,0,0.0087890625,0,0)" xlink:href="#ao"/><use transform="matrix(0.0087890625,0,0,0.0087890625,10.8369140625,0)" xlink:href="#ao"/><use transform="matrix(0.0087890625,0,0,0.0087890625,21.673828125,0)" xlink:href="#ao"/></g><path fill="#323e45" d="M86-1493h217l328 563 334-563h217L735-791 1214 0H997L631-643 236 0H18l500-791" id="at"/><path fill="#323e45" d="M489-305h252V0H489v-305" id="au"/><g id="n"><use transform="matrix(0.0087890625,0,0,0.0087890625,0,0)" xlink:href="#as"/><use transform="matrix(0.0087890625,0,0,0.0087890625,10.8369140625,0)" xlink:href="#as"/><use transform="matrix(0.0087890625,0,0,0.0087890625,21.673828125,0)" xlink:href="#as"/><use transform="matrix(0.0087890625,0,0,0.0087890625,32.5107421875,0)" xlink:href="#at"/><use transform="matrix(0.0087890625,0,0,0.0087890625,43.34765625,0)" xlink:href="#at"/><use transform="matrix(0.0087890625,0,0,0.0087890625,54.1845703125,0)" xlink:href="#at"/><use transform="matrix(0.0087890625,0,0,0.0087890625,65.021484375,0)" xlink:href="#at"/><use transform="matrix(0.0087890625,0,0,0.0087890625,75.8583984375,0)" xlink:href="#au"/><use transform="matrix(0.0087890625,0,0,0.0087890625,86.6953125,0)" xlink:href="#au"/><use transform="matrix(0.0087890625,0,0,0.0087890625,97.5322265625,0)" xlink:href="#au"/></g><g id="o"><use transform="matrix(0.0087890625,0,0,0.0087890625,0,0)" xlink:href="#au"/><use transform="matrix(0.0087890625,0,0,0.0087890625,10.8369140625,0)" xlink:href="#au"/><use transform="matrix(0.0087890625,0,0,0.0087890625,21.673828125,0)" xlink:href="#au"/></g><g id="p"><use transform="matrix(0.0087890625,0,0,0.0087890625,0,0)" xlink:href="#au"/><use transform="matrix(0.0087890625,0,0,0.0087890625,10.8369140625,0)" xlink:href="#au"/><use transform="matrix(0.0087890625,0,0,0.0087890625,21.673828125,0)" xlink:href="#au"/></g><g id="q"><use transform="matrix(0.0087890625,0,0,0.0087890625,0,0)" xlink:href="#ap"/><use transform="matrix(0.0087890625,0,0,0.0087890625,10.8369140625,0)" xlink:href="#ap"/><use transform="matrix(0.0087890625,0,0,0.0087890625,21.673828125,0)" xlink:href="#ap"/><use transform="matrix(0.0087890625,0,0,0.0087890625,32.5107421875,0)" xlink:href="#ap"/><use transform="matrix(0.0087890625,0,0,0.0087890625,43.34765625,0)" xlink:href="#ap"/><use transform="matrix(0.0087890625,0,0,0.0087890625,54.1845703125,0)" xlink:href="#ap"/></g><path fill="#323e45" d="M893-745c0-411-75-571-457-582h-96v1161h96c379-11 457-171 457-579zm213 0C1106-253 917-4 440 0H137v-1493h303c477 4 666 255 666 748" id="av"/><g id="r"><use transform="matrix(0.0087890625,0,0,0.0087890625,0,0)" xlink:href="#ao"/><use transform="matrix(0.0087890625,0,0,0.0087890625,10.8369140625,0)" xlink:href="#ao"/><use transform="matrix(0.0087890625,0,0,0.0087890625,21.673828125,0)" xlink:href="#ao"/><use transform="matrix(0.0087890625,0,0,0.0087890625,32.5107421875,0)" xlink:href="#aq"/><use transform="matrix(0.0087890625,0,0,0.0087890625,43.34765625,0)" xlink:href="#ai"/><use transform="matrix(0.0087890625,0,0,0.0087890625,54.1845703125,0)" xlink:href="#av"/></g><g id="s"><use transform="matrix(0.0087890625,0,0,0.0087890625,0,0)" xlink:href="#ao"/><use transform="matrix(0.0087890625,0,0,0.0087890625,10.8369140625,0)" xlink:href="#ao"/><use transform="matrix(0.0087890625,0,0,0.0087890625,21.673828125,0)" xlink:href="#ao"/><use transform="matrix(0.0087890625,0,0,0.0087890625,32.5107421875,0)" xlink:href="#ao"/></g><path fill="#323e45" d="M1098 0H168v-1493h930v260H463v322h575v260H463v391h635V0" id="aw"/><path fill="#323e45" d="M750-1147c234 0 322 167 321 420V0H780v-682c-2-141-23-227-147-227-123 0-170 126-170 268V0H172v-1120h291v168c37-116 138-195 287-195" id="ax"/><path fill="#323e45" d="M762-211c132 0 221-47 299-115v269C968-3 859 29 719 29c-350 3-551-232-551-588 0-357 203-592 553-590 139 1 241 34 340 86v268c-75-64-172-114-299-114-201 0-297 140-297 350s96 348 297 348" id="ay"/><path fill="#323e45" d="M924-1147c90 1 165 23 227 57v279c-80-87-287-118-417-55-120 58-150 157-150 350V0H291v-1120h293v174c52-120 173-201 340-201" id="az"/><path fill="#323e45" d="M711 121c-39 105-86 183-141 231s-122 72-201 72H127V201c88-1 207 8 251-31 36-18 84-129 107-201L59-1120h308l256 727 245-727h308" id="aA"/><path fill="#323e45" d="M729 29c-146 0-225-81-287-187v584H150v-1546h292v168c54-115 143-195 297-195 128 0 223 55 298 154 137 182 138 692-1 870C960-25 862 29 729 29zm67-336c66-112 66-396 0-508-70-119-228-118-299 0-67 112-67 396 0 508 71 118 229 119 299 0" id="aB"/><path fill="#323e45" d="M827 0C501-7 397-66 397-379v-516H111v-225h286v-318h293v318h383v225H690v530c2 106 48 140 158 140h225V0H827" id="aC"/><path fill="#323e45" d="M698-203c169-2 281-50 404-121v269C974-3 842 28 670 29 296 31 92-181 92-555c0-348 195-592 533-592s528 218 524 563v119H390c3 185 114 264 308 262zm156-482c-2-151-77-235-229-235-144 1-220 97-232 236" id="aD"/><path fill="#323e45" d="M504-1147c146 0 225 81 287 186v-595h292V0H791v-166C735-52 649 29 494 29c-128 0-223-55-298-154-137-182-137-692 2-870 76-98 173-152 306-152zm-67 336c-66 112-66 396 0 508 70 119 228 118 299 0 67-112 67-396 0-508-71-118-229-119-299 0" id="aE"/><g id="t"><use transform="matrix(0.010959201388888886,0,0,0.010959201388888886,0,0)" xlink:href="#aw"/><use transform="matrix(0.010959201388888886,0,0,0.010959201388888886,13.512695312499996,0)" xlink:href="#ax"/><use transform="matrix(0.010959201388888886,0,0,0.010959201388888886,27.025390624999993,0)" xlink:href="#ay"/><use transform="matrix(0.010959201388888886,0,0,0.010959201388888886,40.538085937499986,0)" xlink:href="#az"/><use transform="matrix(0.010959201388888886,0,0,0.010959201388888886,54.050781249999986,0)" xlink:href="#aA"/><use transform="matrix(0.010959201388888886,0,0,0.010959201388888886,67.56347656249999,0)" xlink:href="#aB"/><use transform="matrix(0.010959201388888886,0,0,0.010959201388888886,81.07617187499999,0)" xlink:href="#aC"/><use transform="matrix(0.010959201388888886,0,0,0.010959201388888886,94.58886718749997,0)" xlink:href="#aD"/><use transform="matrix(0.010959201388888886,0,0,0.010959201388888886,108.1015625,0)" xlink:href="#aE"/></g><path fill="#323e45" d="M1112-1233H477v322h578v260H477V0H182v-1493h930v260" id="aF"/><path fill="#323e45" d="M221-1120h580v895h364V0H143v-225h365v-670H221v-225zm287-545h293v342H508v-342" id="aG"/><path fill="#323e45" d="M778 0C477-5 387-150 387-467v-864H90v-225h590v1089c3 161 32 242 180 242h234V0H778" id="aH"/><g id="u"><use transform="matrix(0.010959201388888886,0,0,0.010959201388888886,0,0)" xlink:href="#aF"/><use transform="matrix(0.010959201388888886,0,0,0.010959201388888886,13.512695312499996,0)" xlink:href="#aG"/><use transform="matrix(0.010959201388888886,0,0,0.010959201388888886,27.025390624999993,0)" xlink:href="#aH"/><use transform="matrix(0.010959201388888886,0,0,0.010959201388888886,40.538085937499986,0)" xlink:href="#aD"/></g><path fill="#323e45" d="M494-1120c-16-286 77-439 348-436h221v153H854c-136 2-174 46-176 184v99h385v143H678V0H494v-977H195v-143h299" id="aI"/><path fill="#323e45" d="M711-1147c253 0 340 178 340 453V0H866v-694c-1-183-51-293-219-293-189 0-268 148-268 354V0H195v-1120h184v168c60-118 165-195 332-195" id="aJ"/><path fill="#323e45" d="M1118-1120L717-584 1157 0H944L616-449 289 0H76l440-584-401-536h204l297 405 295-405h207" id="aK"/><g id="v"><use transform="matrix(0.0087890625,0,0,0.0087890625,0,0)" xlink:href="#aI"/><use transform="matrix(0.0087890625,0,0,0.0087890625,10.8369140625,0)" xlink:href="#ae"/><use transform="matrix(0.0087890625,0,0,0.0087890625,21.673828125,0)" xlink:href="#R"/><use transform="matrix(0.0087890625,0,0,0.0087890625,32.5107421875,0)" xlink:href="#af"/><use transform="matrix(0.0087890625,0,0,0.0087890625,43.34765625,0)" xlink:href="#T"/><use transform="matrix(0.0087890625,0,0,0.0087890625,54.1845703125,0)" xlink:href="#au"/><use transform="matrix(0.0087890625,0,0,0.0087890625,65.021484375,0)" xlink:href="#aJ"/><use transform="matrix(0.0087890625,0,0,0.0087890625,75.8583984375,0)" xlink:href="#P"/><use transform="matrix(0.0087890625,0,0,0.0087890625,86.6953125,0)" xlink:href="#aK"/></g><path fill="#323e45" d="M535 29c-255 0-340-177-340-453v-694h184v694c1 183 52 293 219 293 191 0 268-148 268-354v-633h185V0H866v-168C807-50 701 29 535 29" id="aL"/><g id="w"><use transform="matrix(0.0087890625,0,0,0.0087890625,0,0)" xlink:href="#P"/><use transform="matrix(0.0087890625,0,0,0.0087890625,10.8369140625,0)" xlink:href="#aJ"/><use transform="matrix(0.0087890625,0,0,0.0087890625,21.673828125,0)" xlink:href="#Y"/><use transform="matrix(0.0087890625,0,0,0.0087890625,32.5107421875,0)" xlink:href="#aL"/><use transform="matrix(0.0087890625,0,0,0.0087890625,43.34765625,0)" xlink:href="#S"/></g><path fill="#323e45" d="M573-174c177-3 250-155 244-352H700c-189 5-288 22-294 186-4 100 66 168 167 166zm41-973c376 0 494 126 494 508V0H817v-125C754-35 643 28 498 29 250 32 90-110 94-354c5-293 200-382 520-383h203c15-144-66-195-203-193-171 2-284 44-409 111v-250c121-50 246-78 409-78" id="aM"/><path fill="#323e45" d="M596-246c145 0 207-164 207-332s-62-331-207-331c-144 0-205 163-205 331 0 169 60 332 205 332zm-82-903c141 0 238 73 289 172v-143h293V-84c-3 364-151 508-516 508-138 0-252-21-365-55V100c99 55 205 90 346 90 166 0 241-75 242-241v-121C749-72 662-14 516-14 235-14 98-265 98-571c0-177 38-318 113-422s176-156 303-156" id="aN"/><g id="x"><use transform="matrix(0.010959201388888885,0,0,0.010959201388888885,0,0)" xlink:href="#aM"/><use transform="matrix(0.010959201388888885,0,0,0.010959201388888885,13.512695312499995,0)" xlink:href="#aN"/><use transform="matrix(0.010959201388888885,0,0,0.010959201388888885,27.02539062499999,0)" xlink:href="#aD"/></g><path fill="#323e45" d="M1024 403v80H0v-80h1024" id="aO"/><path fill="#323e45" d="M47-1493h1139v170H719V0H516v-1323H47v-170" id="aP"/><path fill="#323e45" d="M838-276c84-151 84-788 0-939-51-91-119-141-222-141-102 0-169 50-220 141-84 151-84 788 0 939 51 91 118 141 220 141 103 0 171-50 222-141zm278-469c0 260-42 454-124 582S785 29 616 29 322-35 240-162 117-484 117-745s41-455 123-583 208-192 376-192c169 0 294 64 376 192s124 322 124 583" id="aQ"/><path fill="#323e45" d="M137-1493h203v664l631-664h237L627-883 1225 0H981L494-748 340-584V0H137v-1493" id="aR"/><path fill="#323e45" d="M88-524h1057v172H88v-172zm0-406h1057v170H88v-170" id="aS"/><g id="y"><use transform="matrix(0.0087890625,0,0,0.0087890625,0,0)" xlink:href="#as"/><use transform="matrix(0.0087890625,0,0,0.0087890625,10.8369140625,0)" xlink:href="#N"/><use transform="matrix(0.0087890625,0,0,0.0087890625,21.673828125,0)" xlink:href="#ar"/><use transform="matrix(0.0087890625,0,0,0.0087890625,32.5107421875,0)" xlink:href="#aO"/><use transform="matrix(0.0087890625,0,0,0.0087890625,43.34765625,0)" xlink:href="#aP"/><use transform="matrix(0.0087890625,0,0,0.0087890625,54.1845703125,0)" xlink:href="#aQ"/><use transform="matrix(0.0087890625,0,0,0.0087890625,65.021484375,0)" xlink:href="#aR"/><use transform="matrix(0.0087890625,0,0,0.0087890625,75.8583984375,0)" xlink:href="#aq"/><use transform="matrix(0.0087890625,0,0,0.0087890625,86.6953125,0)" xlink:href="#ai"/><use transform="matrix(0.0087890625,0,0,0.0087890625,97.5322265625,0)" xlink:href="#aS"/><use transform="matrix(0.0087890625,0,0,0.0087890625,108.369140625,0)" xlink:href="#as"/><use transform="matrix(0.0087890625,0,0,0.0087890625,119.2060546875,0)" xlink:href="#as"/><use transform="matrix(0.0087890625,0,0,0.0087890625,130.04296875,0)" xlink:href="#as"/></g><path fill="#323e45" d="M616-170l351-1323h209L739 0H494L57-1493h209" id="aT"/><path fill="#323e45" d="M215-1493h203v1323h721V0H215v-1493" id="aU"/><g id="z"><use transform="matrix(0.0087890625,0,0,0.0087890625,0,0)" xlink:href="#ad"/><use transform="matrix(0.0087890625,0,0,0.0087890625,10.8369140625,0)" xlink:href="#aQ"/><use transform="matrix(0.0087890625,0,0,0.0087890625,21.673828125,0)" xlink:href="#aQ"/><use transform="matrix(0.0087890625,0,0,0.0087890625,32.5107421875,0)" xlink:href="#aO"/><use transform="matrix(0.0087890625,0,0,0.0087890625,43.34765625,0)" xlink:href="#aT"/><use transform="matrix(0.0087890625,0,0,0.0087890625,54.1845703125,0)" xlink:href="#as"/><use transform="matrix(0.0087890625,0,0,0.0087890625,65.021484375,0)" xlink:href="#aU"/><use transform="matrix(0.0087890625,0,0,0.0087890625,75.8583984375,0)" xlink:href="#ak"/><use transform="matrix(0.0087890625,0,0,0.0087890625,86.6953125,0)" xlink:href="#aq"/><use transform="matrix(0.0087890625,0,0,0.0087890625,97.5322265625,0)" xlink:href="#aS"/><use transform="matrix(0.0087890625,0,0,0.0087890625,108.369140625,0)" xlink:href="#ap"/><use transform="matrix(0.0087890625,0,0,0.0087890625,119.2060546875,0)" xlink:href="#ap"/><use transform="matrix(0.0087890625,0,0,0.0087890625,130.04296875,0)" xlink:href="#ap"/></g><g id="A"><use transform="matrix(0.0087890625,0,0,0.0087890625,0,0)" xlink:href="#aj"/><use transform="matrix(0.0087890625,0,0,0.0087890625,10.8369140625,0)" xlink:href="#T"/><use transform="matrix(0.0087890625,0,0,0.0087890625,21.673828125,0)" xlink:href="#V"/><use transform="matrix(0.0087890625,0,0,0.0087890625,32.5107421875,0)" xlink:href="#O"/><use transform="matrix(0.0087890625,0,0,0.0087890625,43.34765625,0)" xlink:href="#ah"/><use transform="matrix(0.0087890625,0,0,0.0087890625,54.1845703125,0)" xlink:href="#Y"/><use transform="matrix(0.0087890625,0,0,0.0087890625,65.021484375,0)" xlink:href="#S"/></g><g id="B"><use transform="matrix(0.0087890625,0,0,0.0087890625,0,0)" xlink:href="#Y"/><use transform="matrix(0.0087890625,0,0,0.0087890625,10.8369140625,0)" xlink:href="#O"/><use transform="matrix(0.0087890625,0,0,0.0087890625,21.673828125,0)" xlink:href="#P"/><use transform="matrix(0.0087890625,0,0,0.0087890625,32.5107421875,0)" xlink:href="#Q"/><use transform="matrix(0.0087890625,0,0,0.0087890625,43.34765625,0)" xlink:href="#R"/><use transform="matrix(0.0087890625,0,0,0.0087890625,54.1845703125,0)" xlink:href="#S"/><use transform="matrix(0.0087890625,0,0,0.0087890625,65.021484375,0)" xlink:href="#T"/></g><g id="C"><use transform="matrix(0.0087890625,0,0,0.0087890625,0,0)" xlink:href="#af"/><use transform="matrix(0.0087890625,0,0,0.0087890625,10.8369140625,0)" xlink:href="#T"/><use transform="matrix(0.0087890625,0,0,0.0087890625,21.673828125,0)" xlink:href="#ah"/></g><g id="D"><use transform="matrix(0.0087890625,0,0,0.0087890625,0,0)" xlink:href="#Y"/><use transform="matrix(0.0087890625,0,0,0.0087890625,10.8369140625,0)" xlink:href="#aL"/><use transform="matrix(0.0087890625,0,0,0.0087890625,21.673828125,0)" xlink:href="#ag"/><use transform="matrix(0.0087890625,0,0,0.0087890625,32.5107421875,0)" xlink:href="#ae"/><use transform="matrix(0.0087890625,0,0,0.0087890625,43.34765625,0)" xlink:href="#P"/><use transform="matrix(0.0087890625,0,0,0.0087890625,54.1845703125,0)" xlink:href="#V"/></g><g id="E"><use transform="matrix(0.0087890625,0,0,0.0087890625,0,0)" xlink:href="#T"/><use transform="matrix(0.0087890625,0,0,0.0087890625,10.8369140625,0)" xlink:href="#aJ"/><use transform="matrix(0.0087890625,0,0,0.0087890625,21.673828125,0)" xlink:href="#V"/><use transform="matrix(0.0087890625,0,0,0.0087890625,32.5107421875,0)" xlink:href="#O"/><use transform="matrix(0.0087890625,0,0,0.0087890625,43.34765625,0)" xlink:href="#ah"/><use transform="matrix(0.0087890625,0,0,0.0087890625,54.1845703125,0)" xlink:href="#Y"/><use transform="matrix(0.0087890625,0,0,0.0087890625,65.021484375,0)" xlink:href="#S"/></g><g id="F"><use transform="matrix(0.0087890625,0,0,0.0087890625,0,0)" xlink:href="#ag"/><use transform="matrix(0.0087890625,0,0,0.0087890625,10.8369140625,0)" xlink:href="#ah"/></g><g id="G"><use transform="matrix(0.0087890625,0,0,0.0087890625,0,0)" xlink:href="#aj"/><use transform="matrix(0.0087890625,0,0,0.0087890625,10.8369140625,0)" xlink:href="#T"/><use transform="matrix(0.0087890625,0,0,0.0087890625,21.673828125,0)" xlink:href="#V"/><use transform="matrix(0.0087890625,0,0,0.0087890625,32.5107421875,0)" xlink:href="#O"/><use transform="matrix(0.0087890625,0,0,0.0087890625,43.34765625,0)" xlink:href="#ah"/><use transform="matrix(0.0087890625,0,0,0.0087890625,54.1845703125,0)" xlink:href="#Y"/><use transform="matrix(0.0087890625,0,0,0.0087890625,65.021484375,0)" xlink:href="#S"/></g><g id="H"><use transform="matrix(0.0087890625,0,0,0.0087890625,0,0)" xlink:href="#aj"/><use transform="matrix(0.0087890625,0,0,0.0087890625,10.8369140625,0)" xlink:href="#T"/><use transform="matrix(0.0087890625,0,0,0.0087890625,21.673828125,0)" xlink:href="#Y"/><use transform="matrix(0.0087890625,0,0,0.0087890625,32.5107421875,0)" xlink:href="#ae"/><use transform="matrix(0.0087890625,0,0,0.0087890625,43.34765625,0)" xlink:href="#Z"/><use transform="matrix(0.0087890625,0,0,0.0087890625,54.1845703125,0)" xlink:href="#ah"/></g><path fill="#323e45" d="M840-1026c0-175-78-216-262-219H457v438h121c184-3 262-44 262-219zm307 0c0 361-195 464-580 467H457V0H162v-1493h405c385 4 580 106 580 467" id="aV"/><g id="I"><use transform="matrix(0.010959201388888886,0,0,0.010959201388888886,0,0)" xlink:href="#aV"/><use transform="matrix(0.010959201388888886,0,0,0.010959201388888886,13.512695312499996,0)" xlink:href="#aH"/><use transform="matrix(0.010959201388888886,0,0,0.010959201388888886,27.025390624999993,0)" xlink:href="#aM"/><use transform="matrix(0.010959201388888886,0,0,0.010959201388888886,40.538085937499986,0)" xlink:href="#aG"/><use transform="matrix(0.010959201388888886,0,0,0.010959201388888886,54.050781249999986,0)" xlink:href="#ax"/></g><path fill="#323e45" d="M764 0H469v-1235H90v-258h1053v258H764V0" id="aW"/><path fill="#323e45" d="M1145-1120L768-584 1178 0H836L616-377 397 0H55l414-584-381-536h342l186 334 187-334h342" id="aX"/><g id="J"><use transform="matrix(0.010959201388888886,0,0,0.010959201388888886,0,0)" xlink:href="#aW"/><use transform="matrix(0.010959201388888886,0,0,0.010959201388888886,13.512695312499996,0)" xlink:href="#aD"/><use transform="matrix(0.010959201388888886,0,0,0.010959201388888886,27.025390624999993,0)" xlink:href="#aX"/><use transform="matrix(0.010959201388888886,0,0,0.010959201388888886,40.538085937499986,0)" xlink:href="#aC"/></g><g id="K"><use transform="matrix(0.0087890625,0,0,0.0087890625,0,0)" xlink:href="#ag"/><use transform="matrix(0.0087890625,0,0,0.0087890625,10.8369140625,0)" xlink:href="#ah"/></g><path fill="#323e45" d="M790-254c87-126 81-501 0-630-88-140-313-134-402 0-86 129-92 505 0 630 51 70 117 109 208 109 85 0 146-39 194-109zm-237-893c158 0 247 65 305 176v-145h184V-72c1 325-152 512-469 512-118-1-228-23-325-55V203c107 49 197 90 325 90 215 0 286-119 285-346v-125C804-62 712 8 553 8 267 8 123-257 123-569c0-313 143-578 430-578" id="aY"/><g id="L"><use transform="matrix(0.0087890625,0,0,0.0087890625,0,0)" xlink:href="#O"/><use transform="matrix(0.0087890625,0,0,0.0087890625,10.8369140625,0)" xlink:href="#R"/><use transform="matrix(0.0087890625,0,0,0.0087890625,21.673828125,0)" xlink:href="#aY"/><use transform="matrix(0.0087890625,0,0,0.0087890625,32.5107421875,0)" xlink:href="#T"/></g><g id="M"><use transform="matrix(0.0087890625,0,0,0.0087890625,0,0)" xlink:href="#V"/><use transform="matrix(0.0087890625,0,0,0.0087890625,10.8369140625,0)" xlink:href="#ae"/><use transform="matrix(0.0087890625,0,0,0.0087890625,21.673828125,0)" xlink:href="#P"/></g></defs></g></svg>