<svg xmlns="http://www.w3.org/2000/svg" xmlns:xlink="http://www.w3.org/1999/xlink" xmlns:lucid="lucid" width="1127.92" height="800"><g transform="translate(-460 -100)" lucid:page-tab-id="0_0"><path d="M480 126a6 6 0 0 1 6-6h108a6 6 0 0 1 6 6v88a6 6 0 0 1-6 6H486a6 6 0 0 1-6-6z" stroke="#ef9c49" stroke-width="2" fill="#fffada"/><use xlink:href="#a" transform="matrix(1,0,0,1,480,120) translate(16.07999999999999 55.025)"/><path d="M1262.92 222v9.75m0 9.76v19.52m0 9.75v19.5m0 9.77v19.5m0 9.76v19.5m0 9.76v19.5m0 9.76v19.5m0 9.77v19.5m0 9.75v19.5m0 9.76v19.52m0 9.76v19.5m0 9.76v19.5m0 9.76v19.5m0 9.77v19.5m0 9.76v19.5m0 9.76v19.5m0 9.76v19.5m0 9.76v19.5m0 9.76v19.5m0 9.77V778" stroke="#ef9c49" stroke-width="2" fill="none"/><path d="M1263.92 222.03h-2V221h2zM1263.92 779h-2v-1.03h2z" stroke="#ef9c49" stroke-width=".05" fill="#ef9c49"/><path d="M1021.46 222v9.75m0 9.76v19.52m0 9.75v19.5m0 9.77v19.5m0 9.76v19.5m0 9.76v19.5m0 9.76v19.5m0 9.77v19.5m0 9.75v19.5m0 9.76v19.52m0 9.76v19.5m0 9.76v19.5m0 9.76v19.5m0 9.77v19.5m0 9.76v19.5m0 9.76v19.5m0 9.76v19.5m0 9.76v19.5m0 9.76v19.5m0 9.77V778" stroke="#ef9c49" stroke-width="2" fill="none"/><path d="M1022.46 222.03h-2V221h2zM1022.46 779h-2v-1.03h2z" stroke="#ef9c49" stroke-width=".05" fill="#ef9c49"/><path d="M540 222v9.75m0 9.76v19.52m0 9.75v19.5m0 9.77v19.5m0 9.76v19.5m0 9.76v19.5m0 9.76v19.5m0 9.77v19.5m0 9.75v19.5m0 9.76v19.52m0 9.76v19.5m0 9.76v19.5m0 9.76v19.5m0 9.77v19.5m0 9.76v19.5m0 9.76v19.5m0 9.76v19.5m0 9.76v19.5m0 9.76v19.5m0 9.77V778" stroke="#ef9c49" stroke-width="2" fill="none"/><path d="M541 222.03h-2V221h2zM541 779h-2v-1.03h2z" stroke="#ef9c49" stroke-width=".05" fill="#ef9c49"/><path d="M1507.92 222v9.75m0 9.76v19.52m0 9.75v19.5m0 9.77v19.5m0 9.76v19.5m0 9.76v19.5m0 9.76v19.5m0 9.77v19.5m0 9.75v19.5m0 9.76v19.52m0 9.76v19.5m0 9.76v19.5m0 9.76v19.5m0 9.77v19.5m0 9.76v19.5m0 9.76v19.5m0 9.76v19.5m0 9.76v19.5m0 9.76v19.5m0 9.77V778" stroke="#ef9c49" stroke-width="2" fill="none"/><path d="M1508.92 222.03h-2V221h2zM1508.92 779h-2v-1.03h2z" stroke="#ef9c49" stroke-width=".05" fill="#ef9c49"/><path d="M780 222v9.75m0 9.76v19.52m0 9.75v19.5m0 9.77v19.5m0 9.76v19.5m0 9.76v19.5m0 9.76v19.5m0 9.77v19.5m0 9.75v19.5m0 9.76v19.52m0 9.76v19.5m0 9.76v19.5m0 9.76v19.5m0 9.77v19.5m0 9.76v19.5m0 9.76v19.5m0 9.76v19.5m0 9.76v19.5m0 9.76v19.5m0 9.77V778" stroke="#ef9c49" stroke-width="2" fill="none"/><path d="M781 222.03h-2V221h2zM781 779h-2v-1.03h2z" stroke="#ef9c49" stroke-width=".05" fill="#ef9c49"/><path d="M480 786a6 6 0 0 1 6-6h108a6 6 0 0 1 6 6v88a6 6 0 0 1-6 6H486a6 6 0 0 1-6-6z" stroke="#ef9c49" stroke-width="2" fill="#fffada"/><use xlink:href="#a" transform="matrix(1,0,0,1,480,780) translate(16.07999999999999 55.025)"/><path d="M720 126a6 6 0 0 1 6-6h108a6 6 0 0 1 6 6v88a6 6 0 0 1-6 6H726a6 6 0 0 1-6-6z" stroke="#ef9c49" stroke-width="2" fill="#fffada"/><use xlink:href="#b" transform="matrix(1,0,0,1,720,120) translate(26.129999999999995 55.025)"/><path d="M720 786a6 6 0 0 1 6-6h108a6 6 0 0 1 6 6v88a6 6 0 0 1-6 6H726a6 6 0 0 1-6-6z" stroke="#ef9c49" stroke-width="2" fill="#fffada"/><use xlink:href="#b" transform="matrix(1,0,0,1,720,780) translate(26.129999999999995 55.025)"/><path d="M960 126a6 6 0 0 1 6-6h110.92a6 6 0 0 1 6 6v88a6 6 0 0 1-6 6H966a6 6 0 0 1-6-6z" stroke="#ef9c49" stroke-width="2" fill="#fffada"/><use xlink:href="#c" transform="matrix(1,0,0,1,960,120) translate(15.604999999999992 55.025)"/><path d="M960 786a6 6 0 0 1 6-6h110.92a6 6 0 0 1 6 6v88a6 6 0 0 1-6 6H966a6 6 0 0 1-6-6z" stroke="#ef9c49" stroke-width="2" fill="#fffada"/><use xlink:href="#c" transform="matrix(1,0,0,1,960,780) translate(15.604999999999992 55.025)"/><path d="M1202.92 126a6 6 0 0 1 6-6h108a6 6 0 0 1 6 6v88a6 6 0 0 1-6 6h-108a6 6 0 0 1-6-6z" stroke="#ef9c49" stroke-width="2" fill="#fffada"/><use xlink:href="#d" transform="matrix(1,0,0,1,1202.92,120) translate(17.279999999999994 55.025)"/><path d="M1202.92 786a6 6 0 0 1 6-6h108a6 6 0 0 1 6 6v88a6 6 0 0 1-6 6h-108a6 6 0 0 1-6-6z" stroke="#ef9c49" stroke-width="2" fill="#fffada"/><use xlink:href="#d" transform="matrix(1,0,0,1,1202.92,780) translate(17.279999999999994 55.025)"/><path d="M1447.92 126a6 6 0 0 1 6-6h108a6 6 0 0 1 6 6v88a6 6 0 0 1-6 6h-108a6 6 0 0 1-6-6z" stroke="#ef9c49" stroke-width="2" fill="#fffada"/><use xlink:href="#e" transform="matrix(1,0,0,1,1447.92,120) translate(18.60499999999999 55.025)"/><path d="M1447.92 786a6 6 0 0 1 6-6h108a6 6 0 0 1 6 6v88a6 6 0 0 1-6 6h-108a6 6 0 0 1-6-6z" stroke="#ef9c49" stroke-width="2" fill="#fffada"/><use xlink:href="#e" transform="matrix(1,0,0,1,1447.92,780) translate(18.60499999999999 55.025)"/><path d="M541 280.8h220.5M541.03 280.8H540" stroke="#ef9c49" stroke-width="2" fill="none"/><path d="M776.76 280.8l-14.26 4.62v-9.27z" stroke="#ef9c49" stroke-width="2" fill="#ef9c49"/><use xlink:href="#f" transform="matrix(1,0,0,1,589.0439581458146,259.5115075832586) translate(0 11.516111611161117)"/><path d="M779 340.57H558.5M778.97 340.57H780" stroke="#ef9c49" stroke-width="2" fill="none"/><path d="M543.24 340.57l14.26-4.63v9.27z" stroke="#ef9c49" stroke-width="2" fill="#ef9c49"/><use xlink:href="#g" transform="matrix(1,0,0,1,638.8871287128712,319.29723258325856) translate(0 11.516111611161117)"/><path d="M541 400.36h461.96M541.03 400.36H540" stroke="#ef9c49" stroke-width="2" fill="none"/><path d="M1018.22 400.36l-14.26 4.63v-9.28z" stroke="#ef9c49" stroke-width="2" fill="#ef9c49"/><use xlink:href="#h" transform="matrix(1,0,0,1,753.6191539153915,379.08295758325846) translate(0 11.516111611161117)"/><path d="M1022.46 460.14h221.96M1022.5 460.14h-1.04" stroke="#ef9c49" stroke-width="2" fill="none"/><path d="M1259.68 460.14l-14.26 4.64v-9.27z" stroke="#ef9c49" stroke-width="2" fill="#ef9c49"/><use xlink:href="#h" transform="matrix(1,0,0,1,1115.0791539153915,438.8686825832583) translate(0 11.516111611161117)"/><path d="M1232.92 486a6 6 0 0 1 6-6h52a6 6 0 0 1 6 6v8.4a14.48 14.48 0 0 1-4.24 10.24l-1.52 1.52a14.48 14.48 0 0 1-10.24 4.24h-42a6 6 0 0 1-6-6z" fill="#fffada"/><path d="M1296.92 480v20.4l-10 10h-54" stroke="#ef9c49" stroke-width="2" fill="none"/><path d="M1232.92 486a6 6 0 0 1 6-6h293a6 6 0 0 1 6 6v128a6 6 0 0 1-6 6h-293a6 6 0 0 1-6-6z" stroke="#ef9c49" stroke-width="2" fill="none"/><use xlink:href="#i" transform="matrix(1,0,0,1,1240.92,480) translate(0 19.1)"/><use xlink:href="#j" transform="matrix(1,0,0,1,1244.92,518.4) translate(0 19.1)"/><path d="M1263.92 559.8h119v39.84h-101.5M1263.95 559.8h-1.03" stroke="#ef9c49" stroke-width="2" fill="none"/><path d="M1266.16 599.64l14.26-4.63v9.28z" stroke="#ef9c49" stroke-width="2" fill="#ef9c49"/><use xlink:href="#k" transform="matrix(1,0,0,1,1390.92,571.0772162916289) translate(0 11.516111611161117)"/><path d="M541 679.36h220.5M541.03 679.36H540" stroke="#ef9c49" stroke-width="2" fill="none"/><path d="M776.76 679.36L762.5 684v-9.28z" stroke="#ef9c49" stroke-width="2" fill="#ef9c49"/><use xlink:href="#l" transform="matrix(1,0,0,1,638.4672704770477,658.083007583258) translate(0 11.516111611161117)"/><path d="M781 739.14h708.42M781.03 739.14H780" stroke="#ef9c49" stroke-width="2" fill="none"/><path d="M1504.68 739.14l-14.26 4.64v-9.27z" stroke="#ef9c49" stroke-width="2" fill="#ef9c49"/><use xlink:href="#l" transform="matrix(1,0,0,1,1122.4272704770478,717.868732583258) translate(0 11.516111611161117)"/><defs><path fill="#8B412B" d="M205 0l-28-72H64L36 0H1l101-248h38L239 0h-34zm-38-99l-47-123c-12 45-31 82-46 123h93" id="m"/><path fill="#8B412B" d="M115-194c55 1 70 41 70 98S169 2 115 4C84 4 66-9 55-30l1 105H24l-1-265h31l2 30c10-21 28-34 59-34zm-8 174c40 0 45-34 45-75s-6-73-45-74c-42 0-51 32-51 76 0 43 10 73 51 73" id="n"/><path fill="#8B412B" d="M24 0v-261h32V0H24" id="o"/><path fill="#8B412B" d="M24-231v-30h32v30H24zM24 0v-190h32V0H24" id="p"/><path fill="#8B412B" d="M96-169c-40 0-48 33-48 73s9 75 48 75c24 0 41-14 43-38l32 2c-6 37-31 61-74 61-59 0-76-41-82-99-10-93 101-131 147-64 4 7 5 14 7 22l-32 3c-4-21-16-35-41-35" id="q"/><path fill="#8B412B" d="M141-36C126-15 110 5 73 4 37 3 15-17 15-53c-1-64 63-63 125-63 3-35-9-54-41-54-24 1-41 7-42 31l-33-3c5-37 33-52 76-52 45 0 72 20 72 64v82c-1 20 7 32 28 27v20c-31 9-61-2-59-35zM48-53c0 20 12 33 32 33 41-3 63-29 60-74-43 2-92-5-92 41" id="r"/><path fill="#8B412B" d="M59-47c-2 24 18 29 38 22v24C64 9 27 4 27-40v-127H5v-23h24l9-43h21v43h35v23H59v120" id="s"/><path fill="#8B412B" d="M100-194c62-1 85 37 85 99 1 63-27 99-86 99S16-35 15-95c0-66 28-99 85-99zM99-20c44 1 53-31 53-75 0-43-8-75-51-75s-53 32-53 75 10 74 51 75" id="t"/><path fill="#8B412B" d="M117-194c89-4 53 116 60 194h-32v-121c0-31-8-49-39-48C34-167 62-67 57 0H25l-1-190h30c1 10-1 24 2 32 11-22 29-35 61-36" id="u"/><g id="a"><use transform="matrix(0.05,0,0,0.05,0,0)" xlink:href="#m"/><use transform="matrix(0.05,0,0,0.05,12,0)" xlink:href="#n"/><use transform="matrix(0.05,0,0,0.05,22,0)" xlink:href="#n"/><use transform="matrix(0.05,0,0,0.05,32,0)" xlink:href="#o"/><use transform="matrix(0.05,0,0,0.05,35.95,0)" xlink:href="#p"/><use transform="matrix(0.05,0,0,0.05,39.900000000000006,0)" xlink:href="#q"/><use transform="matrix(0.05,0,0,0.05,48.900000000000006,0)" xlink:href="#r"/><use transform="matrix(0.05,0,0,0.05,58.900000000000006,0)" xlink:href="#s"/><use transform="matrix(0.05,0,0,0.05,63.900000000000006,0)" xlink:href="#p"/><use transform="matrix(0.05,0,0,0.05,67.85000000000001,0)" xlink:href="#t"/><use transform="matrix(0.05,0,0,0.05,77.85000000000001,0)" xlink:href="#u"/></g><path fill="#8B412B" d="M127-220V0H93v-220H8v-28h204v28h-85" id="v"/><path fill="#8B412B" d="M100-194c63 0 86 42 84 106H49c0 40 14 67 53 68 26 1 43-12 49-29l28 8c-11 28-37 45-77 45C44 4 14-33 15-96c1-61 26-98 85-98zm52 81c6-60-76-77-97-28-3 7-6 17-6 28h103" id="w"/><path fill="#8B412B" d="M114-163C36-179 61-72 57 0H25l-1-190h30c1 12-1 29 2 39 6-27 23-49 58-41v29" id="x"/><path fill="#8B412B" d="M210-169c-67 3-38 105-44 169h-31v-121c0-29-5-50-35-48C34-165 62-65 56 0H25l-1-190h30c1 10-1 24 2 32 10-44 99-50 107 0 11-21 27-35 58-36 85-2 47 119 55 194h-31v-121c0-29-5-49-35-48" id="y"/><g id="b"><use transform="matrix(0.05,0,0,0.05,0,0)" xlink:href="#v"/><use transform="matrix(0.05,0,0,0.05,8.950000000000001,0)" xlink:href="#w"/><use transform="matrix(0.05,0,0,0.05,18.950000000000003,0)" xlink:href="#x"/><use transform="matrix(0.05,0,0,0.05,24.900000000000002,0)" xlink:href="#y"/><use transform="matrix(0.05,0,0,0.05,39.85,0)" xlink:href="#p"/><use transform="matrix(0.05,0,0,0.05,43.800000000000004,0)" xlink:href="#u"/><use transform="matrix(0.05,0,0,0.05,53.800000000000004,0)" xlink:href="#r"/><use transform="matrix(0.05,0,0,0.05,63.800000000000004,0)" xlink:href="#o"/></g><path fill="#8B412B" d="M212-179c-10-28-35-45-73-45-59 0-87 40-87 99 0 60 29 101 89 101 43 0 62-24 78-52l27 14C228-24 195 4 139 4 59 4 22-46 18-125c-6-104 99-153 187-111 19 9 31 26 39 46" id="z"/><path fill="#8B412B" d="M135-143c-3-34-86-38-87 0 15 53 115 12 119 90S17 21 10-45l28-5c4 36 97 45 98 0-10-56-113-15-118-90-4-57 82-63 122-42 12 7 21 19 24 35" id="A"/><g id="c"><use transform="matrix(0.05,0,0,0.05,0,0)" xlink:href="#z"/><use transform="matrix(0.05,0,0,0.05,12.950000000000001,0)" xlink:href="#t"/><use transform="matrix(0.05,0,0,0.05,22.950000000000003,0)" xlink:href="#y"/><use transform="matrix(0.05,0,0,0.05,37.900000000000006,0)" xlink:href="#n"/><use transform="matrix(0.05,0,0,0.05,47.900000000000006,0)" xlink:href="#t"/><use transform="matrix(0.05,0,0,0.05,57.900000000000006,0)" xlink:href="#A"/><use transform="matrix(0.05,0,0,0.05,66.9,0)" xlink:href="#p"/><use transform="matrix(0.05,0,0,0.05,70.85000000000001,0)" xlink:href="#s"/><use transform="matrix(0.05,0,0,0.05,75.85000000000001,0)" xlink:href="#t"/><use transform="matrix(0.05,0,0,0.05,85.85000000000001,0)" xlink:href="#x"/></g><path fill="#8B412B" d="M30 0v-248h187v28H63v79h144v27H63v87h162V0H30" id="B"/><path fill="#8B412B" d="M85-194c31 0 48 13 60 33l-1-100h32l1 261h-30c-2-10 0-23-3-31C134-8 116 4 85 4 32 4 16-35 15-94c0-66 23-100 70-100zm9 24c-40 0-46 34-46 75 0 40 6 74 45 74 42 0 51-32 51-76 0-42-9-74-50-73" id="C"/><path fill="#8B412B" d="M137 0h-34L2-248h35l83 218 83-218h36" id="D"/><path fill="#8B412B" d="M206 0h-36l-40-164L89 0H53L-1-190h32L70-26l43-164h34l41 164 42-164h31" id="E"/><g id="d"><use transform="matrix(0.05,0,0,0.05,0,0)" xlink:href="#B"/><use transform="matrix(0.05,0,0,0.05,12,0)" xlink:href="#C"/><use transform="matrix(0.05,0,0,0.05,22,0)" xlink:href="#p"/><use transform="matrix(0.05,0,0,0.05,25.950000000000003,0)" xlink:href="#s"/><use transform="matrix(0.05,0,0,0.05,30.950000000000003,0)" xlink:href="#t"/><use transform="matrix(0.05,0,0,0.05,40.95,0)" xlink:href="#x"/><use transform="matrix(0.05,0,0,0.05,46.900000000000006,0)" xlink:href="#D"/><use transform="matrix(0.05,0,0,0.05,58.550000000000004,0)" xlink:href="#p"/><use transform="matrix(0.05,0,0,0.05,62.5,0)" xlink:href="#w"/><use transform="matrix(0.05,0,0,0.05,72.5,0)" xlink:href="#E"/></g><g id="e"><use transform="matrix(0.05,0,0,0.05,0,0)" xlink:href="#z"/><use transform="matrix(0.05,0,0,0.05,12.950000000000001,0)" xlink:href="#x"/><use transform="matrix(0.05,0,0,0.05,18.900000000000002,0)" xlink:href="#t"/><use transform="matrix(0.05,0,0,0.05,28.900000000000002,0)" xlink:href="#A"/><use transform="matrix(0.05,0,0,0.05,37.900000000000006,0)" xlink:href="#A"/><use transform="matrix(0.05,0,0,0.05,46.900000000000006,0)" xlink:href="#s"/><use transform="matrix(0.05,0,0,0.05,51.900000000000006,0)" xlink:href="#w"/><use transform="matrix(0.05,0,0,0.05,61.900000000000006,0)" xlink:href="#x"/><use transform="matrix(0.05,0,0,0.05,67.85000000000001,0)" xlink:href="#y"/></g><path fill="#8B412B" d="M190-63c-7 42-38 67-86 67-59 0-84-38-90-98-12-110 154-137 174-36l-49 2c-2-19-15-32-35-32-30 0-35 28-38 64-6 74 65 87 74 30" id="F"/><path fill="#8B412B" d="M85 4C-2 5 27-109 22-190h50c7 57-23 150 33 157 60-5 35-97 40-157h50l1 190h-47c-2-12 1-28-3-38-12 25-28 42-61 42" id="G"/><path fill="#8B412B" d="M135-150c-39-12-60 13-60 57V0H25l-1-190h47c2 13-1 29 3 40 6-28 27-53 61-41v41" id="H"/><path fill="#8B412B" d="M185-48c-13 30-37 53-82 52C43 2 14-33 14-96s30-98 90-98c62 0 83 45 84 108H66c0 31 8 55 39 56 18 0 30-7 34-22zm-45-69c5-46-57-63-70-21-2 6-4 13-4 21h74" id="I"/><path fill="#8B412B" d="M135-194c87-1 58 113 63 194h-50c-7-57 23-157-34-157-59 0-34 97-39 157H25l-1-190h47c2 12-1 28 3 38 12-26 28-41 61-42" id="J"/><path fill="#8B412B" d="M115-3C79 11 28 4 28-45v-112H4v-33h27l15-45h31v45h36v33H77v99c-1 23 16 31 38 25v30" id="K"/><path fill="#8B412B" d="M-4 44V30h207v14H-4" id="L"/><path fill="#8B412B" d="M135-194c52 0 70 43 70 98 0 56-19 99-73 100-30 1-46-15-58-35L72 0H24l1-261h50v104c11-23 29-37 60-37zM114-30c31 0 40-27 40-66 0-37-7-63-39-63s-41 28-41 65c0 36 8 64 40 64" id="M"/><path fill="#8B412B" d="M121-226c-27-7-43 5-38 36h38v33H83V0H34v-157H6v-33h28c-9-59 32-81 87-68v32" id="N"/><path fill="#8B412B" d="M220-157c-53 9-28 100-34 157h-49v-107c1-27-5-49-29-50C55-147 81-57 75 0H25l-1-190h47c2 12-1 28 3 38 10-53 101-56 108 0 13-22 24-43 59-42 82 1 51 116 57 194h-49v-107c-1-25-5-48-29-50" id="O"/><path fill="#8B412B" d="M67-93c0 74 22 123 53 168H70C40 30 18-18 18-93s22-123 52-168h50c-32 44-53 94-53 168" id="P"/><path fill="#8B412B" d="M102-93c0 74-22 123-52 168H0C30 29 54-18 53-93c0-74-22-123-53-168h50c30 45 52 94 52 168" id="Q"/><g id="f"><use transform="matrix(0.03998649864986499,0,0,0.03998649864986499,0,0)" xlink:href="#F"/><use transform="matrix(0.03998649864986499,0,0,0.03998649864986499,7.997299729972998,0)" xlink:href="#G"/><use transform="matrix(0.03998649864986499,0,0,0.03998649864986499,16.75434293429343,0)" xlink:href="#H"/><use transform="matrix(0.03998649864986499,0,0,0.03998649864986499,22.352452745274526,0)" xlink:href="#H"/><use transform="matrix(0.03998649864986499,0,0,0.03998649864986499,27.95056255625563,0)" xlink:href="#I"/><use transform="matrix(0.03998649864986499,0,0,0.03998649864986499,35.94786228622863,0)" xlink:href="#J"/><use transform="matrix(0.03998649864986499,0,0,0.03998649864986499,44.70490549054906,0)" xlink:href="#K"/><use transform="matrix(0.03998649864986499,0,0,0.03998649864986499,49.463298829882994,0)" xlink:href="#L"/><use transform="matrix(0.03998649864986499,0,0,0.03998649864986499,57.46059855985599,0)" xlink:href="#M"/><use transform="matrix(0.03998649864986499,0,0,0.03998649864986499,66.21764176417642,0)" xlink:href="#G"/><use transform="matrix(0.03998649864986499,0,0,0.03998649864986499,74.97468496849686,0)" xlink:href="#N"/><use transform="matrix(0.03998649864986499,0,0,0.03998649864986499,79.7330783078308,0)" xlink:href="#N"/><use transform="matrix(0.03998649864986499,0,0,0.03998649864986499,84.49147164716473,0)" xlink:href="#I"/><use transform="matrix(0.03998649864986499,0,0,0.03998649864986499,92.48877137713772,0)" xlink:href="#H"/><use transform="matrix(0.03998649864986499,0,0,0.03998649864986499,98.08688118811882,0)" xlink:href="#L"/><use transform="matrix(0.03998649864986499,0,0,0.03998649864986499,106.08418091809182,0)" xlink:href="#O"/><use transform="matrix(0.03998649864986499,0,0,0.03998649864986499,118.87986048604861,0)" xlink:href="#G"/><use transform="matrix(0.03998649864986499,0,0,0.03998649864986499,127.63690369036905,0)" xlink:href="#K"/><use transform="matrix(0.03998649864986499,0,0,0.03998649864986499,132.395297029703,0)" xlink:href="#P"/><use transform="matrix(0.03998649864986499,0,0,0.03998649864986499,137.15369036903692,0)" xlink:href="#Q"/></g><path fill="#8B412B" d="M182-130c37 4 62 22 62 59C244 23 116-4 24 0v-248c84 5 203-23 205 63 0 31-19 50-47 55zM76-148c40-3 101 13 101-30 0-44-60-28-101-31v61zm0 110c48-3 116 14 116-37 0-48-69-32-116-35v72" id="R"/><g id="g"><use transform="matrix(0.03998649864986499,0,0,0.03998649864986499,0,0)" xlink:href="#R"/><use transform="matrix(0.03998649864986499,0,0,0.03998649864986499,10.356503150315033,0)" xlink:href="#G"/><use transform="matrix(0.03998649864986499,0,0,0.03998649864986499,19.113546354635467,0)" xlink:href="#N"/><use transform="matrix(0.03998649864986499,0,0,0.03998649864986499,23.871939693969402,0)" xlink:href="#N"/><use transform="matrix(0.03998649864986499,0,0,0.03998649864986499,28.630333033303337,0)" xlink:href="#I"/><use transform="matrix(0.03998649864986499,0,0,0.03998649864986499,36.62763276327634,0)" xlink:href="#H"/></g><path fill="#8B412B" d="M88-194c31-1 46 15 58 34l-1-101h50l1 261h-48c-2-10 0-23-3-31C134-8 116 4 84 4 32 4 16-41 15-95c0-56 19-97 73-99zm17 164c33 0 40-30 41-66 1-37-9-64-41-64s-38 30-39 65c0 43 13 65 39 65" id="S"/><g id="h"><use transform="matrix(0.03998649864986499,0,0,0.03998649864986499,0,0)" xlink:href="#H"/><use transform="matrix(0.03998649864986499,0,0,0.03998649864986499,5.598109810981098,0)" xlink:href="#I"/><use transform="matrix(0.03998649864986499,0,0,0.03998649864986499,13.595409540954098,0)" xlink:href="#J"/><use transform="matrix(0.03998649864986499,0,0,0.03998649864986499,22.35245274527453,0)" xlink:href="#S"/><use transform="matrix(0.03998649864986499,0,0,0.03998649864986499,31.10949594959496,0)" xlink:href="#I"/><use transform="matrix(0.03998649864986499,0,0,0.03998649864986499,39.10679567956796,0)" xlink:href="#H"/><use transform="matrix(0.03998649864986499,0,0,0.03998649864986499,44.70490549054906,0)" xlink:href="#P"/><use transform="matrix(0.03998649864986499,0,0,0.03998649864986499,49.463298829882994,0)" xlink:href="#Q"/></g><path fill="#8B412B" d="M30 0v-248h33v221h125V0H30" id="T"/><g id="i"><use transform="matrix(0.05,0,0,0.05,0,0)" xlink:href="#T"/><use transform="matrix(0.05,0,0,0.05,10,0)" xlink:href="#t"/><use transform="matrix(0.05,0,0,0.05,20,0)" xlink:href="#t"/><use transform="matrix(0.05,0,0,0.05,30,0)" xlink:href="#n"/></g><path fill="#8B412B" d="M26 75v-336h71v23H56V52h41v23H26" id="U"/><path fill="#8B412B" d="M109-170H84l-4-78h32zm-65 0H19l-4-78h33" id="V"/><path fill="#8B412B" d="M33 0v-38h34V0H33" id="W"/><path fill="#8B412B" d="M108 0H70L1-190h34L89-25l56-165h34" id="X"/><path fill="#8B412B" d="M87 75C49 33 22-17 22-94c0-76 28-126 65-167h31c-38 41-64 92-64 168S80 34 118 75H87" id="Y"/><path fill="#8B412B" d="M33-261c38 41 65 92 65 168S71 34 33 75H2C39 34 66-17 66-93S39-220 2-261h31" id="Z"/><path fill="#8B412B" d="M3 75V52h41v-290H3v-23h71V75H3" id="aa"/><g id="j"><use transform="matrix(0.05,0,0,0.05,0,0)" xlink:href="#U"/><use transform="matrix(0.05,0,0,0.05,5,0)" xlink:href="#V"/><use transform="matrix(0.05,0,0,0.05,11.350000000000001,0)" xlink:href="#w"/><use transform="matrix(0.05,0,0,0.05,21.35,0)" xlink:href="#C"/><use transform="matrix(0.05,0,0,0.05,31.35,0)" xlink:href="#p"/><use transform="matrix(0.05,0,0,0.05,35.300000000000004,0)" xlink:href="#s"/><use transform="matrix(0.05,0,0,0.05,40.300000000000004,0)" xlink:href="#t"/><use transform="matrix(0.05,0,0,0.05,50.300000000000004,0)" xlink:href="#x"/><use transform="matrix(0.05,0,0,0.05,55.25,0)" xlink:href="#W"/><use transform="matrix(0.05,0,0,0.05,60.25,0)" xlink:href="#s"/><use transform="matrix(0.05,0,0,0.05,65.25,0)" xlink:href="#x"/><use transform="matrix(0.05,0,0,0.05,71.2,0)" xlink:href="#w"/><use transform="matrix(0.05,0,0,0.05,81.2,0)" xlink:href="#w"/><use transform="matrix(0.05,0,0,0.05,91.2,0)" xlink:href="#W"/><use transform="matrix(0.05,0,0,0.05,96.2,0)" xlink:href="#X"/><use transform="matrix(0.05,0,0,0.05,105.2,0)" xlink:href="#p"/><use transform="matrix(0.05,0,0,0.05,109.15,0)" xlink:href="#w"/><use transform="matrix(0.05,0,0,0.05,119.15,0)" xlink:href="#E"/><use transform="matrix(0.05,0,0,0.05,132.1,0)" xlink:href="#A"/><use transform="matrix(0.05,0,0,0.05,141.1,0)" xlink:href="#Y"/><use transform="matrix(0.05,0,0,0.05,147.04999999999998,0)" xlink:href="#Z"/><use transform="matrix(0.05,0,0,0.05,152.99999999999997,0)" xlink:href="#V"/><use transform="matrix(0.05,0,0,0.05,159.34999999999997,0)" xlink:href="#aa"/></g><path fill="#8B412B" d="M128 0H69L1-190h53L99-40l48-150h52" id="ab"/><path fill="#8B412B" d="M25-224v-37h50v37H25zM25 0v-190h50V0H25" id="ac"/><path fill="#8B412B" d="M231 0h-52l-39-155L100 0H48L-1-190h46L77-45c9-52 24-97 36-145h53l37 145 32-145h46" id="ad"/><g id="k"><use transform="matrix(0.03998649864986499,0,0,0.03998649864986499,0,0)" xlink:href="#H"/><use transform="matrix(0.03998649864986499,0,0,0.03998649864986499,5.598109810981098,0)" xlink:href="#I"/><use transform="matrix(0.03998649864986499,0,0,0.03998649864986499,13.595409540954098,0)" xlink:href="#J"/><use transform="matrix(0.03998649864986499,0,0,0.03998649864986499,22.35245274527453,0)" xlink:href="#S"/><use transform="matrix(0.03998649864986499,0,0,0.03998649864986499,31.10949594959496,0)" xlink:href="#I"/><use transform="matrix(0.03998649864986499,0,0,0.03998649864986499,39.10679567956796,0)" xlink:href="#H"/><use transform="matrix(0.03998649864986499,0,0,0.03998649864986499,44.70490549054906,0)" xlink:href="#L"/><use transform="matrix(0.03998649864986499,0,0,0.03998649864986499,52.70220522052206,0)" xlink:href="#ab"/><use transform="matrix(0.03998649864986499,0,0,0.03998649864986499,60.69950495049506,0)" xlink:href="#ac"/><use transform="matrix(0.03998649864986499,0,0,0.03998649864986499,64.69815481548156,0)" xlink:href="#I"/><use transform="matrix(0.03998649864986499,0,0,0.03998649864986499,72.69545454545455,0)" xlink:href="#ad"/><use transform="matrix(0.03998649864986499,0,0,0.03998649864986499,83.89167416741675,0)" xlink:href="#P"/><use transform="matrix(0.03998649864986499,0,0,0.03998649864986499,88.65006750675069,0)" xlink:href="#Q"/></g><path fill="#8B412B" d="M133-34C117-15 103 5 69 4 32 3 11-16 11-54c-1-60 55-63 116-61 1-26-3-47-28-47-18 1-26 9-28 27l-52-2c7-38 36-58 82-57s74 22 75 68l1 82c-1 14 12 18 25 15v27c-30 8-71 5-69-32zm-48 3c29 0 43-24 42-57-32 0-66-3-65 30 0 17 8 27 23 27" id="ae"/><g id="l"><use transform="matrix(0.03998649864986499,0,0,0.03998649864986499,0,0)" xlink:href="#S"/><use transform="matrix(0.03998649864986499,0,0,0.03998649864986499,8.757043204320432,0)" xlink:href="#H"/><use transform="matrix(0.03998649864986499,0,0,0.03998649864986499,14.355153015301529,0)" xlink:href="#ae"/><use transform="matrix(0.03998649864986499,0,0,0.03998649864986499,22.35245274527453,0)" xlink:href="#ad"/><use transform="matrix(0.03998649864986499,0,0,0.03998649864986499,33.548672367236726,0)" xlink:href="#P"/><use transform="matrix(0.03998649864986499,0,0,0.03998649864986499,38.30706570657066,0)" xlink:href="#Q"/></g></defs></g></svg>